{
.formatVersion = 3;
axes = (
{
name = Weight;
tag = wght;
}
);
classes = (
{
code = "quotesingle parenleft parenright hyphen colon less greater at A O bracketleft bracketright a i o braceleft braceright exclamdown copyright guillemotleft periodcentered guillemotright questiondown Scedilla scedilla Tcedilla tcedilla Decyr Zhecyr Kacyr Elcyr becyr vecyr gecyr decyr zhecyr zecyr icyr ishortcyr kacyr elcyr encyr pecyr tecyr tsecyr checyr shacyr shchacyr softcyr yucyr igravecyr endash emdash guilsinglleft guilsinglright arrowleft arrowright";
name = aalt;
},
{
code = "quoteright parenleft.case parenright.case hyphen.case colon.case less.case greater.case at.case ordfeminine ordmasculine bracketleft.case bracketright.case ordfeminine i.loclTRK ordmasculine braceleft.case braceright.case exclamdown.case copyright.case guillemotleft.case periodcentered.case guillemotright.case questiondown.case Scommaaccent scommaaccent Tcommaaccent tcommaaccent Decyr.loclBGR Zhecyr.loclBGR Kacyr.loclBGR Elcyr.loclBGR becyr.loclSRB vecyr.loclBGR gecyr.loclBGR decyr.loclBGR zhecyr.loclBGR zecyr.loclBGR icyr.loclBGR ishortcyr.loclBGR kacyr.loclBGR elcyr.loclBGR encyr.loclBGR pecyr.loclBGR tecyr.loclBGR tsecyr.loclBGR checyr.loclBGR shacyr.loclBGR shchacyr.loclBGR softcyr.loclBGR yucyr.loclBGR igravecyr.loclBGR endash.case emdash.case guilsinglleft.case guilsinglright.case arrowleft.case arrowright.case";
name = aalt2;
},
{
code = "quotesingle parenleft parenright hyphen colon less greater at bracketleft bracketright braceleft braceright exclamdown guillemotleft periodcentered guillemotright questiondown endash emdash arrowleft arrowright";
name = calt;
},
{
code = "quoteright parenleft.case parenright.case hyphen.case colon.case less.case greater.case at.case bracketleft.case bracketright.case braceleft.case braceright.case exclamdown.case guillemotleft.case periodcentered.case guillemotright.case questiondown.case endash.case emdash.case arrowleft.case arrowright.case";
name = calt2;
},
{

glyphs = (
{
glyphname = .notdef;
layers = (
{
layerId = "9CE1DBE4-93A7-4D76-A027-A21376769114";
shapes = (
{
closed = 1;
nodes = (
(200,0,l),
(200,114,l),
(1280,114,l),
(1280,0,l)
);
},
{
closed = 1;
nodes = (
(200,144,l),
(200,224,l),
(1280,224,l),
(1280,144,l)
);
},
{
closed = 1;
nodes = (
(200,260,l),
(200,334,l),
(1280,334,l),
(1280,260,l)
);
},
{
closed = 1;
nodes = (
(200,374,l),
(200,444,l),
(1280,444,l),
(1280,374,l)
);
},
{
closed = 1;
nodes = (
(200,490,l),
(200,556,l),
(1280,556,l),
(1280,490,l)
);
},
{
closed = 1;
nodes = (
(200,606,l),
(200,666,l),
(1280,666,l),
(1280,606,l)
);
},
{
closed = 1;
nodes = (
(200,720,l),
(200,776,l),
(1280,776,l),
(1280,720,l)
);
},
{
closed = 1;
nodes = (
(200,838,l),
(200,886,l),
(1280,886,l),
(1280,838,l)
);
},
{
closed = 1;
nodes = (
(200,952,l),
(200,996,l),
(1280,996,l),
(1280,952,l)
);
},
{
closed = 1;
nodes = (
(200,1066,l),
(200,1108,l),
(1280,1108,l),
(1280,1066,l)
);
},
{
closed = 1;
nodes = (
(200,1184,l),
(200,1220,l),
(1280,1220,l),
(1280,1184,l)
);
},
{
closed = 1;
nodes = (
(200,1298,l),
(200,1330,l),
(1280,1330,l),
(1280,1298,l)
);
},
{
closed = 1;
nodes = (
(200,1414,l),
(200,1440,l),
(1280,1440,l),
(1280,1414,l)
);
}
);
width = 1480;
},
{
layerId = "1AFB8506-DA78-41BC-86D2-7292AF872014";
shapes = (
{
closed = 1;
nodes = (
(200,0,l),
(200,114,l),
(1280,114,l),
(1280,0,l)
);
},
{
closed = 1;
nodes = (
(200,144,l),
(200,224,l),
(1280,224,l),
(1280,144,l)
);
},
{
closed = 1;
nodes = (
(200,260,l),
(200,334,l),
(1280,334,l),
(1280,260,l)
);
},
{
closed = 1;
nodes = (
(200,374,l),
(200,444,l),
(1280,444,l),
(1280,374,l)
);
},
{
closed = 1;
nodes = (
(200,490,l),
(200,556,l),
(1280,556,l),
(1280,490,l)
);
},
{
closed = 1;
nodes = (
(200,606,l),
(200,666,l),
(1280,666,l),
(1280,606,l)
);
},
{
closed = 1;
nodes = (
(200,720,l),
(200,776,l),
(1280,776,l),
(1280,720,l)
);
},
{
closed = 1;
nodes = (
(200,838,l),
(200,886,l),
(1280,886,l),
(1280,838,l)
);
},
{
closed = 1;
nodes = (
(200,952,l),
(200,996,l),
(1280,996,l),
(1280,952,l)
);
},
{
closed = 1;
nodes = (
(200,1066,l),
(200,1108,l),
(1280,1108,l),
(1280,1066,l)
);
},
{
closed = 1;
nodes = (
(200,1184,l),
(200,1220,l),
(1280,1220,l),
(1280,1184,l)
);
},
{
closed = 1;
nodes = (
(200,1298,l),
(200,1330,l),
(1280,1330,l),
(1280,1298,l)
);
},
{
closed = 1;
nodes = (
(200,1414,l),
(200,1440,l),
(1280,1440,l),
(1280,1414,l)
);
}
);
width = 1480;
},
{
layerId = "D76E36A3-365E-47C5-869B-D9C6C556C4D0";
shapes = (
{
closed = 1;
nodes = (
(200,0,l),
(200,114,l),
(1280,114,l),
(1280,0,l)
);
},
{
closed = 1;
nodes = (
(200,144,l),
(200,224,l),
(1280,224,l),
(1280,144,l)
);
},
{
closed = 1;
nodes = (
(200,260,l),
(200,334,l),
(1280,334,l),
(1280,260,l)
);
},
{
closed = 1;
nodes = (
(200,374,l),
(200,444,l),
(1280,444,l),
(1280,374,l)
);
},
{
closed = 1;
nodes = (
(200,490,l),
(200,556,l),
(1280,556,l),
(1280,490,l)
);
},
{
closed = 1;
nodes = (
(200,606,l),
(200,666,l),
(1280,666,l),
(1280,606,l)
);
},
{
closed = 1;
nodes = (
(200,720,l),
(200,776,l),
(1280,776,l),
(1280,720,l)
);
},
{
closed = 1;
nodes = (
(200,838,l),
(200,886,l),
(1280,886,l),
(1280,838,l)
);
},
{
closed = 1;
nodes = (
(200,952,l),
(200,996,l),
(1280,996,l),
(1280,952,l)
);
},
{
closed = 1;
nodes = (
(200,1066,l),
(200,1108,l),
(1280,1108,l),
(1280,1066,l)
);
},
{
closed = 1;
nodes = (
(200,1184,l),
(200,1220,l),
(1280,1220,l),
(1280,1184,l)
);
},
{
closed = 1;
nodes = (
(200,1298,l),
(200,1330,l),
(1280,1330,l),
(1280,1298,l)
);
},
{
closed = 1;
nodes = (
(200,1414,l),
(200,1440,l),
(1280,1440,l),
(1280,1414,l)
);
}
);
width = 1480;
}
);
leftKerningGroup = B2;
},
{
glyphname = exclam;
layers = (
{
layerId = "9CE1DBE4-93A7-4D76-A027-A21376769114";
shapes = (
{
closed = 1;
nodes = (
(331,-22,o),
(293,-7,o),
(263,24,cs),
(232,55,o),
(217,92,o),
(217,136,cs),
(217,181,o),
(232,218,o),
(263,249,cs),
(293,279,o),
(331,294,o),
(376,294,cs),
(422,294,o),
(460,279,o),
(490,249,cs),
(520,218,o),
(535,181,o),
(535,136,cs),
(535,92,o),
(520,55,o),
(490,24,cs),
(460,-7,o),
(422,-22,o),
(376,-22,cs)
);
},
{
closed = 1;
nodes = (
(260,420,l),
(232,833,l),
(232,1440,l),
(520,1440,l),
(520,833,l),
(492,420,l)
);
}
);
width = 752;
},
{
layerId = "1AFB8506-DA78-41BC-86D2-7292AF872014";
shapes = (
{
closed = 1;
nodes = (
(294,-13,o),
(267,-3,o),
(245,20,cs),
(223,42,o),
(212,68,o),
(212,99,cs),
(212,131,o),
(223,158,o),
(245,180,cs),
(267,202,o),
(294,212,o),
(326,212,cs),
(359,212,o),
(385,202,o),
(407,180,cs),
(429,158,o),
(440,131,o),
(440,99,cs),
(440,67,o),
(429,41,o),
(407,19,cs),
(385,-3,o),
(359,-13,o),
(326,-13,cs)
);
},
{
closed = 1;
nodes = (
(261,388,l),
(236,815,l),
(236,1440,l),
(415,1440,l),
(415,815,l),
(397,388,l)
);
}
);
width = 652;
},
{
layerId = "D76E36A3-365E-47C5-869B-D9C6C556C4D0";
shapes = (
{
closed = 1;
nodes = (
(261,-6,o),
(244,1,o),
(230,16,c),
(215,30,o),
(208,47,o),
(208,67,cs),
(208,88,o),
(215,106,o),
(230,120,cs),
(244,134,o),
(261,141,o),
(282,141,cs),
(303,141,o),
(320,134,o),
(335,120,cs),
(349,106,o),
(356,88,o),
(356,67,cs),
(356,46,o),
(349,29,o),
(335,15,cs),
(320,1,o),
(303,-6,o),
(282,-6,cs)
);
},
{
closed = 1;
nodes = (
(262,360,l),
(240,800,l),
(240,1440,l),
(324,1440,l),
(324,800,l),
(314,360,l)
);
}
);
width = 564;
}
);
leftKerningGroup = B2;
unicode = 33;
},
{
glyphname = numbersign;
layers = (
{
layerId = "9CE1DBE4-93A7-4D76-A027-A21376769114";
shapes = (
{
closed = 1;
nodes = (
(366,2,l),
(468,378,l),
(120,378,l),
(188,634,l),
(536,634,l),
(590,840,l),
(242,840,l),
(312,1094,l),
(658,1094,l),
(752,1440,l),
(1016,1440,l),
(922,1094,l),
(1138,1094,l),
(1232,1440,l),
(1496,1440,l),
(1402,1094,l),
(1750,1094,l),
(1682,840,l),
(1334,840,l),
(1278,634,l),
(1626,634,l),
(1558,378,l),
(1210,378,l),
(1110,2,l),
(846,2,l),
(946,378,l),
(730,378,l),
(630,2,l)
);
},
{
closed = 1;
nodes = (
(800,634,l),
(1014,634,l),
(1070,840,l),
(854,840,l)
);
}
);
width = 1870;
},
{
layerId = "1AFB8506-DA78-41BC-86D2-7292AF872014";
shapes = (
{
closed = 1;
nodes = (
(402,1,l),
(515,423,l),
(120,423,l),
(163,587,l),
(559,587,l),
(638,885,l),
(243,885,l),
(287,1048,l),
(683,1048,l),
(787,1440,l),
(957,1440,l),
(852,1048,l),
(1163,1048,l),
(1267,1440,l),
(1437,1440,l),
(1332,1048,l),
(1727,1048,l),
(1683,885,l),
(1288,885,l),
(1208,587,l),
(1603,587,l),
(1559,423,l),
(1164,423,l),
(1051,1,l),
(882,1,l),
(994,423,l),
(684,423,l),
(571,1,l)
);
},
{
closed = 1;
nodes = (
(729,587,l),
(1039,587,l),
(1118,885,l),
(808,885,l)
);
}
);
width = 1847;
},
{
layerId = "D76E36A3-365E-47C5-869B-D9C6C556C4D0";
shapes = (
{
closed = 1;
nodes = (
(434,0,l),
(556,462,l),
(120,462,l),
(142,546,l),
(580,546,l),
(680,924,l),
(244,924,l),
(266,1008,l),
(704,1008,l),
(818,1440,l),
(906,1440,l),
(790,1008,l),
(1184,1008,l),
(1298,1440,l),
(1386,1440,l),
(1270,1008,l),
(1706,1008,l),
(1684,924,l),
(1248,924,l),
(1146,546,l),
(1582,546,l),
(1560,462,l),
(1124,462,l),
(1000,0,l),
(914,0,l),
(1036,462,l),
(644,462,l),
(520,0,l)
);
},
{
closed = 1;
nodes = (
(666,546,l),
(1060,546,l),
(1160,924,l),
(768,924,l)
);
}
);
width = 1826;
}
);
leftKerningGroup = B2;
unicode = 35;
},
{
glyphname = dollar;
layers = (
{
layerId = "9CE1DBE4-93A7-4D76-A027-A21376769114";
shapes = (
{
closed = 1;
nodes = (
(516,-200,l),
(516,40,l),
(788,40,l),
(788,-200,l)
);
},
{
closed = 1;
nodes = (
(516,1398,l),
(516,1638,l),
(788,1638,l),
(788,1398,l)
);
},
{
closed = 1;
nodes = (
(551,-30,o),
(458,-11,o),
(377,28,cs),
(214,104,o),
(108,248,o),
(80,440,c),
(350,482,l),
(368,403,o),
(406,341,o),
(464,294,cs),
(521,247,o),
(590,224,o),
(670,224,cs),
(745,224,o),
(808,242,o),
(858,277,cs),
(907,312,o),
(932,356,o),
(932,408,cs),
(932,443,o),
(921,473,o),
(900,496,cs),
(878,519,o),
(844,537,o),
(798,552,cs),
(442,662,ls),
(237,725,o),
(134,851,o),
(134,1038,cs),
(134,1126,o),
(155,1202,o),
(197,1267,cs),
(280,1396,o),
(436,1469,o),
(644,1468,cs),
(739,1467,o),
(824,1450,o),
(898,1417,cs),
(1046,1351,o),
(1147,1225,o),
(1192,1046,c),
(912,996,l),
(903,1039,o),
(885,1076,o),
(860,1109,cs),
(809,1173,o),
(732,1211,o),
(640,1214,cs),
(596,1215,o),
(556,1209,o),
(521,1195,cs),
(449,1167,o),
(404,1115,o),
(404,1052,cs),
(404,983,o),
(460,934,o),
(588,898,cs),
(842,826,ls),
(969,789,o),
(1061,740,o),
(1118,677,cs),
(1174,614,o),
(1202,531,o),
(1202,428,cs),
(1202,337,o),
(1179,258,o),
(1133,189,cs),
(1041,52,o),
(871,-30,o),
(654,-30,cs)
);
}
);
width = 1282;
},
{
layerId = "1AFB8506-DA78-41BC-86D2-7292AF872014";
shapes = (
{
closed = 1;
nodes = (
(519,-198,l),
(519,33,l),
(691,33,l),
(691,-198,l)
);
},
{
closed = 1;
nodes = (
(519,1408,l),
(519,1639,l),
(691,1639,l),
(691,1408,l)
);
},
{
closed = 1;
nodes = (
(523,-30,o),
(435,-13,o),
(358,23,cs),
(203,92,o),
(100,222,o),
(69,396,c),
(238,424,l),
(259,335,o),
(305,264,o),
(375,212,cs),
(445,160,o),
(529,133,o),
(627,133,cs),
(726,133,o),
(807,158,o),
(869,206,cs),
(930,253,o),
(961,315,o),
(961,392,cs),
(961,448,o),
(944,493,o),
(911,527,cs),
(878,561,o),
(822,590,o),
(745,614,cs),
(417,715,ls),
(222,776,o),
(123,894,o),
(123,1066,cs),
(123,1147,o),
(143,1217,o),
(183,1278,cs),
(262,1399,o),
(408,1470,o),
(598,1469,cs),
(690,1469,o),
(773,1452,o),
(846,1418,cs),
(991,1350,o),
(1088,1222,o),
(1122,1048,c),
(948,1016,l),
(939,1074,o),
(918,1124,o),
(886,1168,cs),
(822,1254,o),
(720,1304,o),
(597,1306,cs),
(539,1306,o),
(488,1297,o),
(443,1277,cs),
(351,1237,o),
(295,1164,o),
(295,1073,cs),
(295,974,o),
(366,908,o),
(524,860,c),
(795,779,ls),
(913,744,o),
(999,697,o),
(1051,637,cs),
(1104,577,o),
(1129,498,o),
(1129,399,cs),
(1129,313,o),
(1109,238,o),
(1066,174,cs),
(982,46,o),
(824,-30,o),
(620,-30,cs)
);
}
);
width = 1199;
},
{
layerId = "D76E36A3-365E-47C5-869B-D9C6C556C4D0";
shapes = (
{
closed = 1;
nodes = (
(522,-196,l),
(522,26,l),
(606,26,l),
(606,-196,l)
);
},
{
closed = 1;
nodes = (
(522,1416,l),
(522,1640,l),
(606,1640,l),
(606,1416,l)
);
},
{
closed = 1;
nodes = (
(498,-30,o),
(415,-14,o),
(342,18,cs),
(194,81,o),
(93,199,o),
(60,358,c),
(140,374,l),
(164,275,o),
(216,197,o),
(297,140,cs),
(378,83,o),
(475,54,o),
(590,54,cs),
(710,54,o),
(806,84,o),
(878,143,cs),
(950,202,o),
(986,280,o),
(986,378,cs),
(986,452,o),
(964,511,o),
(921,555,cs),
(878,598,o),
(803,636,o),
(698,668,cs),
(396,762,ls),
(208,821,o),
(114,931,o),
(114,1090,cs),
(114,1165,o),
(133,1231,o),
(171,1288,cs),
(246,1402,o),
(383,1470,o),
(558,1470,cs),
(648,1470,o),
(729,1453,o),
(800,1418,cs),
(943,1349,o),
(1037,1219,o),
(1060,1050,c),
(980,1034,l),
(971,1104,o),
(947,1166,o),
(909,1219,cs),
(833,1325,o),
(709,1386,o),
(560,1386,cs),
(490,1386,o),
(428,1374,o),
(374,1349,cs),
(266,1299,o),
(200,1207,o),
(200,1092,cs),
(200,967,o),
(283,885,o),
(468,826,cs),
(754,738,ls),
(864,704,o),
(944,659,o),
(993,602,cs),
(1042,545,o),
(1066,469,o),
(1066,374,cs),
(1066,292,o),
(1047,221,o),
(1008,161,cs),
(930,40,o),
(783,-30,o),
(590,-30,cs)
);
}
);
width = 1126;
}
);
leftKerningGroup = S2;
rightKerningGroup = S;
unicode = 36;
},
{
glyphname = percent;
layers = (
{
layerId = "9CE1DBE4-93A7-4D76-A027-A21376769114";
shapes = (
{
closed = 1;
nodes = (
(360,0,l),
(180,180,l),
(1440,1440,l),
(1620,1258,l)
);
},
{
closed = 1;
nodes = (
(1122,-30,o),
(960,132,o),
(960,330,cs),
(960,525,o),
(1125,690,o),
(1320,690,cs),
(1520,690,o),
(1680,530,o),
(1680,330,cs),
(1680,131,o),
(1520,-30,o),
(1320,-30,cs)
);
},
{
closed = 1;
nodes = (
(1390,200,o),
(1450,260,o),
(1450,330,cs),
(1450,400,o),
(1390,460,o),
(1320,460,cs),
(1251,460,o),
(1190,399,o),
(1190,330,cs),
(1190,261,o),
(1251,200,o),
(1320,200,cs)
);
},
{
closed = 1;
nodes = (
(281,750,o),
(120,911,o),
(120,1110,cs),
(120,1305,o),
(285,1470,o),
(480,1470,cs),
(679,1470,o),
(840,1309,o),
(840,1110,cs),
(840,912,o),
(678,750,o),
(480,750,cs)
);
},
{
closed = 1;
nodes = (
(550,980,o),
(610,1040,o),
(610,1110,cs),
(610,1180,o),
(550,1240,o),
(480,1240,cs),
(411,1240,o),
(350,1179,o),
(350,1110,cs),
(350,1041,o),
(411,980,o),
(480,980,cs)
);
}
);
width = 1800;
},
{
layerId = "1AFB8506-DA78-41BC-86D2-7292AF872014";
shapes = (
{
closed = 1;
nodes = (
(296,0,l),
(180,116,l),
(1506,1440,l),
(1622,1324,l)
);
},
{
closed = 1;
nodes = (
(1124,-30,o),
(962,132,o),
(962,330,cs),
(962,525,o),
(1127,690,o),
(1322,690,cs),
(1522,690,o),
(1682,530,o),
(1682,330,cs),
(1682,131,o),
(1522,-30,o),
(1322,-30,cs)
);
},
{
closed = 1;
nodes = (
(1435,122,o),
(1530,217,o),
(1530,330,cs),
(1530,444,o),
(1436,538,o),
(1322,538,cs),
(1209,538,o),
(1114,443,o),
(1114,330,cs),
(1114,218,o),
(1210,122,o),
(1322,122,cs)
);
},
{
closed = 1;
nodes = (
(281,750,o),
(120,911,o),
(120,1110,cs),
(120,1305,o),
(285,1470,o),
(480,1470,cs),
(679,1470,o),
(840,1309,o),
(840,1110,cs),
(840,912,o),
(678,750,o),
(480,750,cs)
);
},
{
closed = 1;
nodes = (
(593,902,o),
(688,997,o),
(688,1110,cs),
(688,1224,o),
(594,1318,o),
(480,1318,cs),
(367,1318,o),
(272,1223,o),
(272,1110,cs),
(272,998,o),
(368,902,o),
(480,902,cs)
);
}
);
width = 1802;
},
{
layerId = "D76E36A3-365E-47C5-869B-D9C6C556C4D0";
shapes = (
{
closed = 1;
nodes = (
(240,0,l),
(180,60,l),
(1564,1440,l),
(1624,1382,l)
);
},
{
closed = 1;
nodes = (
(1126,-30,o),
(964,132,o),
(964,330,cs),
(964,525,o),
(1129,690,o),
(1324,690,cs),
(1524,690,o),
(1684,530,o),
(1684,330,cs),
(1684,131,o),
(1524,-30,o),
(1324,-30,cs)
);
},
{
closed = 1;
nodes = (
(1474,54,o),
(1600,180,o),
(1600,330,cs),
(1600,482,o),
(1476,606,o),
(1324,606,cs),
(1173,606,o),
(1048,481,o),
(1048,330,cs),
(1048,180,o),
(1174,54,o),
(1324,54,cs)
);
},
{
closed = 1;
nodes = (
(281,750,o),
(120,911,o),
(120,1110,cs),
(120,1305,o),
(285,1470,o),
(480,1470,cs),
(679,1470,o),
(840,1309,o),
(840,1110,cs),
(840,912,o),
(678,750,o),
(480,750,cs)
);
},
{
closed = 1;
nodes = (
(630,834,o),
(756,960,o),
(756,1110,cs),
(756,1262,o),
(632,1386,o),
(480,1386,cs),
(329,1386,o),
(204,1261,o),
(204,1110,cs),
(204,960,o),
(330,834,o),
(480,834,cs)
);
}
);
width = 1804;
}
);
leftKerningGroup = B2;
unicode = 37;
},
{
glyphname = ampersand;
layers = (
{
layerId = "9CE1DBE4-93A7-4D76-A027-A21376769114";
shapes = (
{
closed = 1;
nodes = (
(343,-30,o),
(100,118,o),
(100,422,cs),
(100,580,o),
(153,696,o),
(276,794,c),
(207,873,o),
(168,950,o),
(168,1056,cs),
(168,1332,o),
(384,1466,o),
(638,1466,cs),
(849,1466,o),
(1031,1363,o),
(1082,1148,c),
(812,1094,l),
(787,1183,o),
(716,1212,o),
(630,1212,cs),
(528,1212,o),
(442,1163,o),
(442,1052,cs),
(442,960,o),
(536,892,o),
(598,834,cs),
(928,528,l),
(928,609,o),
(928,690,o),
(928,774,c),
(1164,774,l),
(1164,500,ls),
(1164,441,o),
(1165,378,o),
(1152,320,c),
(1328,158,l),
(1154,-28,l),
(1022,98,l),
(903,-5,o),
(775,-30,o),
(622,-30,cs)
);
},
{
closed = 1;
nodes = (
(701,228,o),
(771,240,o),
(826,280,c),
(474,604,l),
(404,574,o),
(374,512,o),
(374,438,cs),
(374,287,o),
(500,228,o),
(634,228,cs)
);
}
);
width = 1348;
},
{
layerId = "1AFB8506-DA78-41BC-86D2-7292AF872014";
shapes = (
{
closed = 1;
nodes = (
(343,-30,o),
(100,108,o),
(100,400,cs),
(100,573,o),
(171,701,o),
(323,782,c),
(238,871,o),
(179,954,o),
(179,1081,cs),
(179,1334,o),
(374,1468,o),
(611,1468,cs),
(792,1468,o),
(961,1390,o),
(1021,1210,c),
(854,1165,l),
(816,1268,o),
(713,1305,o),
(612,1305,cs),
(470,1305,o),
(355,1234,o),
(355,1081,cs),
(355,956,o),
(449,887,o),
(532,809,cs),
(962,410,l),
(973,509,o),
(967,612,o),
(966,713,c),
(1125,713,l),
(1125,482,ls),
(1125,413,o),
(1124,343,o),
(1105,276,c),
(1289,107,l),
(1176,-13,l),
(1023,132,l),
(923,4,o),
(762,-30,o),
(607,-30,cs)
);
},
{
closed = 1;
nodes = (
(726,135,o),
(825,158,o),
(899,251,c),
(454,658,l),
(334,619,o),
(276,533,o),
(276,408,cs),
(276,216,o),
(439,135,o),
(611,135,cs)
);
}
);
width = 1312;
},
{
layerId = "D76E36A3-365E-47C5-869B-D9C6C556C4D0";
shapes = (
{
closed = 1;
nodes = (
(343,-30,o),
(100,99,o),
(100,380,cs),
(100,567,o),
(187,706,o),
(364,772,c),
(266,870,o),
(188,957,o),
(188,1102,cs),
(188,1336,o),
(365,1470,o),
(588,1470,cs),
(743,1470,o),
(899,1414,o),
(968,1264,c),
(890,1228,l),
(841,1342,o),
(711,1386,o),
(596,1386,cs),
(419,1386,o),
(278,1297,o),
(278,1106,cs),
(278,953,o),
(372,883,o),
(474,788,cs),
(992,306,l),
(1013,421,o),
(1001,544,o),
(1000,660,c),
(1090,660,l),
(1090,466,ls),
(1090,389,o),
(1088,312,o),
(1064,238,c),
(1254,62,l),
(1196,0,l),
(1024,162,l),
(941,12,o),
(751,-30,o),
(594,-30,cs)
);
},
{
closed = 1;
nodes = (
(748,54,o),
(872,86,o),
(962,226,c),
(436,706,l),
(273,659,o),
(190,552,o),
(190,382,cs),
(190,153,o),
(386,54,o),
(590,54,cs)
);
}
);
width = 1280;
}
);
leftKerningGroup = B2;
unicode = 38;
},
{
glyphname = parenleft;
layers = (
{
layerId = "9CE1DBE4-93A7-4D76-A027-A21376769114";
shapes = (
{
closed = 1;
nodes = (
(642,-388,l),
(565,-297,o),
(499,-194,o),
(444,-79,cs),
(334,152,o),
(275,411,o),
(280,660,c),
(277,785,o),
(290,910,o),
(319,1037,cs),
(375,1290,o),
(487,1527,o),
(642,1708,c),
(844,1560,l),
(763,1462,o),
(699,1364,o),
(653,1267,cs),
(561,1071,o),
(527,872,o),
(526,660,cs),
(527,554,o),
(537,451,o),
(556,351,cs),
(594,150,o),
(681,-44,o),
(844,-240,c)
);
}
);
width = 924;
},
{
layerId = "1AFB8506-DA78-41BC-86D2-7292AF872014";
shapes = (
{
closed = 1;
nodes = (
(654,-365,l),
(576,-275,o),
(509,-174,o),
(453,-62,cs),
(340,162,o),
(278,413,o),
(280,660,c),
(279,784,o),
(293,907,o),
(323,1030,cs),
(383,1276,o),
(498,1505,o),
(654,1685,c),
(781,1588,l),
(703,1495,o),
(638,1397,o),
(587,1297,cs),
(486,1094,o),
(438,881,o),
(437,660,cs),
(438,551,o),
(451,442,o),
(475,336,cs),
(525,121,o),
(626,-84,o),
(781,-267,c)
);
}
);
width = 866;
},
{
layerId = "D76E36A3-365E-47C5-869B-D9C6C556C4D0";
shapes = (
{
closed = 1;
nodes = (
(664,-344,l),
(585,-255,o),
(517,-156,o),
(460,-47,cs),
(345,170,o),
(280,415,o),
(280,660,cs),
(280,783,o),
(296,904,o),
(327,1024,cs),
(390,1264,o),
(507,1485,o),
(664,1664,c),
(726,1612,l),
(650,1523,o),
(585,1426,o),
(530,1323,cs),
(421,1115,o),
(360,888,o),
(360,660,cs),
(360,548,o),
(375,435,o),
(405,322,cs),
(465,95,o),
(577,-119,o),
(726,-290,c)
);
}
);
width = 816;
}
);
leftKerningGroup = parenleft2;
rightKerningGroup = parenleft;
unicode = 40;
},
{
glyphname = parenright;
layers = (
{
layerId = "9CE1DBE4-93A7-4D76-A027-A21376769114";
shapes = (
{
closed = 1;
nodes = (
(80,-240,l),
(161,-142,o),
(225,-44,o),
(271,54,cs),
(363,249,o),
(397,448,o),
(398,660,cs),
(397,766,o),
(388,869,o),
(369,970,cs),
(331,1170,o),
(243,1364,o),
(80,1560,c),
(282,1708,l),
(359,1617,o),
(426,1515,o),
(481,1400,cs),
(591,1170,o),
(649,909,o),
(644,660,c),
(647,535,o),
(634,410,o),
(606,284,cs),
(549,31,o),
(437,-207,o),
(282,-388,c)
);
}
);
width = 924;
},
{
layerId = "1AFB8506-DA78-41BC-86D2-7292AF872014";
shapes = (
{
closed = 1;
nodes = (
(85,-267,l),
(163,-176,o),
(227,-79,o),
(278,23,cs),
(379,225,o),
(428,442,o),
(429,660,cs),
(428,770,o),
(416,879,o),
(392,985,cs),
(343,1198,o),
(242,1401,o),
(85,1588,c),
(213,1685,l),
(291,1595,o),
(358,1494,o),
(414,1382,cs),
(527,1159,o),
(589,907,o),
(586,660,c),
(588,536,o),
(573,413,o),
(544,290,cs),
(483,44,o),
(369,-185,o),
(213,-365,c)
);
}
);
width = 866;
},
{
layerId = "D76E36A3-365E-47C5-869B-D9C6C556C4D0";
shapes = (
{
closed = 1;
nodes = (
(90,-290,l),
(165,-205,o),
(229,-110,o),
(284,-5,cs),
(393,204,o),
(456,436,o),
(456,660,cs),
(456,774,o),
(441,887,o),
(412,999,cs),
(353,1223,o),
(242,1433,o),
(90,1612,c),
(152,1664,l),
(231,1575,o),
(299,1476,o),
(356,1367,cs),
(471,1150,o),
(536,905,o),
(536,660,cs),
(536,537,o),
(520,416,o),
(489,296,cs),
(426,56,o),
(309,-165,o),
(152,-344,c)
);
}
);
width = 816;
}
);
leftKerningGroup = parenright2;
rightKerningGroup = parenright;
unicode = 41;
},
{
glyphname = asterisk;
layers = (
{
layerId = "9CE1DBE4-93A7-4D76-A027-A21376769114";
shapes = (
{
closed = 1;
nodes = (
(326,710,l),
(132,850,l),
(280,1018,l),
(60,1074,l),
(134,1302,l),
(342,1212,l),
(324,1440,l),
(564,1440,l),
(546,1212,l),
(754,1302,l),
(828,1074,l),
(608,1018,l),
(756,850,l),
(562,710,l),
(444,900,l)
);
}
);
width = 948;
},
{
layerId = "1AFB8506-DA78-41BC-86D2-7292AF872014";
shapes = (
{
closed = 1;
nodes = (
(273,765,l),
(146,857,l),
(301,1054,l),
(60,1125,l),
(108,1274,l),
(344,1187,l),
(336,1440,l),
(493,1440,l),
(484,1187,l),
(720,1274,l),
(768,1125,l),
(527,1054,l),
(681,857,l),
(555,765,l),
(414,973,l)
);
}
);
width = 888;
},
{
layerId = "D76E36A3-365E-47C5-869B-D9C6C556C4D0";
shapes = (
{
closed = 1;
nodes = (
(226,814,l),
(158,864,l),
(320,1086,l),
(60,1170,l),
(86,1250,l),
(346,1166,l),
(346,1440,l),
(430,1440,l),
(430,1166,l),
(690,1250,l),
(716,1170,l),
(456,1086,l),
(616,864,l),
(548,814,l),
(388,1036,l)
);
}
);
width = 836;
}
);
leftKerningGroup = B2;
unicode = 42;
},
{
glyphname = plus;
layers = (
{
layerId = "9CE1DBE4-93A7-4D76-A027-A21376769114";
shapes = (
{
closed = 1;
nodes = (
(466,270,l),
(466,616,l),
(120,616,l),
(120,826,l),
(466,826,l),
(466,1170,l),
(676,1170,l),
(676,826,l),
(1020,826,l),
(1020,616,l),
(676,616,l),
(676,270,l)
);
}
);
width = 1140;
},
{
layerId = "1AFB8506-DA78-41BC-86D2-7292AF872014";
shapes = (
{
closed = 1;
nodes = (
(504,265,l),
(504,649,l),
(120,649,l),
(120,792,l),
(504,792,l),
(504,1175,l),
(647,1175,l),
(647,792,l),
(1031,792,l),
(1031,649,l),
(647,649,l),
(647,265,l)
);
}
);
width = 1151;
},
{
layerId = "D76E36A3-365E-47C5-869B-D9C6C556C4D0";
shapes = (
{
closed = 1;
nodes = (
(538,260,l),
(538,678,l),
(120,678,l),
(120,762,l),
(538,762,l),
(538,1180,l),
(622,1180,l),
(622,762,l),
(1040,762,l),
(1040,678,l),
(622,678,l),
(622,260,l)
);
}
);
width = 1160;
}
);
leftKerningGroup = B2;
unicode = 43;
},
{
glyphname = comma;
layers = (
{
layerId = "9CE1DBE4-93A7-4D76-A027-A21376769114";
shapes = (
{
closed = 1;
nodes = (
(198,272,l),
(455,272,l),
(281,-329,l),
(111,-329,l)
);
}
);
width = 632;
},
{
layerId = "1AFB8506-DA78-41BC-86D2-7292AF872014";
shapes = (
{
closed = 1;
nodes = (
(188,223,l),
(358,223,l),
(211,-282,l),
(97,-282,l)
);
}
);
width = 551;
},
{
layerId = "D76E36A3-365E-47C5-869B-D9C6C556C4D0";
shapes = (
{
closed = 1;
nodes = (
(180,180,l),
(273,180,l),
(150,-240,l),
(84,-240,l)
);
}
);
width = 480;
}
);
leftKerningGroup = comma;
unicode = 44;
},
{
glyphname = hyphen;
layers = (
{
layerId = "9CE1DBE4-93A7-4D76-A027-A21376769114";
shapes = (
{
closed = 1;
nodes = (
(120,435,l),
(120,645,l),
(720,645,l),
(720,435,l)
);
}
);
width = 840;
},
{
layerId = "1AFB8506-DA78-41BC-86D2-7292AF872014";
shapes = (
{
closed = 1;
nodes = (
(120,469,l),
(120,611,l),
(720,611,l),
(720,469,l)
);
}
);
width = 840;
},
{
layerId = "D76E36A3-365E-47C5-869B-D9C6C556C4D0";
shapes = (
{
closed = 1;
nodes = (
(120,498,l),
(120,582,l),
(720,582,l),
(720,498,l)
);
}
);
width = 840;
}
);
leftKerningGroup = B2;
unicode = 45;
},
{
glyphname = period;
layers = (
{
layerId = "9CE1DBE4-93A7-4D76-A027-A21376769114";
shapes = (
{
closed = 1;
nodes = (
(230,-22,o),
(161,46,o),
(161,136,cs),
(161,227,o),
(230,294,o),
(320,294,cs),
(411,294,o),
(479,227,o),
(479,136,cs),
(479,45,o),
(410,-22,o),
(320,-22,cs)
);
}
);
width = 640;
},
{
layerId = "1AFB8506-DA78-41BC-86D2-7292AF872014";
shapes = (
{
closed = 1;
nodes = (
(203,-13,o),
(153,35,o),
(153,99,cs),
(153,164,o),
(202,212,o),
(267,212,cs),
(332,212,o),
(380,164,o),
(380,99,cs),
(380,35,o),
(331,-13,o),
(267,-13,cs)
);
}
);
width = 533;
},
{
layerId = "D76E36A3-365E-47C5-869B-D9C6C556C4D0";
shapes = (
{
closed = 1;
nodes = (
(179,-6,o),
(146,26,o),
(146,67,cs),
(146,109,o),
(178,141,o),
(220,141,cs),
(262,141,o),
(294,109,o),
(294,67,cs),
(294,26,o),
(261,-6,o),
(220,-6,cs)
);
}
);
width = 440;
}
);
leftKerningGroup = comma;
unicode = 46;
},
{
glyphname = zero;
layers = (
{
layerId = "9CE1DBE4-93A7-4D76-A027-A21376769114";
shapes = (
{
closed = 1;
nodes = (
(366.,-30.256,o),
(139.568,232.288,o),
(139.568,719.312,cs),
(139.568,1207.312,o),
(366.,1468.88,o),
(728.096,1468.88,cs),
(1090.192,1468.88,o),
(1316.624,1207.312,o),
(1316.624,719.312,cs),
(1316.624,232.288,o),
(1090.192,-30.256,o),
(728.096,-30.256,cs)
);
},
{
closed = 1;
nodes = (
(930.128,225.456,o),
(1028.704,420.656,o),
(1028.704,719.312,cs),
(1028.704,1018.944,o),
(930.128,1213.168,o),
(728.096,1213.168,cs),
(527.04,1213.168,o),
(427.488,1018.944,o),
(427.488,719.312,cs),
(427.488,420.656,o),
(527.04,225.456,o),
(728.096,225.456,cs)
);
}
);
width = 1456;
},
{
layerId = "1AFB8506-DA78-41BC-86D2-7292AF872014";
shapes = (
{
closed = 1;
nodes = (
(345.504,-30.256,o),
(139.568,246.928,o),
(139.568,719.312,cs),
(139.568,1192.672,o),
(345.504,1468.88,o),
(705.648,1468.88,cs),
(1067.744,1468.88,o),
(1271.728,1192.672,o),
(1271.728,719.312,cs),
(1271.728,246.928,o),
(1067.744,-30.256,o),
(705.648,-30.256,cs)
);
},
{
closed = 1;
nodes = (
(947.696,133.712,o),
(1089.216,343.552,o),
(1089.216,719.312,cs),
(1089.216,1096.048,o),
(947.696,1304.912,o),
(705.648,1304.912,cs),
(463.6,1304.912,o),
(322.08,1097.024,o),
(322.08,719.312,cs),
(322.08,344.528,o),
(462.624,133.712,o),
(705.648,133.712,cs)
);
}
);
width = 1411;
},
{
layerId = "D76E36A3-365E-47C5-869B-D9C6C556C4D0";
shapes = (
{
closed = 1;
nodes = (
(325.984,-30.256,o),
(139.568,259.616,o),
(139.568,719.312,cs),
(139.568,1179.984,o),
(325.984,1468.88,o),
(685.152,1468.88,cs),
(1046.272,1468.88,o),
(1232.688,1179.984,o),
(1232.688,719.312,cs),
(1232.688,259.616,o),
(1046.272,-30.256,o),
(685.152,-30.256,cs)
);
},
{
closed = 1;
nodes = (
(963.312,53.68,o),
(1141.92,276.208,o),
(1141.92,719.312,cs),
(1141.92,1163.392,o),
(963.312,1384.944,o),
(685.152,1384.944,cs),
(408.944,1384.944,o),
(230.336,1167.296,o),
(230.336,719.312,cs),
(230.336,278.16,o),
(406.016,53.68,o),
(685.152,53.68,cs)
);
}
);
width = 1372;
}
);
unicode = 48;
},
{
glyphname = one;
layers = (
{
layerId = "9CE1DBE4-93A7-4D76-A027-A21376769114";
shapes = (
{
closed = 1;
nodes = (
(523,0,l),
(523,1163,l),
(238,992,l),
(120,1198,l),
(523,1440,l),
(796,1440,l),
(796,0,l)
);
}
);
width = 1036;
},
{
layerId = "1AFB8506-DA78-41BC-86D2-7292AF872014";
shapes = (
{
closed = 1;
nodes = (
(475,0,l),
(475,1262,l),
(196,1094,l),
(120,1226,l),
(475,1440,l),
(647,1440,l),
(647,0,l)
);
}
);
width = 887;
},
{
layerId = "D76E36A3-365E-47C5-869B-D9C6C556C4D0";
shapes = (
{
closed = 1;
nodes = (
(433,0,l),
(433,1349,l),
(159,1183,l),
(120,1250,l),
(433,1440,l),
(517,1440,l),
(517,0,l)
);
}
);
width = 757;
}
);
unicode = 49;
},
{
glyphname = two;
layers = (
{
layerId = "9CE1DBE4-93A7-4D76-A027-A21376769114";
shapes = (
{
closed = 1;
nodes = (
(120.048,255.712,l),
(726.144,778.848,ls),
(805.2,846.192,o),
(873.52,909.632,o),
(873.52,1021.872,cs),
(873.52,1160.464,o),
(777.872,1213.168,o),
(650.992,1213.168,cs),
(508.496,1213.168,o),
(421.632,1131.184,o),
(393.328,995.52,c),
(99.552,1045.296,l),
(166.896,1317.6,o),
(368.928,1466.928,o),
(648.064,1466.928,cs),
(941.84,1466.928,o),
(1158.512,1332.24,o),
(1158.512,1016.992,cs),
(1158.512,859.856,o),
(1066.768,708.576,o),
(949.648,608.048,cs),
(541.68,255.712,l),
(1159.488,255.712,l),
(1159.488,0,l),
(120.048,0,l)
);
}
);
width = 1259;
},
{
layerId = "1AFB8506-DA78-41BC-86D2-7292AF872014";
shapes = (
{
closed = 1;
nodes = (
(126.88,163.968,l),
(736.88,734.928,ls),
(829.6,821.792,o),
(919.392,924.272,o),
(919.392,1059.936,cs),
(919.392,1229.76,o),
(775.92,1304.912,o),
(622.688,1304.912,cs),
(442.128,1304.912,o),
(308.416,1195.6,o),
(280.112,1016.016,c),
(99.552,1047.248,l),
(150.304,1313.696,o),
(353.312,1467.904,o),
(621.712,1467.904,cs),
(880.352,1467.904,o),
(1098.,1336.144,o),
(1098.,1057.008,cs),
(1098.,895.968,o),
(1003.328,746.64,o),
(889.136,640.256,cs),
(386.496,163.968,l),
(1098.976,163.968,l),
(1098.976,0,l),
(126.88,0,l)
);
}
);
width = 1199;
},
{
layerId = "D76E36A3-365E-47C5-869B-D9C6C556C4D0";
shapes = (
{
closed = 1;
nodes = (
(132.736,83.936,l),
(745.664,696.864,ls),
(850.096,801.296,o),
(959.408,937.936,o),
(959.408,1093.12,cs),
(959.408,1291.248,o),
(774.944,1384.944,o),
(598.288,1384.944,cs),
(384.544,1384.944,o),
(208.864,1251.232,o),
(180.56,1033.584,c),
(99.552,1049.2,l),
(135.664,1309.792,o),
(339.648,1468.88,o),
(598.288,1468.88,cs),
(825.696,1468.88,o),
(1045.296,1340.048,o),
(1045.296,1091.168,cs),
(1045.296,928.176,o),
(947.696,779.824,o),
(835.456,667.584,cs),
(250.832,83.936,l),
(1045.296,83.936,l),
(1045.296,0,l),
(132.736,0,l)
);
}
);
width = 1146;
}
);
unicode = 50;
},
{
glyphname = three;
layers = (
{
layerId = "9CE1DBE4-93A7-4D76-A027-A21376769114";
shapes = (
{
closed = 1;
nodes = (
(1202.432,141.52,o),
(974.048,-30.256,o),
(659.776,-30.256,cs),
(390.4,-30.256,o),
(140.544,100.528,o),
(80.032,440.176,c),
(364.048,482.144,l),
(390.4,325.984,o),
(477.264,223.504,o),
(665.632,223.504,cs),
(816.912,223.504,o),
(916.464,325.008,o),
(916.464,441.152,cs),
(916.464,579.744,o),
(818.864,651.968,o),
(659.776,651.968,cs),
(483.12,651.968,l),
(483.12,867.664,l),
(809.104,1184.864,l),
(160.064,1184.864,l),
(160.064,1439.6,l),
(1141.92,1439.6,l),
(1141.92,1184.864,l),
(806.176,858.88,l),
(810.08,858.88,ls),
(1036.512,858.88,o),
(1202.432,676.368,o),
(1202.432,451.888,cs)
);
}
);
width = 1322;
},
{
layerId = "1AFB8506-DA78-41BC-86D2-7292AF872014";
shapes = (
{
closed = 1;
nodes = (
(1139.968,151.28,o),
(928.176,-30.256,o),
(627.568,-30.256,cs),
(348.432,-30.256,o),
(142.496,103.456,o),
(80.032,396.256,c),
(255.712,424.56,l),
(304.512,232.288,o),
(411.872,132.736,o),
(630.496,132.736,cs),
(829.6,132.736,o),
(960.384,261.568,o),
(960.384,428.464,cs),
(960.384,610.,o),
(844.24,704.672,o),
(627.568,704.672,cs),
(483.12,704.672,l),
(483.12,850.096,l),
(870.592,1275.632,l),
(162.016,1275.632,l),
(162.016,1439.6,l),
(1084.336,1439.6,l),
(1084.336,1275.632,l),
(691.984,846.192,l),
(696.864,846.192,ls),
(948.672,846.192,o),
(1139.968,701.744,o),
(1139.968,434.32,cs)
);
}
);
width = 1259;
},
{
layerId = "D76E36A3-365E-47C5-869B-D9C6C556C4D0";
shapes = (
{
closed = 1;
nodes = (
(1084.336,159.088,o),
(887.184,-30.256,o),
(599.264,-30.256,cs),
(311.344,-30.256,o),
(143.472,106.384,o),
(80.032,358.192,c),
(160.064,373.808,l),
(228.384,150.304,o),
(355.264,53.68,o),
(599.264,53.68,cs),
(840.336,53.68,o),
(999.424,205.936,o),
(999.424,417.728,cs),
(999.424,637.328,o),
(866.688,750.544,o),
(599.264,750.544,cs),
(483.12,750.544,l),
(483.12,834.48,l),
(924.272,1355.664,l),
(162.992,1355.664,l),
(162.992,1439.6,l),
(1034.56,1439.6,l),
(1034.56,1355.664,l),
(592.432,834.48,l),
(597.312,834.48,ls),
(872.544,834.48,o),
(1084.336,723.216,o),
(1084.336,418.704,cs)
);
}
);
width = 1204;
}
);
unicode = 51;
},
{
glyphname = four;
layers = (
{
layerId = "9CE1DBE4-93A7-4D76-A027-A21376769114";
shapes = (
{
closed = 1;
nodes = (
(788.608,0,l),
(788.608,244.,l),
(99.552,244.,l),
(99.552,497.76,l),
(558.272,1439.6,l),
(858.88,1439.6,l),
(400.16,497.76,l),
(788.608,497.76,l),
(788.608,929.152,l),
(1062.864,929.152,l),
(1062.864,497.76,l),
(1202.432,497.76,l),
(1202.432,244.,l),
(1062.864,244.,l),
(1062.864,0,l)
);
}
);
width = 1302;
},
{
layerId = "1AFB8506-DA78-41BC-86D2-7292AF872014";
shapes = (
{
closed = 1;
nodes = (
(841.312,0,l),
(841.312,277.184,l),
(99.552,277.184,l),
(99.552,440.176,l),
(585.6,1439.6,l),
(774.944,1439.6,l),
(289.872,440.176,l),
(841.312,440.176,l),
(841.312,929.152,l),
(1014.064,929.152,l),
(1014.064,440.176,l),
(1154.608,440.176,l),
(1154.608,277.184,l),
(1014.064,277.184,l),
(1014.064,0,l)
);
}
);
width = 1255;
},
{
layerId = "D76E36A3-365E-47C5-869B-D9C6C556C4D0";
shapes = (
{
closed = 1;
nodes = (
(887.184,0,l),
(887.184,305.488,l),
(99.552,305.488,l),
(99.552,389.424,l),
(609.024,1439.6,l),
(701.744,1439.6,l),
(193.248,389.424,l),
(887.184,389.424,l),
(887.184,929.152,l),
(971.12,929.152,l),
(971.12,389.424,l),
(1113.616,389.424,l),
(1113.616,305.488,l),
(971.12,305.488,l),
(971.12,0,l)
);
}
);
width = 1213;
}
);
unicode = 52;
},
{
glyphname = five;
layers = (
{
layerId = "9CE1DBE4-93A7-4D76-A027-A21376769114";
shapes = (
{
closed = 1;
nodes = (
(1221.952,142.496,o),
(994.544,-30.256,o),
(679.296,-30.256,cs),
(411.872,-30.256,o),
(162.016,100.528,o),
(99.552,440.176,c),
(383.568,482.144,l),
(409.92,325.984,o),
(498.736,223.504,o),
(685.152,223.504,cs),
(837.408,223.504,o),
(935.984,325.984,o),
(935.984,441.152,cs),
(935.984,578.768,o),
(838.384,651.968,o),
(679.296,651.968,cs),
(196.176,651.968,l),
(245.952,1439.6,l),
(1122.4,1439.6,l),
(1122.4,1184.864,l),
(502.64,1184.864,l),
(485.072,907.68,l),
(685.152,907.68,ls),
(1034.56,907.68,o),
(1221.952,729.072,o),
(1221.952,451.888,cs)
);
}
);
width = 1322;
},
{
layerId = "1AFB8506-DA78-41BC-86D2-7292AF872014";
shapes = (
{
closed = 1;
nodes = (
(1159.488,152.256,o),
(948.672,-30.256,o),
(647.088,-30.256,cs),
(367.952,-30.256,o),
(164.944,103.456,o),
(99.552,396.256,c),
(275.232,424.56,l),
(325.008,232.288,o),
(432.368,132.736,o),
(650.016,132.736,cs),
(851.072,132.736,o),
(979.904,262.544,o),
(979.904,428.464,cs),
(979.904,610.976,o),
(864.736,704.672,o),
(647.088,704.672,cs),
(203.008,704.672,l),
(248.88,1439.6,l),
(1064.816,1439.6,l),
(1064.816,1275.632,l),
(410.896,1275.632,l),
(385.52,868.64,l),
(650.016,868.64,ls),
(977.952,868.64,o),
(1159.488,709.552,o),
(1159.488,434.32,cs)
);
}
);
width = 1259;
},
{
layerId = "D76E36A3-365E-47C5-869B-D9C6C556C4D0";
shapes = (
{
closed = 1;
nodes = (
(1104.832,160.064,o),
(907.68,-30.256,o),
(619.76,-30.256,cs),
(330.864,-30.256,o),
(164.944,106.384,o),
(99.552,358.192,c),
(179.584,373.808,l),
(249.856,150.304,o),
(373.808,53.68,o),
(619.76,53.68,cs),
(860.832,53.68,o),
(1018.944,206.912,o),
(1018.944,417.728,cs),
(1018.944,637.328,o),
(886.208,750.544,o),
(619.76,750.544,cs),
(208.864,750.544,l),
(251.808,1439.6,l),
(1014.064,1439.6,l),
(1014.064,1355.664,l),
(330.864,1355.664,l),
(297.68,834.48,l),
(619.76,834.48,ls),
(927.2,834.48,o),
(1104.832,691.984,o),
(1104.832,418.704,cs)
);
}
);
width = 1204;
}
);
unicode = 53;
},
{
glyphname = six;
layers = (
{
layerId = "9CE1DBE4-93A7-4D76-A027-A21376769114";
shapes = (
{
closed = 1;
nodes = (
(238,-30,o),
(88,277,o),
(88,657,cs),
(88,1094,o),
(287,1469,o),
(772,1469,cs),
(885,1469,o),
(997,1450,o),
(1105,1418,c),
(1059,1161,l),
(988,1192,o),
(899,1215,o),
(823,1215,cs),
(568,1215,o),
(368,1067,o),
(363,800,c),
(446,910,o),
(591,941,o),
(722,941,cs),
(1027,941,o),
(1225,772,o),
(1225,461,cs),
(1225,128,o),
(969,-30,o),
(661,-30,cs)
);
},
{
closed = 1;
nodes = (
(800,228,o),
(930,288,o),
(930,451,cs),
(930,608,o),
(800,671,o),
(661,671,cs),
(520,671,o),
(389,610,o),
(389,451,cs),
(389,295,o),
(515,228,o),
(657,228,cs)
);
}
);
width = 1314;
},
{
layerId = "1AFB8506-DA78-41BC-86D2-7292AF872014";
shapes = (
{
closed = 1;
nodes = (
(219,-30,o),
(93,293,o),
(93,658,cs),
(93,1071,o),
(309,1469,o),
(787,1469,cs),
(896,1469,o),
(1004,1452,o),
(1108,1417,c),
(1078,1252,l),
(999,1285,o),
(912,1306,o),
(825,1306,cs),
(475,1306,o),
(290,1073,o),
(261,749,c),
(341,893,o),
(520,945,o),
(677,945,cs),
(983,945,o),
(1195,776,o),
(1195,460,cs),
(1195,135,o),
(957,-30,o),
(648,-30,cs)
);
},
{
closed = 1;
nodes = (
(850,136,o),
(1009,236,o),
(1009,456,cs),
(1009,670,o),
(849,773,o),
(648,773,cs),
(446,773,o),
(288,672,o),
(288,456,cs),
(288,239,o),
(443,136,o),
(646,136,cs)
);
}
);
width = 1281;
},
{
layerId = "D76E36A3-365E-47C5-869B-D9C6C556C4D0";
shapes = (
{
closed = 1;
nodes = (
(212,-30,o),
(85,253,o),
(85,621,cs),
(85,1044,o),
(316,1469,o),
(800,1469,cs),
(905,1469,o),
(1011,1453,o),
(1111,1416,c),
(1095,1331,l),
(1008,1367,o),
(923,1386,o),
(827,1386,cs),
(393,1386,o),
(223,1076,o),
(172,704,c),
(248,879,o),
(459,948,o),
(637,948,cs),
(945,948,o),
(1169,779,o),
(1169,460,cs),
(1169,138,o),
(945,-30,o),
(637,-30,cs)
);
},
{
closed = 1;
nodes = (
(895,56,o),
(1078,189,o),
(1078,460,cs),
(1078,725,o),
(891,862,o),
(637,862,cs),
(383,862,o),
(199,727,o),
(199,460,cs),
(199,189,o),
(381,56,o),
(637,56,cs)
);
}
);
width = 1252;
}
);
unicode = 54;
},
{
glyphname = seven;
layers = (
{
layerId = "9CE1DBE4-93A7-4D76-A027-A21376769114";
shapes = (
{
closed = 1;
nodes = (
(195.2,0,l),
(748.592,1184.864,l),
(80.032,1184.864,l),
(80.032,1439.6,l),
(1047.248,1439.6,l),
(1047.248,1184.864,l),
(495.808,0,l)
);
}
);
width = 1148;
},
{
layerId = "1AFB8506-DA78-41BC-86D2-7292AF872014";
shapes = (
{
closed = 1;
nodes = (
(199.104,0,l),
(792.512,1274.656,l),
(80.032,1274.656,l),
(80.032,1439.6,l),
(979.904,1439.6,l),
(979.904,1274.656,l),
(387.472,0,l)
);
}
);
width = 1081;
},
{
layerId = "D76E36A3-365E-47C5-869B-D9C6C556C4D0";
shapes = (
{
closed = 1;
nodes = (
(202.032,0,l),
(831.552,1352.736,l),
(80.032,1352.736,l),
(80.032,1439.6,l),
(921.344,1439.6,l),
(921.344,1352.736,l),
(291.824,0,l)
);
}
);
width = 1022;
}
);
unicode = 55;
},
{
glyphname = eight;
layers = (
{
layerId = "9CE1DBE4-93A7-4D76-A027-A21376769114";
shapes = (
{
closed = 1;
nodes = (
(950.624,1466.928,o),
(1161.44,1320.528,o),
(1161.44,1027.728,cs),
(1161.44,912.56,o),
(1108.736,785.68,o),
(997.472,738.832,c),
(1120.448,686.128,o),
(1205.36,563.152,o),
(1205.36,427.488,cs),
(1205.36,119.072,o),
(977.952,-30.256,o),
(662.704,-30.256,cs),
(347.456,-30.256,o),
(120.048,119.072,o),
(120.048,427.488,cs),
(120.048,562.176,o),
(203.984,688.08,o),
(327.936,738.832,c),
(216.672,785.68,o),
(163.968,912.56,o),
(163.968,1027.728,cs),
(163.968,1320.528,o),
(374.784,1466.928,o),
(662.704,1466.928,cs)
);
},
{
closed = 1;
nodes = (
(830.576,857.904,o),
(882.304,949.648,o),
(882.304,1030.656,cs),
(882.304,1149.728,o),
(789.584,1213.168,o),
(662.704,1213.168,cs),
(534.848,1213.168,o),
(445.056,1149.728,o),
(445.056,1030.656,cs),
(445.056,949.648,o),
(493.856,857.904,o),
(662.704,857.904,cs)
);
},
{
closed = 1;
nodes = (
(492.88,601.216,o),
(406.016,537.776,o),
(406.016,416.752,cs),
(406.016,296.704,o),
(492.88,223.504,o),
(662.704,223.504,cs),
(832.528,223.504,o),
(919.392,296.704,o),
(919.392,416.752,cs),
(919.392,537.776,o),
(832.528,601.216,o),
(662.704,601.216,cs)
);
}
);
width = 1325;
},
{
layerId = "1AFB8506-DA78-41BC-86D2-7292AF872014";
shapes = (
{
closed = 1;
nodes = (
(919.392,1467.904,o),
(1116.544,1316.624,o),
(1116.544,1056.032,cs),
(1116.544,928.176,o),
(1046.272,784.704,o),
(918.416,741.76,c),
(1062.864,699.792,o),
(1159.488,561.2,o),
(1159.488,410.896,cs),
(1159.488,132.736,o),
(943.792,-30.256,o),
(640.256,-30.256,cs),
(334.768,-30.256,o),
(120.048,132.736,o),
(120.048,410.896,cs),
(120.048,563.152,o),
(215.696,697.84,o),
(360.144,741.76,c),
(233.264,783.728,o),
(162.992,929.152,o),
(162.992,1056.032,cs),
(162.992,1316.624,o),
(358.192,1467.904,o),
(640.256,1467.904,cs)
);
},
{
closed = 1;
nodes = (
(837.408,818.864,o),
(940.864,925.248,o),
(940.864,1058.96,cs),
(940.864,1212.192,o),
(818.864,1304.912,o),
(640.256,1304.912,cs),
(458.72,1304.912,o),
(339.648,1212.192,o),
(339.648,1058.96,cs),
(339.648,925.248,o),
(442.128,818.864,o),
(640.256,818.864,cs)
);
},
{
closed = 1;
nodes = (
(422.608,653.92,o),
(298.656,563.152,o),
(298.656,406.016,cs),
(298.656,240.096,o),
(428.464,132.736,o),
(640.256,132.736,cs),
(851.072,132.736,o),
(979.904,240.096,o),
(979.904,406.016,cs),
(979.904,563.152,o),
(856.928,653.92,o),
(640.256,653.92,cs)
);
}
);
width = 1280;
},
{
layerId = "D76E36A3-365E-47C5-869B-D9C6C556C4D0";
shapes = (
{
closed = 1;
nodes = (
(894.016,1468.88,o),
(1076.528,1313.696,o),
(1076.528,1080.432,cs),
(1076.528,936.96,o),
(989.664,790.56,o),
(850.096,743.712,c),
(1011.136,709.552,o),
(1119.472,561.2,o),
(1119.472,397.232,cs),
(1119.472,144.448,o),
(915.488,-30.256,o),
(619.76,-30.256,cs),
(324.032,-30.256,o),
(120.048,144.448,o),
(120.048,397.232,cs),
(120.048,560.224,o),
(228.384,709.552,o),
(388.448,743.712,c),
(249.856,789.584,o),
(162.992,937.936,o),
(162.992,1080.432,cs),
(162.992,1313.696,o),
(342.576,1468.88,o),
(619.76,1468.88,cs)
);
},
{
closed = 1;
nodes = (
(843.264,784.704,o),
(991.616,903.776,o),
(991.616,1083.36,cs),
(991.616,1267.824,o),
(845.216,1384.944,o),
(619.76,1384.944,cs),
(394.304,1384.944,o),
(247.904,1267.824,o),
(247.904,1083.36,cs),
(247.904,903.776,o),
(396.256,784.704,o),
(619.76,784.704,cs)
);
},
{
closed = 1;
nodes = (
(361.12,700.768,o),
(204.96,584.624,o),
(204.96,396.256,cs),
(204.96,191.296,o),
(371.856,53.68,o),
(619.76,53.68,cs),
(867.664,53.68,o),
(1033.584,191.296,o),
(1033.584,396.256,cs),
(1033.584,584.624,o),
(876.448,700.768,o),
(619.76,700.768,cs)
);
}
);
width = 1240;
}
);
unicode = 56;
},
{
glyphname = nine;
layers = (
{
layerId = "9CE1DBE4-93A7-4D76-A027-A21376769114";
shapes = (
{
closed = 1;
nodes = (
(1076,1469,o),
(1225,1162,o),
(1225,783,cs),
(1225,346,o),
(1026,-30,o),
(542,-30,cs),
(428,-30,o),
(317,-10,o),
(209,21,c),
(254,278,l),
(325,247,o),
(414,224,o),
(491,224,cs),
(745,224,o),
(945,371,o),
(951,638,c),
(866,530,o),
(723,499,o),
(590,499,cs),
(288,499,o),
(88,666,o),
(88,978,cs),
(88,1311,o),
(345,1469,o),
(653,1469,cs)
);
},
{
closed = 1;
nodes = (
(512,1210,o),
(383,1151,o),
(383,989,cs),
(383,832,o),
(512,767,o),
(653,767,cs),
(793,767,o),
(923,829,o),
(923,989,cs),
(923,1143,o),
(797,1210,o),
(657,1210,cs)
);
}
);
width = 1314;
},
{
layerId = "1AFB8506-DA78-41BC-86D2-7292AF872014";
shapes = (
{
closed = 1;
nodes = (
(1063,1469,o),
(1188,1142,o),
(1188,777,cs),
(1188,366,o),
(969,-30,o),
(494,-30,cs),
(384,-30,o),
(277,-12,o),
(173,22,c),
(202,187,l),
(282,154,o),
(369,133,o),
(456,133,cs),
(804,133,o),
(992,366,o),
(1020,690,c),
(940,545,o),
(760,495,o),
(603,495,cs),
(298,495,o),
(85,662,o),
(85,979,cs),
(85,1306,o),
(325,1469,o),
(633,1469,cs)
);
},
{
closed = 1;
nodes = (
(430,1302,o),
(272,1204,o),
(272,984,cs),
(272,768,o),
(431,666,o),
(633,666,cs),
(835,666,o),
(992,767,o),
(992,984,cs),
(992,1200,o),
(838,1302,o),
(635,1302,cs)
);
}
);
width = 1281;
},
{
layerId = "D76E36A3-365E-47C5-869B-D9C6C556C4D0";
shapes = (
{
closed = 1;
nodes = (
(1042,1469,o),
(1168,1184,o),
(1168,815,cs),
(1168,392,o),
(935,-30,o),
(452,-30,cs),
(346,-30,o),
(242,-13,o),
(142,23,c),
(157,108,l),
(245,73,o),
(330,53,o),
(426,53,cs),
(855,53,o),
(1034,361,o),
(1080,736,c),
(1005,558,o),
(793,492,o),
(615,492,cs),
(307,492,o),
(83,659,o),
(83,980,cs),
(83,1301,o),
(307,1469,o),
(615,1469,cs)
);
},
{
closed = 1;
nodes = (
(358,1383,o),
(175,1250,o),
(175,980,cs),
(175,712,o),
(361,578,o),
(615,578,cs),
(871,578,o),
(1053,712,o),
(1053,980,cs),
(1053,1250,o),
(873,1383,o),
(615,1383,cs)
);
}
);
width = 1252;
}
);
unicode = 57;
},
{
glyphname = colon;
layers = (
{
layerId = "9CE1DBE4-93A7-4D76-A027-A21376769114";
shapes = (
{
alignment = -1;
pos = (36,0);
ref = period;
},
{
alignment = -1;
pos = (38,688);
ref = period;
}
);
width = 714;
},
{
layerId = "1AFB8506-DA78-41BC-86D2-7292AF872014";
shapes = (
{
closed = 1;
nodes = (
(247,-13,o),
(197,35,o),
(197,99,cs),
(197,164,o),
(246,212,o),
(311,212,cs),
(376,212,o),
(424,164,o),
(424,99,cs),
(424,35,o),
(375,-13,o),
(311,-13,cs)
);
},
{
closed = 1;
nodes = (
(248,692,o),
(198,740,o),
(198,804,cs),
(198,869,o),
(247,917,o),
(312,917,cs),
(377,917,o),
(425,869,o),
(425,804,cs),
(425,740,o),
(376,692,o),
(312,692,cs)
);
}
);
width = 621;
},
{
layerId = "D76E36A3-365E-47C5-869B-D9C6C556C4D0";
shapes = (
{
alignment = -1;
pos = (50,0);
ref = period;
},
{
alignment = -1;
pos = (50,720);
ref = period;
}
);
width = 540;
}
);
leftKerningGroup = colon;
unicode = 58;
},
{
glyphname = less;
layers = (
{
layerId = "9CE1DBE4-93A7-4D76-A027-A21376769114";
shapes = (
{
closed = 1;
nodes = (
(764,146,l),
(280,630,l),
(764,1114,l),
(932,946,l),
(604,630,l),
(932,314,l)
);
}
);
width = 1290;
},
{
layerId = "1AFB8506-DA78-41BC-86D2-7292AF872014";
shapes = (
{
closed = 1;
nodes = (
(752,158,l),
(280,630,l),
(752,1102,l),
(861,995,l),
(490,630,l),
(861,265,l)
);
}
);
width = 1241;
},
{
layerId = "D76E36A3-365E-47C5-869B-D9C6C556C4D0";
shapes = (
{
closed = 1;
nodes = (
(742,168,l),
(280,630,l),
(742,1092,l),
(798,1038,l),
(390,630,l),
(798,222,l)
);
}
);
width = 1198;
}
);
leftKerningGroup = B2;
unicode = 60;
},
{
glyphname = equal;
layers = (
{
layerId = "9CE1DBE4-93A7-4D76-A027-A21376769114";
shapes = (
{
closed = 1;
nodes = (
(240,810,l),
(240,1020,l),
(1260,1020,l),
(1260,810,l)
);
},
{
closed = 1;
nodes = (
(240,420,l),
(240,630,l),
(1260,630,l),
(1260,420,l)
);
}
);
width = 1500;
},
{
layerId = "1AFB8506-DA78-41BC-86D2-7292AF872014";
shapes = (
{
closed = 1;
nodes = (
(240,824,l),
(240,967,l),
(1260,967,l),
(1260,824,l)
);
},
{
closed = 1;
nodes = (
(240,473,l),
(240,616,l),
(1260,616,l),
(1260,473,l)
);
}
);
width = 1500;
},
{
layerId = "D76E36A3-365E-47C5-869B-D9C6C556C4D0";
shapes = (
{
closed = 1;
nodes = (
(240,836,l),
(240,920,l),
(1260,920,l),
(1260,836,l)
);
},
{
closed = 1;
nodes = (
(240,520,l),
(240,604,l),
(1260,604,l),
(1260,520,l)
);
}
);
width = 1500;
}
);
leftKerningGroup = B2;
unicode = 61;
},
{
glyphname = greater;
layers = (
{
layerId = "9CE1DBE4-93A7-4D76-A027-A21376769114";
shapes = (
{
closed = 1;
nodes = (
(358,314,l),
(686,630,l),
(358,946,l),
(526,1114,l),
(1010,630,l),
(526,146,l)
);
}
);
width = 1290;
},
{
layerId = "1AFB8506-DA78-41BC-86D2-7292AF872014";
shapes = (
{
closed = 1;
nodes = (
(380,265,l),
(751,630,l),
(380,995,l),
(489,1102,l),
(961,630,l),
(489,158,l)
);
}
);
width = 1241;
},
{
layerId = "D76E36A3-365E-47C5-869B-D9C6C556C4D0";
shapes = (
{
closed = 1;
nodes = (
(400,222,l),
(808,630,l),
(400,1038,l),
(456,1092,l),
(918,630,l),
(456,168,l)
);
}
);
width = 1198;
}
);
leftKerningGroup = B2;
unicode = 62;
},
{
glyphname = question;
layers = (
{
layerId = "9CE1DBE4-93A7-4D76-A027-A21376769114";
shapes = (
{
closed = 1;
nodes = (
(851,391,l),
(553,391,l),
(553,559,ls),
(553,801,o),
(959,788,o),
(959,1014,cs),
(959,1136,o),
(859,1210,o),
(693,1210,cs),
(511,1210,o),
(420,1106,o),
(393,946,c),
(102,989,l),
(166,1336,o),
(422,1470,o),
(727,1470,cs),
(1067,1470,o),
(1265,1314,o),
(1265,1043,cs),
(1265,585,o),
(851,683,o),
(851,434,cs)
);
},
{
closed = 1;
nodes = (
(616,-22,o),
(547,46,o),
(547,137,cs),
(547,227,o),
(616,294,o),
(707,294,cs),
(797,294,o),
(865,227,o),
(865,136,cs),
(865,45,o),
(796,-22,o),
(706,-22,cs)
);
}
);
width = 1355;
},
{
layerId = "1AFB8506-DA78-41BC-86D2-7292AF872014";
shapes = (
{
closed = 1;
nodes = (
(673,378,l),
(492,378,l),
(492,485,ls),
(492,856,o),
(890,763,o),
(890,1057,cs),
(890,1219,o),
(770,1309,o),
(590,1309,cs),
(404,1309,o),
(287,1210,o),
(276,1029,c),
(102,1050,l),
(129,1339,o),
(341,1470,o),
(606,1470,cs),
(888,1470,o),
(1074,1323,o),
(1074,1047,cs),
(1074,649,o),
(673,772,o),
(673,433,cs)
);
},
{
closed = 1;
nodes = (
(521,-13,o),
(473,35,o),
(473,98,cs),
(473,161,o),
(521,208,o),
(584,208,cs),
(647,208,o),
(695,161,o),
(695,98,cs),
(695,35,o),
(646,-13,o),
(584,-13,cs)
);
}
);
width = 1170;
},
{
layerId = "D76E36A3-365E-47C5-869B-D9C6C556C4D0";
shapes = (
{
closed = 1;
nodes = (
(539,368,l),
(446,368,l),
(446,430,ls),
(446,890,o),
(838,755,o),
(838,1089,cs),
(838,1289,o),
(704,1384,o),
(512,1384,cs),
(324,1384,o),
(188,1288,o),
(188,1091,c),
(102,1095,l),
(102,1341,o),
(280,1470,o),
(516,1470,cs),
(756,1470,o),
(930,1335,o),
(930,1087,cs),
(930,710,o),
(539,829,o),
(539,432,cs)
);
},
{
closed = 1;
nodes = (
(450,-6,o),
(417,27,o),
(417,69,cs),
(417,112,o),
(449,144,o),
(492,144,cs),
(535,144,o),
(568,112,o),
(568,69,cs),
(568,27,o),
(534,-6,o),
(492,-6,cs)
);
}
);
width = 1032;
}
);
leftKerningGroup = B2;
unicode = 63;
},
{
glyphname = at;
layers = (
{
layerId = "9CE1DBE4-93A7-4D76-A027-A21376769114";
shapes = (
{
closed = 1;
nodes = (
(688,-210,o),
(501,-136,o),
(368,-8,cs),
(235,121,o),
(160,299,o),
(160,506,cs),
(160,777,o),
(245,973,o),
(385,1101,cs),
(524,1229,o),
(707,1290,o),
(900,1290,cs),
(1155,1290,o),
(1349,1209,o),
(1479,1077,cs),
(1609,944,o),
(1674,767,o),
(1674,574,cs),
(1674,441,o),
(1650,338,o),
(1602,264,cs),
(1553,189,o),
(1469,152,o),
(1350,152,cs),
(1298,152,o),
(1247,164,o),
(1197,188,cs),
(1147,212,o),
(1112,248,o),
(1092,296,c),
(1160,296,l),
(1129,241,o),
(1090,204,o),
(1042,183,cs),
(993,162,o),
(944,152,o),
(894,152,cs),
(820,152,o),
(755,168,o),
(698,201,cs),
(584,265,o),
(514,385,o),
(514,540,cs),
(514,619,o),
(531,688,o),
(566,746,cs),
(634,862,o),
(755,928,o),
(898,928,cs),
(941,928,o),
(987,919,o),
(1035,902,cs),
(1082,884,o),
(1119,862,o),
(1146,836,c),
(1104,778,l),
(1104,900,l),
(1266,900,l),
(1262,506,ls),
(1262,454,o),
(1270,417,o),
(1287,396,cs),
(1303,375,o),
(1324,364,o),
(1350,364,cs),
(1384,364,o),
(1408,374,o),
(1421,393,cs),
(1448,431,o),
(1448,497,o),
(1448,574,cs),
(1448,679,o),
(1430,765,o),
(1395,831,cs),
(1359,897,o),
(1313,948,o),
(1258,985,cs),
(1203,1021,o),
(1145,1046,o),
(1085,1060,cs),
(1024,1073,o),
(969,1080,o),
(920,1080,cs),
(747,1080,o),
(610,1028,o),
(518,930,cs),
(425,832,o),
(379,691,o),
(384,514,cs),
(391,346,o),
(444,218,o),
(538,131,cs),
(632,44,o),
(762,0,o),
(922,0,cs),
(958,0,o),
(994,3,o),
(1030,9,cs),
(1065,15,o),
(1099,23,o),
(1132,34,c),
(1200,-166,l),
(1111,-195,o),
(1012,-210,o),
(912,-210,cs)
);
},
{
closed = 1;
nodes = (
(953,364,o),
(991,376,o),
(1022,401,cs),
(1053,426,o),
(1068,472,o),
(1068,540,cs),
(1068,597,o),
(1056,641,o),
(1031,671,cs),
(1006,701,o),
(968,716,o),
(918,716,cs),
(797,716,o),
(740,647,o),
(740,540,cs),
(740,432,o),
(801,364,o),
(910,364,cs)
);
}
);
width = 1834;
},
{
layerId = "1AFB8506-DA78-41BC-86D2-7292AF872014";
shapes = (
{
closed = 1;
nodes = (
(693,-210,o),
(507,-133,o),
(373,-1,cs),
(238,131,o),
(160,314,o),
(160,524,cs),
(160,759,o),
(238,949,o),
(374,1083,cs),
(509,1217,o),
(695,1290,o),
(910,1290,cs),
(1162,1290,o),
(1352,1204,o),
(1477,1068,cs),
(1601,931,o),
(1660,753,o),
(1652,568,cs),
(1646,440,o),
(1617,344,o),
(1566,278,cs),
(1514,211,o),
(1438,179,o),
(1338,179,cs),
(1279,179,o),
(1226,192,o),
(1180,220,cs),
(1134,248,o),
(1102,287,o),
(1086,339,c),
(1138,334,l),
(1112,285,o),
(1077,250,o),
(1030,229,cs),
(983,208,o),
(935,198,o),
(885,198,cs),
(822,198,o),
(767,212,o),
(719,239,cs),
(623,294,o),
(565,395,o),
(565,524,cs),
(565,591,o),
(580,649,o),
(608,698,cs),
(664,796,o),
(766,851,o),
(888,851,cs),
(931,851,o),
(977,842,o),
(1024,825,c),
(1070,806,o),
(1106,778,o),
(1131,741,c),
(1091,694,l),
(1091,823,l),
(1208,823,l),
(1207,485,l),
(1207,434,o),
(1217,395,o),
(1240,366,c),
(1261,337,o),
(1296,322,o),
(1344,322,cs),
(1379,322,o),
(1408,332,o),
(1430,352,cs),
(1475,392,o),
(1495,465,o),
(1499,559,cs),
(1502,661,o),
(1489,749,o),
(1458,823,cs),
(1427,897,o),
(1383,958,o),
(1328,1006,cs),
(1272,1054,o),
(1209,1090,o),
(1139,1113,cs),
(1068,1135,o),
(995,1147,o),
(919,1147,cs),
(725,1147,o),
(572,1080,o),
(468,967,cs),
(364,853,o),
(310,700,o),
(313,527,cs),
(316,351,o),
(379,204,o),
(488,98,cs),
(596,-8,o),
(744,-67,o),
(916,-67,cs),
(968,-67,o),
(1021,-61,o),
(1074,-48,cs),
(1126,-35,o),
(1174,-17,o),
(1216,6,c),
(1267,-123,l),
(1157,-182,o),
(1033,-210,o),
(908,-210,cs)
);
},
{
closed = 1;
nodes = (
(945,343,o),
(987,357,o),
(1019,386,cs),
(1052,415,o),
(1068,461,o),
(1068,525,cs),
(1068,585,o),
(1053,631,o),
(1023,662,cs),
(993,693,o),
(951,709,o),
(899,709,cs),
(778,709,o),
(715,641,o),
(715,525,cs),
(715,408,o),
(784,343,o),
(895,343,cs)
);
}
);
width = 1813;
},
{
layerId = "D76E36A3-365E-47C5-869B-D9C6C556C4D0";
shapes = (
{
closed = 1;
nodes = (
(697,-210,o),
(513,-131,o),
(377,5,cs),
(241,140,o),
(160,327,o),
(160,540,cs),
(160,743,o),
(232,928,o),
(364,1067,cs),
(495,1206,o),
(685,1290,o),
(918,1290,cs),
(1169,1290,o),
(1355,1200,o),
(1475,1060,cs),
(1594,920,o),
(1647,741,o),
(1632,562,cs),
(1622,439,o),
(1589,349,o),
(1534,290,cs),
(1479,231,o),
(1410,202,o),
(1328,202,cs),
(1262,202,o),
(1208,217,o),
(1165,248,cs),
(1122,279,o),
(1093,321,o),
(1080,376,c),
(1118,368,l),
(1098,324,o),
(1065,291,o),
(1020,270,cs),
(975,249,o),
(927,238,o),
(878,238,cs),
(824,238,o),
(777,250,o),
(737,273,cs),
(657,319,o),
(610,403,o),
(610,510,cs),
(610,566,o),
(622,615,o),
(645,656,cs),
(691,738,o),
(775,784,o),
(880,784,cs),
(923,784,o),
(968,775,o),
(1014,757,c),
(1059,738,o),
(1094,705,o),
(1118,658,c),
(1080,620,l),
(1080,756,l),
(1158,756,l),
(1158,466,ls),
(1158,417,o),
(1171,375,o),
(1198,340,cs),
(1225,304,o),
(1271,286,o),
(1338,286,cs),
(1375,286,o),
(1408,296,o),
(1438,317,cs),
(1498,358,o),
(1537,437,o),
(1544,546,cs),
(1550,645,o),
(1540,735,o),
(1513,816,cs),
(1486,897,o),
(1444,966,o),
(1389,1025,cs),
(1333,1083,o),
(1265,1128,o),
(1186,1159,cs),
(1107,1190,o),
(1017,1206,o),
(918,1206,cs),
(705,1206,o),
(539,1126,o),
(425,999,cs),
(311,872,o),
(250,707,o),
(250,538,cs),
(250,355,o),
(323,191,o),
(444,69,cs),
(564,-54,o),
(729,-126,o),
(910,-126,cs),
(977,-126,o),
(1045,-117,o),
(1113,-98,cs),
(1180,-79,o),
(1239,-52,o),
(1290,-18,c),
(1326,-86,l),
(1197,-170,o),
(1051,-210,o),
(904,-210,cs)
);
},
{
closed = 1;
nodes = (
(938,324,o),
(983,340,o),
(1017,373,cs),
(1051,406,o),
(1068,452,o),
(1068,512,cs),
(1068,575,o),
(1051,623,o),
(1016,655,cs),
(981,686,o),
(936,702,o),
(882,702,cs),
(762,702,o),
(694,635,o),
(694,512,cs),
(694,387,o),
(769,324,o),
(882,324,cs)
);
}
);
width = 1794;
}
);
leftKerningGroup = B2;
unicode = 64;
},
{
glyphname = A;
layers = (
{
layerId = "9CE1DBE4-93A7-4D76-A027-A21376769114";
shapes = (
{
closed = 1;
nodes = (
(40,0,l),
(480,1440,l),
(886,1440,l),
(1326,0,l),
(1046,0,l),
(654,1270,l),
(706,1270,l),
(320,0,l)
);
},
{
closed = 1;
nodes = (
(304,300,l),
(304,554,l),
(1064,554,l),
(1064,300,l)
);
}
);
width = 1366;
},
{
layerId = "1AFB8506-DA78-41BC-86D2-7292AF872014";
shapes = (
{
closed = 1;
nodes = (
(40,0,l),
(525,1440,l),
(762,1440,l),
(1247,0,l),
(1068,0,l),
(613,1340,l),
(670,1340,l),
(219,0,l)
);
},
{
closed = 1;
nodes = (
(270,339,l),
(270,501,l),
(1017,501,l),
(1017,339,l)
);
}
);
width = 1287;
},
{
layerId = "D76E36A3-365E-47C5-869B-D9C6C556C4D0";
shapes = (
{
closed = 1;
nodes = (
(40,0,l),
(564,1440,l),
(654,1440,l),
(1178,0,l),
(1088,0,l),
(578,1402,l),
(638,1402,l),
(130,0,l)
);
},
{
closed = 1;
nodes = (
(240,374,l),
(240,454,l),
(976,454,l),
(976,374,l)
);
}
);
width = 1218;
}
);
leftKerningGroup = A2;
rightKerningGroup = A;
unicode = 65;
},
{
glyphname = B;
layers = (
{
layerId = "9CE1DBE4-93A7-4D76-A027-A21376769114";
shapes = (
{
closed = 1;
nodes = (
(140,0,l),
(140,1440,l),
(716,1440,ls),
(819,1440,o),
(902,1420,o),
(965,1379,cs),
(1028,1338,o),
(1075,1286,o),
(1104,1224,cs),
(1133,1162,o),
(1148,1099,o),
(1148,1036,cs),
(1148,955,o),
(1130,888,o),
(1094,835,cs),
(1057,782,o),
(1007,746,o),
(944,728,c),
(944,778,l),
(1034,759,o),
(1102,718,o),
(1147,653,cs),
(1192,588,o),
(1214,516,o),
(1214,436,cs),
(1214,350,o),
(1198,274,o),
(1167,209,cs),
(1103,78,o),
(974,0,o),
(778,0,cs)
);
},
{
closed = 1;
nodes = (
(416,256,l),
(750,256,ls),
(787,256,o),
(819,264,o),
(848,280,cs),
(905,311,o),
(940,369,o),
(940,446,cs),
(940,480,o),
(933,510,o),
(919,537,cs),
(891,590,o),
(834,624,o),
(750,624,cs),
(416,624,l)
);
},
{
closed = 1;
nodes = (
(416,878,l),
(712,878,ls),
(743,878,o),
(770,883,o),
(794,894,cs),
(842,915,o),
(872,959,o),
(872,1030,cs),
(872,1074,o),
(858,1111,o),
(831,1141,cs),
(804,1171,o),
(764,1186,o),
(712,1186,cs),
(416,1186,l)
);
}
);
width = 1274;
},
{
layerId = "1AFB8506-DA78-41BC-86D2-7292AF872014";
shapes = (
{
closed = 1;
nodes = (
(140,0,l),
(140,1440,l),
(700,1440,ls),
(785,1440,o),
(858,1423,o),
(919,1388,cs),
(979,1353,o),
(1026,1306,o),
(1059,1249,cs),
(1091,1192,o),
(1107,1129,o),
(1107,1063,cs),
(1107,984,o),
(1087,916,o),
(1047,857,cs),
(1006,799,o),
(952,758,o),
(884,735,c),
(882,784,l),
(975,759,o),
(1048,714,o),
(1100,648,cs),
(1151,581,o),
(1177,502,o),
(1177,410,cs),
(1177,327,o),
(1159,254,o),
(1125,193,cs),
(1055,70,o),
(924,0,o),
(749,0,cs)
);
},
{
closed = 1;
nodes = (
(314,164,l),
(715,164,ls),
(769,164,o),
(817,174,o),
(861,194,cs),
(947,234,o),
(1000,308,o),
(1000,411,cs),
(1000,460,o),
(988,505,o),
(966,544,cs),
(921,624,o),
(839,674,o),
(736,674,cs),
(314,674,l)
);
},
{
closed = 1;
nodes = (
(314,836,l),
(698,836,ls),
(741,836,o),
(781,846,o),
(816,865,cs),
(886,902,o),
(931,972,o),
(931,1063,cs),
(931,1126,o),
(909,1178,o),
(866,1218,cs),
(823,1258,o),
(767,1278,o),
(698,1278,cs),
(314,1278,l)
);
}
);
width = 1236;
},
{
layerId = "D76E36A3-365E-47C5-869B-D9C6C556C4D0";
shapes = (
{
closed = 1;
nodes = (
(140,0,l),
(140,1440,l),
(686,1440,ls),
(755,1440,o),
(819,1425,o),
(878,1396,cs),
(937,1366,o),
(984,1324,o),
(1019,1271,cs),
(1054,1218,o),
(1072,1156,o),
(1072,1086,cs),
(1072,1010,o),
(1050,940,o),
(1006,877,cs),
(962,813,o),
(904,768,o),
(832,742,c),
(828,790,l),
(923,759,o),
(1000,710,o),
(1058,643,cs),
(1115,575,o),
(1144,490,o),
(1144,388,cs),
(1144,306,o),
(1125,236,o),
(1088,179,cs),
(1013,63,o),
(880,0,o),
(724,0,cs)
);
},
{
closed = 1;
nodes = (
(224,84,l),
(684,84,ls),
(753,84,o),
(816,96,o),
(872,119,cs),
(983,166,o),
(1052,255,o),
(1052,380,cs),
(1052,443,o),
(1037,500,o),
(1008,551,cs),
(948,653,o),
(844,718,o),
(724,718,cs),
(224,718,l)
);
},
{
closed = 1;
nodes = (
(224,800,l),
(686,800,ls),
(740,800,o),
(790,813,o),
(835,839,cs),
(925,891,o),
(982,983,o),
(982,1092,cs),
(982,1172,o),
(954,1236,o),
(897,1285,cs),
(840,1334,o),
(769,1358,o),
(686,1358,cs),
(224,1358,l)
);
}
);
width = 1202;
}
);
leftKerningGroup = B2;
rightKerningGroup = B;
unicode = 66;
},
{
glyphname = C;
layers = (
{
layerId = "9CE1DBE4-93A7-4D76-A027-A21376769114";
shapes = (
{
closed = 1;
nodes = (
(614,-30,o),
(490,1,o),
(386,64,cs),
(281,127,o),
(201,214,o),
(145,327,cs),
(88,440,o),
(60,571,o),
(60,720,cs),
(60,869,o),
(88,1000,o),
(145,1113,cs),
(201,1226,o),
(281,1313,o),
(386,1376,cs),
(490,1439,o),
(614,1470,o),
(758,1470,cs),
(923,1470,o),
(1062,1429,o),
(1175,1347,cs),
(1287,1265,o),
(1366,1154,o),
(1412,1014,c),
(1138,938,l),
(1111,1025,o),
(1066,1093,o),
(1003,1142,cs),
(940,1190,o),
(858,1214,o),
(758,1214,cs),
(667,1214,o),
(591,1194,o),
(530,1153,cs),
(408,1072,o),
(346,920,o),
(346,720,cs),
(346,620,o),
(361,533,o),
(392,459,cs),
(453,311,o),
(575,226,o),
(758,226,cs),
(858,226,o),
(940,250,o),
(1003,299,cs),
(1066,348,o),
(1111,415,o),
(1138,502,c),
(1412,426,l),
(1366,286,o),
(1287,175,o),
(1175,93,cs),
(1062,11,o),
(923,-30,o),
(758,-30,cs)
);
}
);
width = 1492;
},
{
layerId = "1AFB8506-DA78-41BC-86D2-7292AF872014";
shapes = (
{
closed = 1;
nodes = (
(587,-30,o),
(465,2,o),
(366,65,cs),
(266,129,o),
(190,216,o),
(138,329,cs),
(86,442,o),
(60,572,o),
(60,720,cs),
(60,868,o),
(86,998,o),
(138,1111,cs),
(190,1224,o),
(266,1311,o),
(366,1375,cs),
(465,1438,o),
(587,1470,o),
(730,1470,cs),
(897,1470,o),
(1034,1427,o),
(1141,1343,cs),
(1249,1258,o),
(1322,1143,o),
(1363,1000,c),
(1188,954,l),
(1158,1062,o),
(1105,1148,o),
(1030,1212,c),
(953,1274,o),
(853,1306,o),
(730,1306,cs),
(622,1306,o),
(532,1281,o),
(460,1232,cs),
(316,1134,o),
(243,952,o),
(241,720,c),
(241,604,o),
(259,502,o),
(295,414,cs),
(368,238,o),
(513,134,o),
(730,134,cs),
(853,134,o),
(953,166,o),
(1030,229,cs),
(1105,293,o),
(1158,378,o),
(1188,486,c),
(1363,440,l),
(1322,297,o),
(1249,182,o),
(1141,98,cs),
(1034,13,o),
(897,-30,o),
(730,-30,cs)
);
}
);
width = 1443;
},
{
layerId = "D76E36A3-365E-47C5-869B-D9C6C556C4D0";
shapes = (
{
closed = 1;
nodes = (
(563,-30,o),
(443,2,o),
(348,66,cs),
(252,130,o),
(180,218,o),
(132,331,cs),
(84,444,o),
(60,573,o),
(60,720,cs),
(60,867,o),
(84,996,o),
(132,1109,cs),
(180,1222,o),
(252,1310,o),
(348,1374,cs),
(443,1438,o),
(563,1470,o),
(706,1470,cs),
(874,1470,o),
(1009,1426,o),
(1112,1339,cs),
(1215,1251,o),
(1284,1134,o),
(1320,988,c),
(1232,968,l),
(1200,1095,o),
(1140,1197,o),
(1053,1273,cs),
(965,1348,o),
(849,1386,o),
(706,1386,cs),
(583,1386,o),
(480,1358,o),
(399,1301,cs),
(235,1188,o),
(153,980,o),
(150,720,cs),
(149,590,o),
(169,475,o),
(210,375,cs),
(293,175,o),
(459,54,o),
(706,54,cs),
(849,54,o),
(965,92,o),
(1053,168,cs),
(1140,244,o),
(1200,345,o),
(1232,472,c),
(1320,452,l),
(1284,306,o),
(1215,189,o),
(1112,102,cs),
(1009,14,o),
(874,-30,o),
(706,-30,cs)
);
}
);
width = 1400;
}
);
leftKerningGroup = C2;
rightKerningGroup = C;
unicode = 67;
},
{
glyphname = D;
layers = (
{
layerId = "9CE1DBE4-93A7-4D76-A027-A21376769114";
shapes = (
{
closed = 1;
nodes = (
(140,0,l),
(140,1440,l),
(606,1440,ls),
(617,1440,o),
(641,1440,o),
(676,1439,cs),
(711,1438,o),
(745,1436,o),
(778,1432,cs),
(894,1418,o),
(992,1378,o),
(1073,1311,cs),
(1154,1244,o),
(1215,1160,o),
(1257,1057,cs),
(1299,954,o),
(1320,842,o),
(1320,720,cs),
(1320,598,o),
(1299,486,o),
(1257,383,cs),
(1215,280,o),
(1154,196,o),
(1073,129,cs),
(992,62,o),
(894,22,o),
(778,8,cs),
(745,4,o),
(711,2,o),
(676,1,cs),
(641,0,o),
(617,0,o),
(606,0,cs)
);
},
{
closed = 1;
nodes = (
(416,256,l),
(606,256,ls),
(624,256,o),
(648,257,o),
(679,258,cs),
(710,259,o),
(737,261,o),
(762,266,cs),
(825,279,o),
(876,308,o),
(916,354,cs),
(995,446,o),
(1032,583,o),
(1032,720,cs),
(1032,792,o),
(1022,860,o),
(1003,925,cs),
(963,1054,o),
(883,1150,o),
(762,1174,cs),
(737,1179,o),
(710,1182,o),
(679,1183,cs),
(648,1184,o),
(624,1184,o),
(606,1184,cs),
(416,1184,l)
);
}
);
width = 1420;
},
{
layerId = "1AFB8506-DA78-41BC-86D2-7292AF872014";
shapes = (
{
closed = 1;
nodes = (
(140,0,l),
(140,1440,l),
(583,1440,ls),
(597,1440,o),
(623,1440,o),
(659,1439,cs),
(696,1438,o),
(731,1435,o),
(765,1431,cs),
(876,1416,o),
(969,1376,o),
(1044,1309,cs),
(1118,1243,o),
(1174,1159,o),
(1212,1057,cs),
(1250,955,o),
(1269,843,o),
(1269,720,cs),
(1269,597,o),
(1250,485,o),
(1212,383,cs),
(1174,281,o),
(1118,197,o),
(1044,131,cs),
(969,64,o),
(876,24,o),
(765,9,cs),
(732,5,o),
(697,3,o),
(659,2,cs),
(622,1,o),
(596,0,o),
(583,0,cs)
);
},
{
closed = 1;
nodes = (
(317,164,l),
(583,164,ls),
(608,164,o),
(636,165,o),
(668,167,cs),
(700,168,o),
(727,171,o),
(750,175,cs),
(830,190,o),
(895,223,o),
(944,275,cs),
(1042,379,o),
(1086,539,o),
(1086,720,cs),
(1086,812,o),
(1075,896,o),
(1052,974,cs),
(1005,1128,o),
(908,1236,o),
(750,1265,cs),
(727,1269,o),
(699,1272,o),
(667,1274,cs),
(635,1275,o),
(607,1276,o),
(583,1276,cs),
(317,1276,l)
);
}
);
width = 1358;
},
{
layerId = "D76E36A3-365E-47C5-869B-D9C6C556C4D0";
shapes = (
{
closed = 1;
nodes = (
(140,0,l),
(140,1440,l),
(562,1440,ls),
(579,1440,o),
(607,1440,o),
(645,1439,cs),
(683,1438,o),
(719,1435,o),
(754,1430,cs),
(860,1415,o),
(948,1374,o),
(1018,1308,cs),
(1087,1242,o),
(1139,1158,o),
(1173,1057,cs),
(1207,955,o),
(1224,843,o),
(1224,720,cs),
(1224,597,o),
(1207,484,o),
(1173,383,cs),
(1139,281,o),
(1087,197,o),
(1018,132,cs),
(948,66,o),
(860,25,o),
(754,10,cs),
(720,5,o),
(684,3,o),
(645,2,cs),
(606,1,o),
(578,0,o),
(562,0,cs)
);
},
{
closed = 1;
nodes = (
(230,84,l),
(562,84,ls),
(594,84,o),
(626,85,o),
(659,87,cs),
(691,89,o),
(718,92,o),
(740,96,cs),
(835,112,o),
(911,149,o),
(969,206,cs),
(1084,320,o),
(1134,501,o),
(1134,720,cs),
(1134,829,o),
(1121,928,o),
(1095,1017,cs),
(1042,1193,o),
(929,1312,o),
(740,1344,cs),
(718,1348,o),
(690,1351,o),
(657,1353,cs),
(624,1355,o),
(592,1356,o),
(562,1356,cs),
(230,1356,l)
);
}
);
width = 1304;
}
);
leftKerningGroup = B2;
rightKerningGroup = D;
unicode = 68;
},
{
glyphname = E;
layers = (
{
layerId = "9CE1DBE4-93A7-4D76-A027-A21376769114";
shapes = (
{
closed = 1;
nodes = (
(140,0,l),
(140,1440,l),
(1080,1440,l),
(1080,1186,l),
(412,1186,l),
(412,878,l),
(960,878,l),
(960,624,l),
(412,624,l),
(412,254,l),
(1080,254,l),
(1080,0,l)
);
}
);
width = 1180;
},
{
layerId = "1AFB8506-DA78-41BC-86D2-7292AF872014";
shapes = (
{
closed = 1;
nodes = (
(140,0,l),
(140,1440,l),
(1048,1440,l),
(1048,1277,l),
(312,1277,l),
(312,816,l),
(928,816,l),
(928,653,l),
(312,653,l),
(312,163,l),
(1048,163,l),
(1048,0,l)
);
}
);
width = 1148;
},
{
layerId = "D76E36A3-365E-47C5-869B-D9C6C556C4D0";
shapes = (
{
closed = 1;
nodes = (
(140,0,l),
(140,1440,l),
(1020,1440,l),
(1020,1356,l),
(224,1356,l),
(224,762,l),
(900,762,l),
(900,678,l),
(224,678,l),
(224,84,l),
(1020,84,l),
(1020,0,l)
);
}
);
width = 1120;
}
);
leftKerningGroup = B2;
rightKerningGroup = E;
unicode = 69;
},
{
glyphname = F;
layers = (
{
layerId = "9CE1DBE4-93A7-4D76-A027-A21376769114";
shapes = (
{
closed = 1;
nodes = (
(140,0,l),
(140,1440,l),
(1020,1440,l),
(1020,1168,l),
(412,1168,l),
(412,856,l),
(900,856,l),
(900,584,l),
(412,584,l),
(412,0,l)
);
}
);
width = 1060;
},
{
layerId = "1AFB8506-DA78-41BC-86D2-7292AF872014";
shapes = (
{
closed = 1;
nodes = (
(140,0,l),
(140,1440,l),
(977,1440,l),
(977,1268,l),
(312,1268,l),
(312,806,l),
(857,806,l),
(857,634,l),
(312,634,l),
(312,0,l)
);
}
);
width = 1017;
},
{
layerId = "D76E36A3-365E-47C5-869B-D9C6C556C4D0";
shapes = (
{
closed = 1;
nodes = (
(140,0,l),
(140,1440,l),
(940,1440,l),
(940,1356,l),
(224,1356,l),
(224,762,l),
(820,762,l),
(820,678,l),
(224,678,l),
(224,0,l)
);
}
);
width = 980;
}
);
leftKerningGroup = B2;
unicode = 70;
},
{
glyphname = G;
rightMetricsKey = "=80";
layers = (
{
layerId = "9CE1DBE4-93A7-4D76-A027-A21376769114";
shapes = (
{
closed = 1;
nodes = (
(1196,0,l),
(1414,0,l),
(1414,806,l),
(1165,806,l),
(1165,339,l)
);
},
{
closed = 1;
nodes = (
(544,1470,o),
(372,1394,o),
(251,1262,cs),
(130,1130,o),
(60,943,o),
(60,720,cs),
(60,484,o),
(127,296,o),
(244,168,cs),
(361,39,o),
(528,-30,o),
(725,-30,cs),
(821,-30,o),
(929,-11,o),
(1001,25,cs),
(1073,60,o),
(1149,110,o),
(1180,173,c),
(1404,806,l),
(790,806,l),
(790,552,l),
(1158,552,l),
(1151,441,o),
(1087,361,o),
(1022,307,cs),
(957,253,o),
(849,226,o),
(753,226,cs),
(620,226,o),
(518,271,o),
(450,356,cs),
(382,440,o),
(348,564,o),
(348,720,cs),
(348,876,o),
(387,1000,o),
(457,1084,cs),
(527,1168,o),
(627,1214,o),
(754,1214,cs),
(849,1214,o),
(930,1188,o),
(993,1140,cs),
(1056,1092,o),
(1099,1023,o),
(1119,936,c),
(1397,976,l),
(1352,1140,o),
(1274,1265,o),
(1166,1347,cs),
(1058,1429,o),
(917,1470,o),
(745,1470,cs)
);
}
);
width = 1494;
},
{
layerId = "1AFB8506-DA78-41BC-86D2-7292AF872014";
shapes = (
{
closed = 1;
nodes = (
(1211,0,l),
(1353,0,l),
(1353,760,l),
(1197,760,l),
(1197,320,l)
);
},
{
closed = 1;
nodes = (
(523,1469,o),
(357,1396,o),
(241,1266,cs),
(125,1136,o),
(60,948,o),
(60,720,cs),
(60,486,o),
(123,297,o),
(237,169,cs),
(350,40,o),
(513,-30,o),
(712,-30,cs),
(825,-30,o),
(936,-6,o),
(1016,39,cs),
(1097,83,o),
(1171,147,o),
(1207,228,c),
(1346,760,l),
(771,760,l),
(771,597,l),
(1193,597,l),
(1190,453,o),
(1138,338,o),
(1064,258,cs),
(990,179,o),
(868,134,o),
(725,134,cs),
(571,134,o),
(450,188,o),
(367,288,cs),
(285,387,o),
(242,532,o),
(242,714,cs),
(242,902,o),
(287,1050,o),
(370,1151,cs),
(453,1251,o),
(574,1305,o),
(728,1305,cs),
(828,1305,o),
(916,1279,o),
(988,1231,cs),
(1059,1182,o),
(1112,1110,o),
(1142,1017,c),
(1315,1054,l),
(1270,1192,o),
(1195,1297,o),
(1095,1366,cs),
(995,1434,o),
(870,1469,o),
(724,1469,cs)
);
}
);
width = 1433;
},
{
layerId = "D76E36A3-365E-47C5-869B-D9C6C556C4D0";
shapes = (
{
closed = 1;
nodes = (
(1225,0,l),
(1300,0,l),
(1300,720,l),
(1225,720,l),
(1225,303,l)
);
},
{
closed = 1;
nodes = (
(505,1468,o),
(343,1398,o),
(232,1270,cs),
(120,1141,o),
(60,953,o),
(60,720,cs),
(60,487,o),
(120,298,o),
(230,170,cs),
(340,41,o),
(500,-30,o),
(701,-30,cs),
(828,-30,o),
(942,-2,o),
(1030,51,cs),
(1118,103,o),
(1190,180,o),
(1230,277,c),
(1296,720,l),
(755,720,l),
(755,636,l),
(1224,636,l),
(1224,463,o),
(1183,318,o),
(1101,216,cs),
(1019,114,o),
(885,54,o),
(701,54,cs),
(528,54,o),
(390,115,o),
(295,228,cs),
(200,340,o),
(150,504,o),
(150,708,cs),
(150,925,o),
(199,1094,o),
(294,1209,cs),
(389,1324,o),
(527,1384,o),
(706,1384,cs),
(810,1384,o),
(904,1359,o),
(983,1310,cs),
(1062,1261,o),
(1123,1187,o),
(1162,1088,c),
(1244,1122,l),
(1199,1238,o),
(1125,1325,o),
(1033,1382,cs),
(940,1439,o),
(829,1468,o),
(706,1468,cs)
);
}
);
width = 1380;
}
);
leftKerningGroup = G2;
rightKerningGroup = G;
unicode = 71;
},
{
glyphname = H;
layers = (
{
layerId = "9CE1DBE4-93A7-4D76-A027-A21376769114";
shapes = (
{
closed = 1;
nodes = (
(140,0,l),
(140,1440,l),
(412,1440,l),
(412,848,l),
(1056,848,l),
(1056,1440,l),
(1328,1440,l),
(1328,0,l),
(1056,0,l),
(1056,594,l),
(412,594,l),
(412,0,l)
);
}
);
width = 1468;
},
{
layerId = "1AFB8506-DA78-41BC-86D2-7292AF872014";
shapes = (
{
closed = 1;
nodes = (
(140,0,l),
(140,1440,l),
(312,1440,l),
(312,802,l),
(1077,802,l),
(1077,1440,l),
(1249,1440,l),
(1249,0,l),
(1077,0,l),
(1077,639,l),
(312,639,l),
(312,0,l)
);
}
);
width = 1389;
},
{
layerId = "D76E36A3-365E-47C5-869B-D9C6C556C4D0";
shapes = (
{
closed = 1;
nodes = (
(140,0,l),
(140,1440,l),
(224,1440,l),
(224,762,l),
(1096,762,l),
(1096,1440,l),
(1180,1440,l),
(1180,0,l),
(1096,0,l),
(1096,678,l),
(224,678,l),
(224,0,l)
);
}
);
width = 1320;
}
);
leftKerningGroup = B2;
unicode = 72;
},
{
glyphname = I;
layers = (
{
layerId = "9CE1DBE4-93A7-4D76-A027-A21376769114";
shapes = (
{
closed = 1;
nodes = (
(160,0,l),
(160,1440,l),
(432,1440,l),
(432,0,l)
);
}
);
width = 592;
},
{
layerId = "1AFB8506-DA78-41BC-86D2-7292AF872014";
shapes = (
{
closed = 1;
nodes = (
(160,0,l),
(160,1440,l),
(332,1440,l),
(332,0,l)
);
}
);
width = 492;
},
{
layerId = "D76E36A3-365E-47C5-869B-D9C6C556C4D0";
shapes = (
{
closed = 1;
nodes = (
(160,0,l),
(160,1440,l),
(244,1440,l),
(244,0,l)
);
}
);
width = 404;
}
);
leftKerningGroup = I2;
rightKerningGroup = I;
unicode = 73;
},
{
glyphname = J;
layers = (
{
layerId = "9CE1DBE4-93A7-4D76-A027-A21376769114";
shapes = (
{
closed = 1;
nodes = (
(327,-30,o),
(233,-1,o),
(159,58,cs),
(84,117,o),
(31,196,o),
(0,296,c),
(268,360,l),
(274,323,o),
(293,292,o),
(326,265,cs),
(359,238,o),
(393,224,o),
(430,224,cs),
(455,224,o),
(483,231,o),
(512,245,cs),
(541,259,o),
(561,281,o),
(574,312,cs),
(582,331,o),
(587,355,o),
(588,383,cs),
(589,411,o),
(590,443,o),
(590,480,cs),
(590,1440,l),
(866,1440,l),
(866,480,ls),
(866,434,o),
(866,394,o),
(866,360,cs),
(865,292,o),
(855,236,o),
(818,172,cs),
(737,31,o),
(601,-30,o),
(442,-30,cs)
);
}
);
width = 1026;
},
{
layerId = "1AFB8506-DA78-41BC-86D2-7292AF872014";
shapes = (
{
closed = 1;
nodes = (
(297,-29,o),
(213,-2,o),
(143,53,cs),
(73,107,o),
(25,180,o),
(0,271,c),
(171,312,l),
(182,262,o),
(208,221,o),
(250,187,cs),
(291,152,o),
(339,134,o),
(394,134,cs),
(428,134,o),
(465,143,o),
(501,160,cs),
(538,177,o),
(566,205,o),
(586,245,cs),
(599,271,o),
(607,301,o),
(609,334,cs),
(611,367,o),
(612,405,o),
(612,450,cs),
(612,1440,l),
(786,1440,l),
(786,450,ls),
(786,409,o),
(786,372,o),
(785,340,cs),
(784,274,o),
(774,217,o),
(739,156,cs),
(667,30,o),
(542,-29,o),
(397,-29,cs)
);
}
);
width = 947;
},
{
layerId = "D76E36A3-365E-47C5-869B-D9C6C556C4D0";
shapes = (
{
closed = 1;
nodes = (
(271,-28,o),
(195,-3,o),
(129,48,cs),
(63,99,o),
(20,166,o),
(0,250,c),
(86,270,l),
(101,209,o),
(134,159,o),
(183,118,cs),
(232,77,o),
(292,56,o),
(362,56,cs),
(405,56,o),
(449,66,o),
(492,86,cs),
(535,106,o),
(570,139,o),
(596,186,cs),
(614,219,o),
(625,254,o),
(628,291,cs),
(631,328,o),
(632,372,o),
(632,424,cs),
(632,1440,l),
(716,1440,l),
(716,424,ls),
(716,387,o),
(716,353,o),
(715,322,cs),
(714,258,o),
(703,201,o),
(670,142,cs),
(606,30,o),
(490,-28,o),
(358,-28,cs)
);
}
);
width = 878;
}
);
leftKerningGroup = J2;
rightKerningGroup = J;
unicode = 74;
},
{
glyphname = K;
layers = (
{
layerId = "9CE1DBE4-93A7-4D76-A027-A21376769114";
shapes = (
{
closed = 1;
nodes = (
(960,1440,l),
(1292,1440,l),
(271,323,l),
(273,696,l)
);
},
{
closed = 1;
nodes = (
(993,0,l),
(423,696,l),
(676,799,l),
(1330,0,l)
);
},
{
closed = 1;
nodes = (
(140,0,l),
(140,1440,l),
(402,1440,l),
(402,0,l)
);
}
);
width = 1330;
},
{
layerId = "1AFB8506-DA78-41BC-86D2-7292AF872014";
shapes = (
{
closed = 1;
nodes = (
(948,1440,l),
(1164,1440,l),
(222,427,l),
(223,666,l)
);
},
{
closed = 1;
nodes = (
(997,0,l),
(403,742,l),
(561,814,l),
(1216,0,l)
);
},
{
closed = 1;
nodes = (
(140,0,l),
(140,1440,l),
(307,1440,l),
(307,0,l)
);
}
);
width = 1216;
},
{
layerId = "D76E36A3-365E-47C5-869B-D9C6C556C4D0";
shapes = (
{
closed = 1;
nodes = (
(937,1440,l),
(1052,1440,l),
(180,518,l),
(180,639,l)
);
},
{
closed = 1;
nodes = (
(1001,0,l),
(386,782,l),
(460,828,l),
(1116,0,l)
);
},
{
closed = 1;
nodes = (
(140,0,l),
(140,1440,l),
(224,1440,l),
(224,0,l)
);
}
);
width = 1116;
}
);
leftKerningGroup = B2;
rightKerningGroup = K;
unicode = 75;
},
{
glyphname = L;
layers = (
{
layerId = "9CE1DBE4-93A7-4D76-A027-A21376769114";
shapes = (
{
closed = 1;
nodes = (
(160,0,l),
(160,1440,l),
(432,1440,l),
(432,254,l),
(1052,254,l),
(1052,0,l)
);
}
);
width = 1082;
},
{
layerId = "1AFB8506-DA78-41BC-86D2-7292AF872014";
shapes = (
{
closed = 1;
nodes = (
(160,0,l),
(160,1440,l),
(332,1440,l),
(332,163,l),
(1003,163,l),
(1003,0,l)
);
}
);
width = 1033;
},
{
layerId = "D76E36A3-365E-47C5-869B-D9C6C556C4D0";
shapes = (
{
closed = 1;
nodes = (
(160,0,l),
(160,1440,l),
(244,1440,l),
(244,84,l),
(960,84,l),
(960,0,l)
);
}
);
width = 990;
}
);
leftKerningGroup = B2;
rightKerningGroup = L;
unicode = 76;
},
{
glyphname = M;
layers = (
{
layerId = "9CE1DBE4-93A7-4D76-A027-A21376769114";
shapes = (
{
closed = 1;
nodes = (
(140,0,l),
(140,1440,l),
(414,1440,l),
(860,519,l),
(1306,1440,l),
(1580,1440,l),
(1580,0,l),
(1306,0,l),
(1306,900,l),
(973,211,l),
(747,211,l),
(414,900,l),
(414,0,l)
);
}
);
width = 1720;
},
{
layerId = "1AFB8506-DA78-41BC-86D2-7292AF872014";
shapes = (
{
closed = 1;
nodes = (
(140,0,l),
(140,1440,l),
(311,1440,l),
(818,366,l),
(1323,1440,l),
(1496,1440,l),
(1496,1,l),
(1323,1,l),
(1323,1080,l),
(896,168,l),
(740,168,l),
(313,1080,l),
(313,0,l)
);
}
);
width = 1636;
},
{
layerId = "D76E36A3-365E-47C5-869B-D9C6C556C4D0";
shapes = (
{
closed = 1;
nodes = (
(140,0,l),
(140,1440,l),
(220,1440,l),
(782,232,l),
(1338,1440,l),
(1422,1440,l),
(1422,2,l),
(1338,2,l),
(1338,1238,l),
(828,130,l),
(734,130,l),
(224,1238,l),
(224,0,l)
);
}
);
width = 1562;
}
);
leftKerningGroup = B2;
unicode = 77;
},
{
glyphname = N;
layers = (
{
layerId = "9CE1DBE4-93A7-4D76-A027-A21376769114";
shapes = (
{
closed = 1;
nodes = (
(140,0,l),
(140,1440,l),
(416,1440,l),
(1042,480,l),
(1042,1440,l),
(1318,1440,l),
(1318,0,l),
(1042,0,l),
(416,960,l),
(416,0,l)
);
}
);
width = 1458;
},
{
layerId = "1AFB8506-DA78-41BC-86D2-7292AF872014";
shapes = (
{
closed = 1;
nodes = (
(140,0,l),
(140,1440,l),
(314,1440,l),
(1073,304,l),
(1073,1440,l),
(1247,1440,l),
(1247,0,l),
(1073,0,l),
(314,1137,l),
(314,0,l)
);
}
);
width = 1387;
},
{
layerId = "D76E36A3-365E-47C5-869B-D9C6C556C4D0";
shapes = (
{
closed = 1;
nodes = (
(140,0,l),
(140,1440,l),
(224,1440,l),
(1100,150,l),
(1100,1440,l),
(1184,1440,l),
(1184,0,l),
(1100,0,l),
(224,1292,l),
(224,0,l)
);
}
);
width = 1324;
}
);
leftKerningGroup = B2;
unicode = 78;
},
{
glyphname = O;
layers = (
{
layerId = "9CE1DBE4-93A7-4D76-A027-A21376769114";
shapes = (
{
closed = 1;
nodes = (
(614,-30,o),
(490,1,o),
(386,64,cs),
(281,127,o),
(201,214,o),
(145,327,cs),
(88,440,o),
(60,571,o),
(60,720,cs),
(60,869,o),
(88,1000,o),
(145,1113,cs),
(201,1226,o),
(281,1313,o),
(386,1376,cs),
(490,1439,o),
(614,1470,o),
(758,1470,cs),
(902,1470,o),
(1026,1439,o),
(1131,1376,cs),
(1235,1313,o),
(1315,1226,o),
(1372,1113,cs),
(1428,1000,o),
(1456,869,o),
(1456,720,cs),
(1456,571,o),
(1428,440,o),
(1372,327,cs),
(1315,214,o),
(1235,127,o),
(1131,64,cs),
(1026,1,o),
(902,-30,o),
(758,-30,cs)
);
},
{
closed = 1;
nodes = (
(849,225,o),
(925,244,o),
(986,285,cs),
(1107,366,o),
(1168,520,o),
(1168,720,cs),
(1168,820,o),
(1153,907,o),
(1123,980,cs),
(1062,1127,o),
(941,1211,o),
(758,1214,cs),
(667,1215,o),
(591,1196,o),
(530,1155,cs),
(409,1074,o),
(348,920,o),
(348,720,cs),
(348,620,o),
(363,533,o),
(394,460,cs),
(454,313,o),
(575,229,o),
(758,226,cs)
);
}
);
width = 1516;
},
{
layerId = "1AFB8506-DA78-41BC-86D2-7292AF872014";
shapes = (
{
closed = 1;
nodes = (
(587,-30,o),
(465,2,o),
(366,65,cs),
(266,129,o),
(190,216,o),
(138,329,cs),
(86,442,o),
(60,572,o),
(60,720,cs),
(60,868,o),
(86,998,o),
(138,1111,cs),
(190,1224,o),
(266,1311,o),
(366,1375,cs),
(465,1438,o),
(587,1470,o),
(730,1470,cs),
(874,1470,o),
(996,1438,o),
(1096,1375,cs),
(1195,1311,o),
(1271,1224,o),
(1323,1111,cs),
(1375,998,o),
(1401,868,o),
(1401,720,cs),
(1401,572,o),
(1375,442,o),
(1323,329,cs),
(1271,216,o),
(1195,129,o),
(1096,65,cs),
(996,2,o),
(874,-30,o),
(730,-30,cs)
);
},
{
closed = 1;
nodes = (
(838,134,o),
(929,158,o),
(1001,208,cs),
(1145,306,o),
(1218,488,o),
(1218,720,cs),
(1218,836,o),
(1200,938,o),
(1164,1026,cs),
(1091,1201,o),
(947,1304,o),
(730,1306,c),
(622,1306,o),
(532,1282,o),
(460,1233,cs),
(316,1135,o),
(244,952,o),
(242,720,c),
(242,604,o),
(260,502,o),
(296,415,cs),
(368,239,o),
(513,136,o),
(730,134,c)
);
}
);
width = 1461;
},
{
layerId = "D76E36A3-365E-47C5-869B-D9C6C556C4D0";
shapes = (
{
closed = 1;
nodes = (
(563,-30,o),
(443,2,o),
(348,66,cs),
(252,130,o),
(180,218,o),
(132,331,cs),
(84,444,o),
(60,573,o),
(60,720,cs),
(60,867,o),
(84,996,o),
(132,1109,cs),
(180,1222,o),
(252,1310,o),
(348,1374,cs),
(443,1438,o),
(563,1470,o),
(706,1470,cs),
(849,1470,o),
(969,1438,o),
(1065,1374,cs),
(1160,1310,o),
(1232,1222,o),
(1280,1109,cs),
(1328,996,o),
(1352,867,o),
(1352,720,cs),
(1352,573,o),
(1328,444,o),
(1280,331,cs),
(1232,218,o),
(1160,130,o),
(1065,66,cs),
(969,2,o),
(849,-30,o),
(706,-30,cs)
);
},
{
closed = 1;
nodes = (
(829,54,o),
(932,83,o),
(1015,140,cs),
(1179,254,o),
(1262,460,o),
(1262,720,cs),
(1262,850,o),
(1241,965,o),
(1200,1066,cs),
(1117,1266,o),
(953,1386,o),
(706,1386,cs),
(583,1386,o),
(480,1358,o),
(399,1301,cs),
(235,1188,o),
(153,980,o),
(150,720,cs),
(149,590,o),
(169,475,o),
(210,375,cs),
(293,175,o),
(459,54,o),
(706,54,cs)
);
}
);
width = 1412;
}
);
leftKerningGroup = G2;
rightKerningGroup = O;
unicode = 79;
},
{
glyphname = P;
layers = (
{
layerId = "9CE1DBE4-93A7-4D76-A027-A21376769114";
shapes = (
{
closed = 1;
nodes = (
(140,0,l),
(140,1440,l),
(748,1440,ls),
(776,1440,o),
(831,1439,o),
(868,1432,c),
(954,1419,o),
(1025,1390,o),
(1080,1347,cs),
(1190,1260,o),
(1240,1125,o),
(1240,964,cs),
(1240,883,o),
(1227,810,o),
(1201,745,cs),
(1148,613,o),
(1039,523,o),
(868,496,cs),
(849,493,o),
(828,491,o),
(804,490,cs),
(780,489,o),
(761,488,o),
(748,488,cs),
(412,488,l),
(412,0,l)
);
},
{
closed = 1;
nodes = (
(412,742,l),
(736,742,ls),
(764,742,o),
(800,744,o),
(828,752,cs),
(865,762,o),
(893,779,o),
(913,803,cs),
(953,850,o),
(966,912,o),
(966,964,cs),
(966,990,o),
(962,1018,o),
(955,1047,c),
(939,1105,o),
(901,1156,o),
(828,1176,cs),
(800,1184,o),
(764,1186,o),
(736,1186,cs),
(412,1186,l)
);
}
);
width = 1300;
},
{
layerId = "1AFB8506-DA78-41BC-86D2-7292AF872014";
shapes = (
{
closed = 1;
nodes = (
(140,0,l),
(140,1440,l),
(706,1440,ls),
(734,1440,o),
(775,1439,o),
(811,1432,c),
(888,1420,o),
(954,1393,o),
(1007,1352,cs),
(1113,1269,o),
(1166,1139,o),
(1166,987,cs),
(1166,911,o),
(1153,842,o),
(1126,780,cs),
(1072,654,o),
(965,567,o),
(811,543,cs),
(793,540,o),
(775,538,o),
(755,537,cs),
(736,536,o),
(720,535,o),
(706,535,cs),
(312,535,l),
(312,0,l)
);
},
{
closed = 1;
nodes = (
(312,698,l),
(701,698,ls),
(726,698,o),
(761,701,o),
(791,707,c),
(837,718,o),
(875,737,o),
(905,766,cs),
(964,824,o),
(991,906,o),
(991,987,cs),
(991,1028,o),
(983,1069,o),
(970,1108,cs),
(942,1186,o),
(884,1247,o),
(791,1268,c),
(761,1275,o),
(726,1277,o),
(701,1277,cs),
(312,1277,l)
);
}
);
width = 1226;
},
{
layerId = "D76E36A3-365E-47C5-869B-D9C6C556C4D0";
shapes = (
{
closed = 1;
nodes = (
(140,0,l),
(140,1440,l),
(670,1440,ls),
(698,1440,o),
(726,1439,o),
(762,1432,c),
(831,1421,o),
(892,1396,o),
(943,1357,cs),
(1045,1277,o),
(1102,1152,o),
(1102,1008,cs),
(1102,936,o),
(1088,870,o),
(1061,810,cs),
(1005,689,o),
(901,605,o),
(762,584,cs),
(744,581,o),
(728,579,o),
(713,578,cs),
(698,577,o),
(684,576,o),
(670,576,cs),
(224,576,l),
(224,0,l)
);
},
{
closed = 1;
nodes = (
(224,660,l),
(670,660,ls),
(693,660,o),
(726,663,o),
(758,668,c),
(813,679,o),
(860,701,o),
(898,734,cs),
(973,801,o),
(1012,900,o),
(1012,1008,cs),
(1012,1062,o),
(1002,1113,o),
(983,1161,cs),
(944,1256,o),
(869,1327,o),
(758,1348,c),
(726,1355,o),
(693,1356,o),
(670,1356,cs),
(224,1356,l)
);
}
);
width = 1162;
}
);
leftKerningGroup = B2;
unicode = 80;
},
{
glyphname = Q;
layers = (
{
layerId = "9CE1DBE4-93A7-4D76-A027-A21376769114";
shapes = (
{
closed = 1;
nodes = (
(614,-30,o),
(490,1,o),
(386,64,cs),
(281,127,o),
(201,214,o),
(145,327,cs),
(88,440,o),
(60,571,o),
(60,720,cs),
(60,869,o),
(88,1000,o),
(145,1113,cs),
(201,1226,o),
(281,1313,o),
(386,1376,cs),
(490,1439,o),
(614,1470,o),
(758,1470,cs),
(902,1470,o),
(1026,1439,o),
(1131,1376,cs),
(1235,1313,o),
(1315,1226,o),
(1372,1113,cs),
(1428,1000,o),
(1456,869,o),
(1456,720,cs),
(1456,598,o),
(1437,489,o),
(1400,391,cs),
(1384,349,o),
(1354,307,o),
(1318,269,cs),
(1283,232,o),
(1243,200,o),
(1206,176,c),
(1208,173,l),
(1284,221,o),
(1396,254,o),
(1486,254,cs),
(1640,254,l),
(1640,0,l),
(1181,0,ls),
(1102,0,o),
(1025,-9,o),
(947,-17,cs),
(884,-24,o),
(821,-30,o),
(758,-30,cs)
);
},
{
closed = 1;
nodes = (
(849,225,o),
(925,244,o),
(986,285,cs),
(1107,366,o),
(1168,520,o),
(1168,720,cs),
(1168,820,o),
(1153,907,o),
(1123,980,cs),
(1062,1127,o),
(941,1211,o),
(758,1214,cs),
(667,1215,o),
(591,1196,o),
(530,1155,cs),
(409,1074,o),
(348,920,o),
(348,720,cs),
(348,620,o),
(363,533,o),
(394,460,cs),
(454,313,o),
(575,229,o),
(758,226,cs)
);
}
);
width = 1651;
},
{
layerId = "1AFB8506-DA78-41BC-86D2-7292AF872014";
shapes = (
{
closed = 1;
nodes = (
(587,-30,o),
(465,2,o),
(366,65,cs),
(266,129,o),
(190,216,o),
(138,329,cs),
(86,442,o),
(60,572,o),
(60,720,cs),
(60,868,o),
(86,998,o),
(138,1111,cs),
(190,1224,o),
(266,1311,o),
(366,1375,cs),
(465,1438,o),
(587,1470,o),
(730,1470,cs),
(874,1470,o),
(996,1438,o),
(1096,1375,cs),
(1195,1311,o),
(1271,1224,o),
(1323,1111,cs),
(1375,998,o),
(1401,868,o),
(1401,720,cs),
(1401,585,o),
(1379,465,o),
(1336,359,cs),
(1311,298,o),
(1274,244,o),
(1227,197,cs),
(1195,164,o),
(1150,134,o),
(1112,115,c),
(1114,112,l),
(1170,143,o),
(1252,163,o),
(1316,163,cs),
(1573,163,l),
(1573,0,l),
(1113,0,ls),
(1035,0,o),
(958,-11,o),
(880,-20,c),
(830,-26,o),
(781,-30,o),
(730,-30,cs)
);
},
{
closed = 1;
nodes = (
(838,134,o),
(929,158,o),
(1001,208,cs),
(1145,306,o),
(1218,488,o),
(1218,720,cs),
(1218,836,o),
(1200,938,o),
(1164,1026,cs),
(1091,1201,o),
(947,1304,o),
(730,1306,c),
(622,1306,o),
(532,1282,o),
(460,1233,cs),
(316,1135,o),
(244,952,o),
(242,720,c),
(242,604,o),
(260,502,o),
(296,415,cs),
(368,239,o),
(513,136,o),
(730,134,c)
);
}
);
width = 1590;
},
{
layerId = "D76E36A3-365E-47C5-869B-D9C6C556C4D0";
shapes = (
{
closed = 1;
nodes = (
(563,-30,o),
(443,2,o),
(348,66,cs),
(252,130,o),
(180,218,o),
(132,331,cs),
(84,444,o),
(60,573,o),
(60,720,cs),
(60,867,o),
(84,996,o),
(132,1109,cs),
(180,1222,o),
(252,1310,o),
(348,1374,cs),
(443,1438,o),
(563,1470,o),
(706,1470,cs),
(849,1470,o),
(969,1438,o),
(1065,1374,cs),
(1160,1310,o),
(1232,1222,o),
(1280,1109,cs),
(1328,996,o),
(1352,867,o),
(1352,720,cs),
(1352,573,o),
(1328,444,o),
(1280,331,cs),
(1247,254,o),
(1203,188,o),
(1148,134,cs),
(1118,104,o),
(1069,77,o),
(1030,62,c),
(1031,59,l),
(1070,74,o),
(1125,84,o),
(1167,84,cs),
(1515,84,l),
(1515,0,l),
(1054,0,ls),
(977,0,o),
(900,-13,o),
(822,-22,c),
(783,-28,o),
(745,-30,o),
(706,-30,cs)
);
},
{
closed = 1;
nodes = (
(829,54,o),
(932,83,o),
(1015,140,cs),
(1179,254,o),
(1262,460,o),
(1262,720,cs),
(1262,850,o),
(1241,965,o),
(1200,1066,cs),
(1117,1266,o),
(953,1386,o),
(706,1386,cs),
(583,1386,o),
(480,1358,o),
(399,1301,cs),
(235,1188,o),
(153,980,o),
(150,720,cs),
(149,590,o),
(169,475,o),
(210,375,cs),
(293,175,o),
(459,54,o),
(706,54,cs)
);
}
);
width = 1537;
}
);
leftKerningGroup = G2;
rightKerningGroup = O;
unicode = 81;
},
{
glyphname = R;
layers = (
{
layerId = "9CE1DBE4-93A7-4D76-A027-A21376769114";
shapes = (
{
closed = 1;
nodes = (
(962,0,l),
(658,586,l),
(938,640,l),
(1270,0,l)
);
},
{
closed = 1;
nodes = (
(140,0,l),
(140,1440,l),
(748,1440,ls),
(776,1440,o),
(831,1439,o),
(868,1432,c),
(954,1419,o),
(1025,1391,o),
(1080,1350,cs),
(1190,1267,o),
(1240,1139,o),
(1240,984,cs),
(1240,920,o),
(1227,856,o),
(1201,793,cs),
(1174,729,o),
(1134,674,o),
(1079,627,cs),
(1024,580,o),
(953,549,o),
(868,536,cs),
(849,533,o),
(828,531,o),
(804,530,cs),
(780,529,o),
(761,528,o),
(748,528,cs),
(412,528,l),
(412,0,l)
);
},
{
closed = 1;
nodes = (
(412,782,l),
(736,782,ls),
(764,782,o),
(803,780,o),
(828,792,cs),
(883,817,o),
(920,847,o),
(939,882,cs),
(957,916,o),
(966,950,o),
(966,984,cs),
(966,1018,o),
(957,1055,o),
(939,1095,c),
(920,1134,o),
(883,1161,o),
(828,1176,cs),
(800,1184,o),
(764,1186,o),
(736,1186,cs),
(412,1186,l)
);
}
);
width = 1340;
},
{
layerId = "1AFB8506-DA78-41BC-86D2-7292AF872014";
shapes = (
{
closed = 1;
nodes = (
(993,0,l),
(664,637,l),
(847,662,l),
(1191,0,l)
);
},
{
closed = 1;
nodes = (
(140,0,l),
(140,1440,l),
(706,1440,ls),
(734,1440,o),
(775,1439,o),
(811,1432,c),
(888,1420,o),
(954,1394,o),
(1007,1355,cs),
(1113,1276,o),
(1166,1155,o),
(1166,1013,cs),
(1166,948,o),
(1153,886,o),
(1126,827,cs),
(1099,768,o),
(1059,717,o),
(1006,676,cs),
(954,634,o),
(888,606,o),
(811,594,cs),
(793,591,o),
(775,589,o),
(755,588,cs),
(736,587,o),
(720,586,o),
(706,586,cs),
(312,586,l),
(312,0,l)
);
},
{
closed = 1;
nodes = (
(312,749,l),
(701,749,ls),
(726,749,o),
(762,750,o),
(791,758,cs),
(861,778,o),
(912,812,o),
(944,861,cs),
(975,909,o),
(991,959,o),
(991,1013,cs),
(991,1067,o),
(975,1119,o),
(944,1170,c),
(912,1219,o),
(861,1252,o),
(791,1268,cs),
(761,1275,o),
(726,1277,o),
(701,1277,cs),
(312,1277,l)
);
}
);
width = 1277;
},
{
layerId = "D76E36A3-365E-47C5-869B-D9C6C556C4D0";
shapes = (
{
closed = 1;
nodes = (
(1021,0,l),
(670,682,l),
(768,682,l),
(1121,0,l)
);
},
{
closed = 1;
nodes = (
(140,0,l),
(140,1440,l),
(670,1440,ls),
(698,1440,o),
(726,1439,o),
(762,1432,c),
(831,1421,o),
(892,1397,o),
(943,1360,cs),
(1045,1284,o),
(1102,1169,o),
(1102,1038,cs),
(1102,973,o),
(1088,912,o),
(1061,857,cs),
(1033,802,o),
(994,755,o),
(943,718,cs),
(892,681,o),
(831,656,o),
(762,644,cs),
(744,641,o),
(728,639,o),
(713,638,cs),
(698,637,o),
(684,636,o),
(670,636,cs),
(224,636,l),
(224,0,l)
);
},
{
closed = 1;
nodes = (
(224,720,l),
(670,720,ls),
(693,720,o),
(726,723,o),
(758,728,cs),
(841,743,o),
(905,781,o),
(948,842,cs),
(991,902,o),
(1012,967,o),
(1012,1038,cs),
(1012,1109,o),
(991,1175,o),
(948,1235,cs),
(905,1294,o),
(841,1332,o),
(758,1348,cs),
(726,1355,o),
(693,1356,o),
(670,1356,cs),
(224,1356,l)
);
}
);
width = 1222;
}
);
leftKerningGroup = B2;
rightKerningGroup = R;
unicode = 82;
},
{
glyphname = S;
layers = (
{
layerId = "9CE1DBE4-93A7-4D76-A027-A21376769114";
shapes = (
{
closed = 1;
nodes = (
(577,-30,o),
(481,-11,o),
(396,27,cs),
(224,102,o),
(109,245,o),
(80,440,c),
(364,482,l),
(384,399,o),
(425,336,o),
(488,291,cs),
(551,246,o),
(622,224,o),
(702,224,cs),
(747,224,o),
(790,231,o),
(832,245,cs),
(916,273,o),
(976,328,o),
(976,408,cs),
(976,437,o),
(968,465,o),
(948,489,cs),
(928,513,o),
(892,535,o),
(836,552,cs),
(462,662,ls),
(406,678,o),
(326,704,o),
(257,759,cs),
(188,814,o),
(136,901,o),
(136,1038,cs),
(136,1135,o),
(160,1215,o),
(209,1279,cs),
(258,1343,o),
(323,1391,o),
(404,1422,cs),
(485,1453,o),
(575,1469,o),
(674,1468,cs),
(773,1467,o),
(862,1450,o),
(940,1417,cs),
(1096,1352,o),
(1203,1226,o),
(1250,1046,c),
(956,996,l),
(945,1043,o),
(926,1082,o),
(897,1114,cs),
(840,1178,o),
(757,1211,o),
(670,1214,cs),
(627,1215,o),
(587,1210,o),
(550,1197,cs),
(474,1171,o),
(422,1120,o),
(422,1052,cs),
(422,1021,o),
(432,995,o),
(451,976,cs),
(470,956,o),
(495,940,o),
(524,928,cs),
(553,916,o),
(583,906,o),
(614,898,cs),
(864,830,ls),
(939,810,o),
(1035,781,o),
(1119,723,cs),
(1202,665,o),
(1262,573,o),
(1262,428,cs),
(1262,273,o),
(1192,158,o),
(1083,83,cs),
(974,7,o),
(831,-30,o),
(684,-30,cs)
);
}
);
width = 1342;
},
{
layerId = "1AFB8506-DA78-41BC-86D2-7292AF872014";
shapes = (
{
closed = 1;
nodes = (
(547,-30,o),
(455,-13,o),
(375,22,cs),
(211,91,o),
(102,220,o),
(69,396,c),
(247,424,l),
(270,333,o),
(318,262,o),
(393,210,cs),
(468,159,o),
(555,133,o),
(657,133,cs),
(723,133,o),
(782,144,o),
(835,164,cs),
(941,206,o),
(1008,285,o),
(1008,391,cs),
(1008,456,o),
(983,503,o),
(944,536,cs),
(905,569,o),
(854,592,o),
(803,606,cs),
(436,715,ls),
(355,739,o),
(277,775,o),
(220,830,cs),
(162,886,o),
(125,962,o),
(125,1067,cs),
(125,1151,o),
(147,1224,o),
(191,1284,cs),
(235,1344,o),
(295,1390,o),
(370,1422,cs),
(446,1454,o),
(531,1470,o),
(627,1469,cs),
(723,1469,o),
(810,1452,o),
(886,1418,cs),
(1038,1350,o),
(1142,1222,o),
(1176,1048,c),
(994,1016,l),
(984,1076,o),
(962,1127,o),
(927,1170,cs),
(858,1256,o),
(750,1304,o),
(625,1306,cs),
(565,1306,o),
(511,1297,o),
(464,1277,cs),
(367,1237,o),
(307,1164,o),
(307,1074,cs),
(307,1030,o),
(320,993,o),
(345,966,cs),
(371,938,o),
(402,917,o),
(440,901,cs),
(477,885,o),
(514,872,o),
(550,862,cs),
(826,782,ls),
(888,765,o),
(975,737,o),
(1052,682,cs),
(1129,627,o),
(1185,538,o),
(1185,400,cs),
(1185,262,o),
(1127,154,o),
(1029,81,cs),
(931,8,o),
(798,-30,o),
(649,-30,cs)
);
}
);
width = 1255;
},
{
layerId = "D76E36A3-365E-47C5-869B-D9C6C556C4D0";
shapes = (
{
closed = 1;
nodes = (
(521,-30,o),
(433,-14,o),
(356,18,cs),
(200,81,o),
(95,199,o),
(60,358,c),
(144,374,l),
(170,275,o),
(225,197,o),
(310,140,cs),
(395,83,o),
(497,54,o),
(618,54,cs),
(702,54,o),
(775,67,o),
(838,94,cs),
(963,147,o),
(1036,247,o),
(1036,376,cs),
(1036,473,o),
(996,537,o),
(941,578,cs),
(885,618,o),
(821,641,o),
(774,654,cs),
(414,762,ls),
(310,793,o),
(235,837,o),
(187,893,cs),
(139,949,o),
(116,1016,o),
(116,1092,cs),
(116,1165,o),
(136,1231,o),
(176,1288,cs),
(215,1345,o),
(270,1389,o),
(341,1422,cs),
(412,1454,o),
(493,1470,o),
(586,1470,cs),
(680,1470,o),
(764,1453,o),
(839,1418,cs),
(988,1349,o),
(1088,1219,o),
(1112,1050,c),
(1028,1034,l),
(1019,1104,o),
(994,1166,o),
(954,1219,cs),
(874,1325,o),
(743,1386,o),
(586,1386,cs),
(511,1386,o),
(445,1373,o),
(388,1347,cs),
(274,1295,o),
(206,1203,o),
(206,1094,cs),
(206,1037,o),
(222,991,o),
(253,957,cs),
(284,922,o),
(321,896,o),
(366,877,cs),
(411,858,o),
(453,842,o),
(494,830,cs),
(792,740,ls),
(843,725,o),
(922,699,o),
(994,646,cs),
(1065,593,o),
(1118,508,o),
(1118,376,cs),
(1118,252,o),
(1070,151,o),
(982,80,cs),
(894,9,o),
(770,-30,o),
(618,-30,cs)
);
}
);
width = 1178;
}
);
leftKerningGroup = S2;
rightKerningGroup = S;
unicode = 83;
},
{
glyphname = T;
layers = (
{
layerId = "9CE1DBE4-93A7-4D76-A027-A21376769114";
shapes = (
{
closed = 1;
nodes = (
(474,0,l),
(474,1186,l),
(20,1186,l),
(20,1440,l),
(1200,1440,l),
(1200,1186,l),
(746,1186,l),
(746,0,l)
);
}
);
width = 1220;
},
{
layerId = "1AFB8506-DA78-41BC-86D2-7292AF872014";
shapes = (
{
closed = 1;
nodes = (
(513,0,l),
(513,1277,l),
(20,1277,l),
(20,1440,l),
(1179,1440,l),
(1179,1277,l),
(685,1277,l),
(685,0,l)
);
}
);
width = 1199;
},
{
layerId = "D76E36A3-365E-47C5-869B-D9C6C556C4D0";
shapes = (
{
closed = 1;
nodes = (
(548,0,l),
(548,1356,l),
(20,1356,l),
(20,1440,l),
(1160,1440,l),
(1160,1356,l),
(632,1356,l),
(632,0,l)
);
}
);
width = 1180;
}
);
leftKerningGroup = T2;
rightKerningGroup = T;
unicode = 84;
},
{
glyphname = U;
layers = (
{
layerId = "9CE1DBE4-93A7-4D76-A027-A21376769114";
shapes = (
{
closed = 1;
nodes = (
(610,-30,o),
(508,-7,o),
(420,41,cs),
(244,135,o),
(140,309,o),
(140,540,cs),
(140,1438,l),
(416,1440,l),
(416,542,ls),
(416,447,o),
(450,369,o),
(507,313,cs),
(563,257,o),
(641,226,o),
(726,226,cs),
(814,226,o),
(891,258,o),
(947,314,cs),
(1003,370,o),
(1036,449,o),
(1036,542,cs),
(1036,1440,l),
(1312,1440,l),
(1312,540,ls),
(1312,425,o),
(1287,324,o),
(1238,239,cs),
(1139,68,o),
(958,-30,o),
(726,-30,cs)
);
}
);
width = 1452;
},
{
layerId = "1AFB8506-DA78-41BC-86D2-7292AF872014";
shapes = (
{
closed = 1;
nodes = (
(596,-30,o),
(498,-8,o),
(413,39,cs),
(242,130,o),
(140,300,o),
(140,524,cs),
(140,1439,l),
(314,1440,l),
(314,540,ls),
(314,401,o),
(365,299,o),
(442,232,cs),
(519,165,o),
(616,132,o),
(707,132,cs),
(799,132,o),
(896,165,o),
(973,232,cs),
(1049,299,o),
(1100,402,o),
(1100,540,cs),
(1100,1440,l),
(1274,1440,l),
(1274,524,ls),
(1274,413,o),
(1249,315,o),
(1201,233,cs),
(1104,66,o),
(929,-30,o),
(707,-30,cs)
);
}
);
width = 1414;
},
{
layerId = "D76E36A3-365E-47C5-869B-D9C6C556C4D0";
shapes = (
{
closed = 1;
nodes = (
(583,-30,o),
(489,-8,o),
(406,37,cs),
(241,126,o),
(140,293,o),
(140,510,cs),
(140,1440,l),
(224,1440,l),
(224,538,ls),
(224,361,o),
(290,237,o),
(385,161,cs),
(480,84,o),
(594,50,o),
(690,50,cs),
(786,50,o),
(900,84,o),
(995,161,cs),
(1090,237,o),
(1156,361,o),
(1156,538,cs),
(1156,1440,l),
(1240,1440,l),
(1240,510,ls),
(1240,402,o),
(1216,308,o),
(1169,227,cs),
(1074,65,o),
(903,-30,o),
(690,-30,cs)
);
}
);
width = 1380;
}
);
leftKerningGroup = U2;
rightKerningGroup = U;
unicode = 85;
},
{
glyphname = V;
layers = (
{
layerId = "9CE1DBE4-93A7-4D76-A027-A21376769114";
shapes = (
{
closed = 1;
nodes = (
(450,0,l),
(10,1440,l),
(290,1440,l),
(650,256,l),
(1016,1440,l),
(1296,1440,l),
(856,0,l)
);
}
);
width = 1306;
},
{
layerId = "1AFB8506-DA78-41BC-86D2-7292AF872014";
shapes = (
{
closed = 1;
nodes = (
(495,0,l),
(10,1440,l),
(189,1440,l),
(612,185,l),
(1038,1440,l),
(1217,1440,l),
(732,0,l)
);
}
);
width = 1227;
},
{
layerId = "D76E36A3-365E-47C5-869B-D9C6C556C4D0";
shapes = (
{
closed = 1;
nodes = (
(534,0,l),
(10,1440,l),
(100,1440,l),
(578,122,l),
(1058,1440,l),
(1148,1440,l),
(624,0,l)
);
}
);
width = 1158;
}
);
leftKerningGroup = V2;
rightKerningGroup = V;
unicode = 86;
},
{
glyphname = W;
layers = (
{
layerId = "9CE1DBE4-93A7-4D76-A027-A21376769114";
shapes = (
{
closed = 1;
nodes = (
(442,0,l),
(20,1440,l),
(306,1440,l),
(576,450,l),
(846,1438,l),
(1132,1440,l),
(1402,450,l),
(1672,1440,l),
(1958,1440,l),
(1536,0,l),
(1268,0,l),
(989,972,l),
(710,0,l)
);
}
);
width = 1978;
},
{
layerId = "1AFB8506-DA78-41BC-86D2-7292AF872014";
shapes = (
{
closed = 1;
nodes = (
(447,0,l),
(31,1440,l),
(210,1440,l),
(533,291,l),
(856,1439,l),
(1036,1440,l),
(1359,291,l),
(1682,1440,l),
(1862,1440,l),
(1445,0,l),
(1273,0,l),
(946,1139,l),
(619,0,l)
);
}
);
width = 1893;
},
{
layerId = "D76E36A3-365E-47C5-869B-D9C6C556C4D0";
shapes = (
{
closed = 1;
nodes = (
(452,0,l),
(40,1440,l),
(126,1440,l),
(496,152,l),
(864,1440,l),
(952,1440,l),
(1322,152,l),
(1690,1440,l),
(1778,1440,l),
(1366,0,l),
(1278,0,l),
(908,1286,l),
(540,0,l)
);
}
);
width = 1818;
}
);
leftKerningGroup = V2;
rightKerningGroup = V;
unicode = 87;
},
{
glyphname = X;
layers = (
{
layerId = "9CE1DBE4-93A7-4D76-A027-A21376769114";
shapes = (
{
closed = 1;
nodes = (
(20,0,l),
(504,728,l),
(34,1440,l),
(368,1440,l),
(674,960,l),
(976,1440,l),
(1312,1440,l),
(842,728,l),
(1324,0,l),
(990,0,l),
(674,496,l),
(356,0,l)
);
}
);
width = 1344;
},
{
layerId = "1AFB8506-DA78-41BC-86D2-7292AF872014";
shapes = (
{
closed = 1;
nodes = (
(20,0,l),
(516,729,l),
(33,1440,l),
(242,1440,l),
(620,874,l),
(996,1440,l),
(1206,1440,l),
(724,729,l),
(1218,0,l),
(1009,0,l),
(620,583,l),
(230,0,l)
);
}
);
width = 1238;
},
{
layerId = "D76E36A3-365E-47C5-869B-D9C6C556C4D0";
shapes = (
{
closed = 1;
nodes = (
(20,0,l),
(526,730,l),
(32,1440,l),
(132,1440,l),
(572,798,l),
(1014,1440,l),
(1114,1440,l),
(620,730,l),
(1126,0,l),
(1026,0,l),
(572,660,l),
(120,0,l)
);
}
);
width = 1146;
}
);
leftKerningGroup = X2;
rightKerningGroup = X;
unicode = 88;
},
{
glyphname = Y;
layers = (
{
layerId = "9CE1DBE4-93A7-4D76-A027-A21376769114";
shapes = (
{
closed = 1;
nodes = (
(492,0,l),
(492,586,l),
(0,1440,l),
(318,1440,l),
(630,898,l),
(942,1440,l),
(1260,1440,l),
(768,586,l),
(768,0,l)
);
}
);
width = 1260;
},
{
layerId = "1AFB8506-DA78-41BC-86D2-7292AF872014";
shapes = (
{
closed = 1;
nodes = (
(485,0,l),
(485,600,l),
(0,1440,l),
(200,1440,l),
(571,797,l),
(942,1440,l),
(1142,1440,l),
(658,600,l),
(658,0,l)
);
}
);
width = 1142;
},
{
layerId = "D76E36A3-365E-47C5-869B-D9C6C556C4D0";
shapes = (
{
closed = 1;
nodes = (
(478,0,l),
(478,612,l),
(0,1440,l),
(96,1440,l),
(520,708,l),
(942,1440,l),
(1038,1440,l),
(562,612,l),
(562,0,l)
);
}
);
width = 1038;
}
);
leftKerningGroup = Y2;
rightKerningGroup = Y;
unicode = 89;
},
{
glyphname = Z;
layers = (
{
layerId = "9CE1DBE4-93A7-4D76-A027-A21376769114";
shapes = (
{
closed = 1;
nodes = (
(100,0,l),
(100,34,l),
(784,1186,l),
(160,1186,l),
(160,1440,l),
(1260,1440,l),
(1260,1406,l),
(580,256,l),
(1240,256,l),
(1240,0,l)
);
}
);
width = 1360;
},
{
layerId = "1AFB8506-DA78-41BC-86D2-7292AF872014";
shapes = (
{
closed = 1;
nodes = (
(100,0,l),
(100,32,l),
(866,1277,l),
(128,1277,l),
(128,1440,l),
(1154,1440,l),
(1154,1406,l),
(392,163,l),
(1145,163,l),
(1145,0,l)
);
}
);
width = 1254;
},
{
layerId = "D76E36A3-365E-47C5-869B-D9C6C556C4D0";
shapes = (
{
closed = 1;
nodes = (
(100,0,l),
(100,30,l),
(938,1356,l),
(100,1356,l),
(100,1440,l),
(1062,1440,l),
(1062,1406,l),
(228,82,l),
(1062,82,l),
(1062,0,l)
);
}
);
width = 1162;
}
);
leftKerningGroup = B2;
rightKerningGroup = Z;
unicode = 90;
},
{
glyphname = bracketleft;
layers = (
{
layerId = "9CE1DBE4-93A7-4D76-A027-A21376769114";
shapes = (
{
closed = 1;
nodes = (
(280,-420,l),
(280,1800,l),
(738,1800,l),
(738,1560,l),
(520,1560,l),
(520,-180,l),
(738,-180,l),
(738,-420,l)
);
}
);
width = 858;
},
{
layerId = "1AFB8506-DA78-41BC-86D2-7292AF872014";
shapes = (
{
closed = 1;
nodes = (
(280,-433,l),
(280,1781,l),
(671,1781,l),
(671,1624,l),
(437,1624,l),
(437,-276,l),
(671,-276,l),
(671,-433,l)
);
}
);
width = 823;
},
{
layerId = "D76E36A3-365E-47C5-869B-D9C6C556C4D0";
shapes = (
{
closed = 1;
nodes = (
(280,-444,l),
(280,1764,l),
(612,1764,l),
(612,1680,l),
(364,1680,l),
(364,-360,l),
(612,-360,l),
(612,-444,l)
);
}
);
width = 792;
}
);
leftKerningGroup = parenleft2;
rightKerningGroup = parenleft;
unicode = 91;
},
{
glyphname = backslash;
layers = (
{
layerId = "9CE1DBE4-93A7-4D76-A027-A21376769114";
shapes = (
{
closed = 1;
nodes = (
(392,1440,l),
(776,0,l),
(504,0,l),
(120,1440,l)
);
}
);
width = 896;
},
{
layerId = "1AFB8506-DA78-41BC-86D2-7292AF872014";
shapes = (
{
closed = 1;
nodes = (
(295,1440,l),
(679,0,l),
(504,0,l),
(120,1440,l)
);
}
);
width = 799;
},
{
layerId = "D76E36A3-365E-47C5-869B-D9C6C556C4D0";
shapes = (
{
closed = 1;
nodes = (
(210,1440,l),
(594,0,l),
(504,0,l),
(120,1440,l)
);
}
);
width = 714;
}
);
leftKerningGroup = B2;
unicode = 92;
},
{
glyphname = asciicircum;
layers = (
{
layerId = "9CE1DBE4-93A7-4D76-A027-A21376769114";
shapes = (
{
closed = 1;
nodes = (
(211,986,l),
(694,1470,l),
(1179,987,l),
(1011,819,l),
(694,1146,l),
(379,818,l)
);
}
);
width = 1368;
},
{
layerId = "1AFB8506-DA78-41BC-86D2-7292AF872014";
shapes = (
{
closed = 1;
nodes = (
(211,999,l),
(682,1471,l),
(1156,1000,l),
(1048,892,l),
(682,1261,l),
(318,891,l)
);
}
);
width = 1345;
},
{
layerId = "D76E36A3-365E-47C5-869B-D9C6C556C4D0";
shapes = (
{
closed = 1;
nodes = (
(211,1010,l),
(672,1472,l),
(1135,1011,l),
(1081,955,l),
(672,1362,l),
(265,954,l)
);
}
);
width = 1324;
}
);
leftKerningGroup = B2;
unicode = 94;
},
{
glyphname = grave;
layers = (
{
layerId = "9CE1DBE4-93A7-4D76-A027-A21376769114";
shapes = (
{
closed = 1;
nodes = (
(577,1980,l),
(656,1590,l),
(486,1590,l),
(320,1980,l)
);
}
);
width = 1110;
},
{
layerId = "1AFB8506-DA78-41BC-86D2-7292AF872014";
shapes = (
{
closed = 1;
nodes = (
(510,1932,l),
(582,1606,l),
(467,1606,l),
(339,1932,l)
);
}
);
width = 1005;
},
{
layerId = "D76E36A3-365E-47C5-869B-D9C6C556C4D0";
shapes = (
{
closed = 1;
nodes = (
(451,1890,l),
(517,1620,l),
(451,1620,l),
(355,1890,l)
);
}
);
width = 914;
}
);
leftKerningGroup = B2;
unicode = 96;
},
{
glyphname = a;
layers = (
{
layerId = "9CE1DBE4-93A7-4D76-A027-A21376769114";
shapes = (
{
closed = 1;
nodes = (
(400,1110,o),
(163,955,o),
(118,808,q),
(364,740,l),
(388,809,o),
(491,872,o),
(580,872,qs),
(627,872,o),
(700,849,o),
(749,801,o),
(774,728,o),
(774,678,qs),
(774,488,ls),
(774,452,o),
(767,366,o),
(748,328,qs),
(735,301,o),
(688,252,o),
(626,215,o),
(551,194,o),
(508,194,qs),
(427,194,o),
(346,258,o),
(346,322,qs),
(346,354,o),
(370,405,o),
(420,443,o),
(494,468,o),
(543,474,qs),
(848,512,l),
(831,704,l),
(503,663,ls),
(398,650,o),
(239,591,o),
(133,499,o),
(80,376,o),
(80,298,qs),
(80,225,o),
(132,104,o),
(227,17,o),
(359,-30,o),
(440,-30,qs),
(558,-30,o),
(722,51,o),
(774,133,q),
(774,0,l),
(1046,0,l),
(1046,630,ls),
(1046,875,o),
(817,1110,o),
(580,1110,qs)
);
}
);
width = 1166;
},
{
layerId = "1AFB8506-DA78-41BC-86D2-7292AF872014";
shapes = (
{
closed = 1;
nodes = (
(388,1110,o),
(160,954,o),
(120,806,q),
(281,766,l),
(308,862,o),
(446,954,o),
(563,954,qs),
(631,954,o),
(733,922,o),
(799,853,o),
(831,747,o),
(831,673,qs),
(831,538,ls),
(831,502,o),
(826,411,o),
(814,371,q),
(802,314,o),
(744,221,o),
(659,155,o),
(550,119,o),
(485,119,qs),
(368,119,o),
(250,209,o),
(250,297,qs),
(250,342,o),
(282,411,o),
(352,461,o),
(460,494,o),
(536,503,qs),
(871,545,l),
(864,680,l),
(517,637,ls),
(417,624,o),
(254,574,o),
(141,490,o),
(80,370,o),
(80,286,qs),
(80,213,o),
(131,96,o),
(228,14,o),
(364,-30,o),
(450,-30,qs),
(583,-30,o),
(774,73,o),
(831,172,q),
(831,0,l),
(1002,0,l),
(1002,655,ls),
(1002,884,o),
(785,1110,o),
(565,1110,qs)
);
}
);
width = 1122;
},
{
layerId = "D76E36A3-365E-47C5-869B-D9C6C556C4D0";
shapes = (
{
closed = 1;
nodes = (
(378,1110,o),
(157,953,o),
(122,804,q),
(208,788,l),
(238,908,o),
(407,1026,o),
(548,1026,qs),
(635,1026,o),
(761,985,o),
(842,898,o),
(880,763,o),
(880,668,qs),
(880,582,ls),
(880,546,o),
(878,450,o),
(872,408,qs),
(860,325,o),
(793,193,o),
(688,102,o),
(549,54,o),
(465,54,qs),
(316,54,o),
(166,166,o),
(166,275,qs),
(166,332,o),
(205,416,o),
(292,477,o),
(430,517,o),
(529,529,qs),
(891,574,l),
(892,659,l),
(529,614,ls),
(433,602,o),
(268,560,o),
(148,483,o),
(80,364,o),
(80,275,qs),
(80,203,o),
(131,89,o),
(229,11,o),
(369,-30,o),
(459,-30,qs),
(604,-30,o),
(819,92,o),
(880,207,q),
(880,0,l),
(964,0,l),
(964,676,ls),
(964,892,o),
(757,1110,o),
(552,1110,qs)
);
}
);
width = 1084;
}
);
leftKerningGroup = a2;
rightKerningGroup = a;
unicode = 97;
},
{
glyphname = b;
layers = (
{
layerId = "9CE1DBE4-93A7-4D76-A027-A21376769114";
shapes = (
{
closed = 1;
nodes = (
(138,1440,l),
(410,1440,l),
(410,0,l),
(138,0,l)
);
},
{
closed = 1;
nodes = (
(832,1110,o),
(1010,1026,o),
(1141,876,o),
(1216,666,o),
(1216,540,qs),
(1216,415,o),
(1141,205,o),
(1010,54,o),
(832,-30,o),
(728,-30,qs),
(613,-30,o),
(458,56,o),
(363,208,o),
(323,417,o),
(323,540,qs),
(323,663,o),
(363,872,o),
(458,1024,o),
(613,1110,o),
(728,1110,qs)
);
},
{
closed = 1;
nodes = (
(604,856,o),
(508,812,o),
(443,730,o),
(410,613,o),
(410,540,qs),
(410,470,o),
(441,353,o),
(504,270,o),
(601,224,o),
(668,224,qs),
(733,224,o),
(830,269,o),
(895,351,o),
(928,468,o),
(928,540,qs),
(928,610,o),
(896,726,o),
(831,810,o),
(733,856,o),
(668,856,qs)
);
}
);
width = 1296;
},
{
layerId = "1AFB8506-DA78-41BC-86D2-7292AF872014";
shapes = (
{
closed = 1;
nodes = (
(139,1440,l),
(311,1440,l),
(311,0,l),
(139,0,l)
);
},
{
closed = 1;
nodes = (
(787,1110,o),
(968,1027,o),
(1096,877,o),
(1166,666,o),
(1166,539,qs),
(1166,414,o),
(1097,204,o),
(969,54,o),
(788,-30,o),
(675,-30,qs),
(558,-30,o),
(391,54,o),
(284,204,o),
(233,414,o),
(233,539,qs),
(233,664,o),
(282,873,o),
(390,1025,o),
(557,1110,o),
(675,1110,qs)
);
},
{
closed = 1;
nodes = (
(563,947,o),
(438,889,o),
(353,782,o),
(311,632,o),
(311,539,qs),
(311,450,o),
(351,300,o),
(434,193,o),
(560,133,o),
(647,133,qs),
(731,133,o),
(857,191,o),
(941,297,o),
(983,447,o),
(983,539,qs),
(983,630,o),
(942,779,o),
(858,887,o),
(731,947,o),
(647,947,qs)
);
}
);
width = 1246;
},
{
layerId = "D76E36A3-365E-47C5-869B-D9C6C556C4D0";
shapes = (
{
closed = 1;
nodes = (
(140,1440,l),
(224,1440,l),
(224,0,l),
(140,0,l)
);
},
{
closed = 1;
nodes = (
(747,1110,o),
(931,1027,o),
(1057,877,o),
(1122,666,o),
(1122,538,qs),
(1122,413,o),
(1058,204,o),
(933,54,o),
(749,-30,o),
(628,-30,qs),
(510,-30,o),
(333,52,o),
(214,201,o),
(154,411,o),
(154,538,qs),
(154,664,o),
(212,874,o),
(330,1026,o),
(508,1110,o),
(628,1110,qs)
);
},
{
closed = 1;
nodes = (
(528,1026,o),
(377,956,o),
(275,828,o),
(224,648,o),
(224,538,qs),
(224,432,o),
(273,254,o),
(373,125,o),
(525,54,o),
(628,54,qs),
(729,54,o),
(881,123,o),
(982,249,o),
(1032,428,o),
(1032,538,qs),
(1032,647,o),
(982,826,o),
(882,955,o),
(730,1026,o),
(628,1026,qs)
);
}
);
width = 1202;
}
);
leftKerningGroup = I2;
rightKerningGroup = b;
unicode = 98;
},
{
glyphname = c;
layers = (
{
layerId = "9CE1DBE4-93A7-4D76-A027-A21376769114";
shapes = (
{
closed = 1;
nodes = (
(504,-30,o),
(408,-5,o),
(328,45,cs),
(168,145,o),
(80,324,o),
(80,540,cs),
(80,649,o),
(102,747,o),
(147,833,cs),
(235,1005,o),
(400,1110,o),
(620,1110,cs),
(747,1110,o),
(854,1078,o),
(941,1014,cs),
(1027,949,o),
(1082,861,o),
(1106,750,c),
(834,678,l),
(818,734,o),
(790,778,o),
(751,809,cs),
(711,840,o),
(666,856,o),
(616,856,cs),
(559,856,o),
(512,842,o),
(475,815,cs),
(402,759,o),
(368,660,o),
(368,540,cs),
(368,446,o),
(389,370,o),
(431,312,cs),
(472,253,o),
(534,224,o),
(616,224,cs),
(739,224,o),
(796,282,o),
(828,386,c),
(1106,328,l),
(1075,213,o),
(1017,125,o),
(932,63,cs),
(847,1,o),
(741,-30,o),
(616,-30,cs)
);
}
);
width = 1166;
},
{
layerId = "1AFB8506-DA78-41BC-86D2-7292AF872014";
shapes = (
{
closed = 1;
nodes = (
(484,-30,o),
(391,-6,o),
(315,43,cs),
(163,141,o),
(82,319,o),
(80,540,c),
(81,652,o),
(102,752,o),
(143,837,cs),
(224,1009,o),
(379,1110,o),
(595,1110,cs),
(708,1110,o),
(805,1082,o),
(888,1027,cs),
(970,971,o),
(1025,895,o),
(1054,799,c),
(884,747,l),
(861,810,o),
(823,860,o),
(772,894,cs),
(720,929,o),
(660,947,o),
(594,947,cs),
(518,947,o),
(457,929,o),
(408,895,cs),
(310,825,o),
(264,698,o),
(262,540,c),
(263,418,o),
(292,320,o),
(347,245,cs),
(402,170,o),
(484,133,o),
(594,133,cs),
(736,133,o),
(831,200,o),
(880,324,c),
(1054,278,l),
(1015,178,o),
(957,102,o),
(878,49,cs),
(800,-4,o),
(704,-30,o),
(594,-30,cs)
);
}
);
width = 1119;
},
{
layerId = "D76E36A3-365E-47C5-869B-D9C6C556C4D0";
shapes = (
{
closed = 1;
nodes = (
(467,-30,o),
(377,-6,o),
(304,42,cs),
(159,138,o),
(84,315,o),
(80,540,c),
(82,655,o),
(102,756,o),
(140,841,cs),
(215,1012,o),
(361,1110,o),
(574,1110,cs),
(674,1110,o),
(763,1086,o),
(842,1039,cs),
(920,991,o),
(975,925,o),
(1008,842,c),
(928,808,l),
(898,877,o),
(852,931,o),
(790,969,cs),
(727,1007,o),
(655,1026,o),
(574,1026,cs),
(483,1026,o),
(408,1006,o),
(349,965,cs),
(230,883,o),
(173,732,o),
(170,540,c),
(172,393,o),
(207,276,o),
(274,187,cs),
(341,98,o),
(441,54,o),
(574,54,cs),
(733,54,o),
(861,129,o),
(926,270,c),
(1008,234,l),
(963,147,o),
(904,82,o),
(831,37,cs),
(758,-8,o),
(672,-30,o),
(574,-30,cs)
);
}
);
width = 1078;
}
);
leftKerningGroup = c2;
rightKerningGroup = c;
unicode = 99;
},
{
glyphname = d;
layers = (
{
layerId = "9CE1DBE4-93A7-4D76-A027-A21376769114";
shapes = (
{
closed = 1;
nodes = (
(1158,1440,l),
(1158,0,l),
(886,0,l),
(886,1440,l)
);
},
{
closed = 1;
nodes = (
(683,1110,o),
(838,1024,o),
(933,872,o),
(973,663,o),
(973,540,qs),
(973,417,o),
(933,208,o),
(838,56,o),
(683,-30,o),
(568,-30,qs),
(465,-30,o),
(286,54,o),
(155,205,o),
(80,415,o),
(80,540,qs),
(80,666,o),
(155,876,o),
(286,1026,o),
(465,1110,o),
(568,1110,qs)
);
},
{
closed = 1;
nodes = (
(563,856,o),
(465,810,o),
(400,726,o),
(368,610,o),
(368,540,qs),
(368,468,o),
(401,351,o),
(466,269,o),
(564,224,o),
(628,224,qs),
(695,224,o),
(792,270,o),
(855,353,o),
(886,470,o),
(886,540,qs),
(886,613,o),
(853,730,o),
(788,812,o),
(692,856,o),
(628,856,qs)
);
}
);
width = 1298;
},
{
layerId = "1AFB8506-DA78-41BC-86D2-7292AF872014";
shapes = (
{
closed = 1;
nodes = (
(1107,1440,l),
(1107,0,l),
(935,0,l),
(935,1440,l)
);
},
{
closed = 1;
nodes = (
(689,1110,o),
(856,1025,o),
(963,873,o),
(1013,664,o),
(1013,539,qs),
(1013,414,o),
(962,204,o),
(855,54,o),
(688,-30,o),
(571,-30,qs),
(459,-30,o),
(277,54,o),
(149,204,o),
(80,414,o),
(80,539,qs),
(80,666,o),
(150,877,o),
(278,1027,o),
(460,1110,o),
(571,1110,qs)
);
},
{
closed = 1;
nodes = (
(514,947,o),
(388,887,o),
(304,779,o),
(262,630,o),
(262,539,qs),
(262,447,o),
(304,297,o),
(389,191,o),
(515,133,o),
(599,133,qs),
(685,133,o),
(812,193,o),
(894,300,o),
(935,450,o),
(935,539,qs),
(935,632,o),
(892,782,o),
(808,889,o),
(682,947,o),
(599,947,qs)
);
}
);
width = 1247;
},
{
layerId = "D76E36A3-365E-47C5-869B-D9C6C556C4D0";
shapes = (
{
closed = 1;
nodes = (
(1062,1440,l),
(1062,0,l),
(978,0,l),
(978,1440,l)
);
},
{
closed = 1;
nodes = (
(694,1110,o),
(872,1026,o),
(990,874,o),
(1048,664,o),
(1048,538,qs),
(1048,411,o),
(988,201,o),
(869,52,o),
(692,-30,o),
(574,-30,qs),
(453,-30,o),
(269,54,o),
(144,204,o),
(80,413,o),
(80,538,qs),
(80,666,o),
(145,877,o),
(271,1027,o),
(455,1110,o),
(574,1110,qs)
);
},
{
closed = 1;
nodes = (
(472,1026,o),
(320,955,o),
(220,826,o),
(170,647,o),
(170,538,qs),
(170,428,o),
(220,249,o),
(321,123,o),
(473,54,o),
(574,54,qs),
(677,54,o),
(829,125,o),
(929,254,o),
(978,432,o),
(978,538,qs),
(978,648,o),
(927,828,o),
(825,956,o),
(674,1026,o),
(574,1026,qs)
);
}
);
width = 1202;
}
);
leftKerningGroup = c2;
rightKerningGroup = I;
unicode = 100;
},
{
glyphname = e;
layers = (
{
layerId = "9CE1DBE4-93A7-4D76-A027-A21376769114";
shapes = (
{
closed = 1;
nodes = (
(531,-30,o),
(434,-6,o),
(350,42,cs),
(265,89,o),
(199,155,o),
(152,239,cs),
(104,322,o),
(80,418,o),
(80,526,cs),
(80,644,o),
(103,747,o),
(150,834,cs),
(243,1009,o),
(413,1110,o),
(626,1110,cs),
(739,1110,o),
(836,1083,o),
(915,1030,cs),
(1074,923,o),
(1154,725,o),
(1131,464,c),
(862,464,l),
(862,564,ls),
(862,674,o),
(845,753,o),
(810,802,cs),
(775,850,o),
(717,874,o),
(638,874,cs),
(545,874,o),
(477,846,o),
(434,790,cs),
(390,733,o),
(368,650,o),
(368,540,cs),
(368,439,o),
(390,362,o),
(434,307,cs),
(477,252,o),
(541,224,o),
(626,224,cs),
(733,224,o),
(810,272,o),
(850,360,c),
(1122,282,l),
(1081,183,o),
(1017,107,o),
(930,52,cs),
(842,-3,o),
(746,-30,o),
(642,-30,cs)
);
},
{
closed = 1;
nodes = (
(284,464,l),
(284,666,l),
(1000,666,l),
(1000,464,l)
);
}
);
width = 1216;
},
{
layerId = "1AFB8506-DA78-41BC-86D2-7292AF872014";
shapes = (
{
closed = 1;
nodes = (
(500,-30,o),
(407,-7,o),
(329,40,cs),
(250,87,o),
(189,153,o),
(146,237,cs),
(102,321,o),
(80,421,o),
(80,533,cs),
(80,651,o),
(101,754,o),
(145,840,cs),
(230,1013,o),
(390,1110,o),
(598,1110,cs),
(706,1110,o),
(799,1085,o),
(874,1035,cs),
(1027,936,o),
(1107,747,o),
(1096,492,c),
(923,492,l),
(923,553,l),
(921,687,o),
(894,788,o),
(840,855,cs),
(787,922,o),
(708,955,o),
(604,955,cs),
(492,955,o),
(408,920,o),
(350,848,cs),
(291,776,o),
(262,673,o),
(262,540,cs),
(262,411,o),
(291,311,o),
(350,240,cs),
(408,169,o),
(490,133,o),
(598,133,cs),
(744,133,o),
(853,202,o),
(914,327,c),
(1078,269,l),
(1036,174,o),
(973,101,o),
(889,48,cs),
(805,-4,o),
(710,-30,o),
(606,-30,cs)
);
},
{
closed = 1;
nodes = (
(204,492,l),
(204,631,l),
(1007,631,l),
(1007,492,l)
);
}
);
width = 1179;
},
{
layerId = "D76E36A3-365E-47C5-869B-D9C6C556C4D0";
shapes = (
{
closed = 1;
nodes = (
(472,-30,o),
(384,-7,o),
(311,39,cs),
(237,85,o),
(180,151,o),
(140,236,cs),
(100,321,o),
(80,423,o),
(80,540,cs),
(80,658,o),
(100,760,o),
(140,845,cs),
(219,1016,o),
(369,1110,o),
(574,1110,cs),
(677,1110,o),
(766,1087,o),
(839,1040,cs),
(986,947,o),
(1066,767,o),
(1066,516,c),
(976,516,l),
(976,544,l),
(972,699,o),
(936,819,o),
(867,902,cs),
(798,985,o),
(700,1026,o),
(574,1026,cs),
(446,1026,o),
(347,984,o),
(276,899,cs),
(205,814,o),
(170,694,o),
(170,540,cs),
(170,386,o),
(205,267,o),
(276,182,cs),
(347,97,o),
(446,54,o),
(574,54,cs),
(753,54,o),
(890,141,o),
(970,298,c),
(1040,258,l),
(996,166,o),
(934,95,o),
(853,45,cs),
(772,-5,o),
(679,-30,o),
(574,-30,cs)
);
},
{
closed = 1;
nodes = (
(134,516,l),
(134,600,l),
(1014,600,l),
(1014,516,l)
);
}
);
width = 1146;
}
);
leftKerningGroup = c2;
rightKerningGroup = e;
unicode = 101;
},
{
glyphname = f;
layers = (
{
layerId = "9CE1DBE4-93A7-4D76-A027-A21376769114";
shapes = (
{
closed = 1;
nodes = (
(230,0,l),
(230,1076,ls),
(230,1373,o),
(318,1470,o),
(618,1470,cs),
(752,1470,l),
(752,1250,l),
(674,1250,ls),
(592,1250,o),
(502,1242,o),
(502,1140,cs),
(502,0,l)
);
},
{
closed = 1;
nodes = (
(60,870,l),
(60,1080,l),
(752,1080,l),
(752,870,l)
);
}
);
width = 772;
},
{
layerId = "1AFB8506-DA78-41BC-86D2-7292AF872014";
shapes = (
{
closed = 1;
nodes = (
(244,0,l),
(244,1143,ls),
(244,1377,o),
(329,1470,o),
(565,1470,cs),
(702,1470,l),
(702,1327,l),
(604,1327,ls),
(502,1327,o),
(416,1308,o),
(416,1169,cs),
(416,0,l)
);
},
{
closed = 1;
nodes = (
(60,937,l),
(60,1080,l),
(702,1080,l),
(702,937,l)
);
}
);
width = 722;
},
{
layerId = "D76E36A3-365E-47C5-869B-D9C6C556C4D0";
shapes = (
{
closed = 1;
nodes = (
(256,0,l),
(256,1202,ls),
(256,1380,o),
(338,1470,o),
(518,1470,cs),
(658,1470,l),
(658,1394,l),
(543,1394,ls),
(423,1394,o),
(340,1366,o),
(340,1194,cs),
(340,0,l)
);
},
{
closed = 1;
nodes = (
(60,996,l),
(60,1080,l),
(658,1080,l),
(658,996,l)
);
}
);
width = 678;
}
);
leftKerningGroup = f2;
rightKerningGroup = f;
unicode = 102;
},
{
glyphname = g;
layers = (
{
layerId = "9CE1DBE4-93A7-4D76-A027-A21376769114";
shapes = (
{
closed = 1;
nodes = (
(807,264,o),
(886,395,o),
(886,560,cs),
(886,723,o),
(805,856,o),
(628,856,cs),
(453,856,o),
(368,722,o),
(368,560,cs),
(368,396,o),
(451,264,o),
(628,264,cs)
);
},
{
closed = 1;
nodes = (
(904,1110,o),
(973,841,o),
(973,560,cs),
(973,279,o),
(904,10,o),
(568,10,cs),
(256,10,o),
(80,269,o),
(80,560,cs),
(80,852,o),
(255,1110,o),
(568,1110,cs)
);
},
{
closed = 1;
nodes = (
(1158,56,ls),
(1158,-275,o),
(958,-510,o),
(618,-510,cs),
(380,-510,o),
(172,-391,o),
(108,-152,c),
(386,-94,l),
(420,-205,o),
(504,-256,o),
(618,-256,cs),
(805,-256,o),
(886,-110,o),
(886,60,cs),
(886,1080,l),
(1158,1080,l)
);
}
);
width = 1298;
},
{
layerId = "1AFB8506-DA78-41BC-86D2-7292AF872014";
shapes = (
{
closed = 1;
nodes = (
(830,173,o),
(935,346,o),
(935,559,cs),
(935,771,o),
(830,947,o),
(599,947,cs),
(369,947,o),
(262,771,o),
(262,559,cs),
(262,345,o),
(367,173,o),
(599,173,cs)
);
},
{
closed = 1;
nodes = (
(903,1110,o),
(1013,850,o),
(1013,559,cs),
(1013,268,o),
(902,10,o),
(571,10,cs),
(252,10,o),
(80,259,o),
(80,559,cs),
(80,859,o),
(250,1110,o),
(571,1110,cs)
);
},
{
closed = 1;
nodes = (
(1107,58,ls),
(1107,-263,o),
(936,-510,o),
(595,-510,cs),
(379,-510,o),
(203,-405,o),
(125,-202,c),
(299,-156,l),
(350,-284,o),
(458,-347,o),
(595,-347,cs),
(838,-347,o),
(935,-159,o),
(935,60,cs),
(935,1080,l),
(1107,1080,l)
);
}
);
width = 1247;
},
{
layerId = "D76E36A3-365E-47C5-869B-D9C6C556C4D0";
shapes = (
{
closed = 1;
nodes = (
(850,94,o),
(978,303,o),
(978,558,cs),
(978,813,o),
(852,1026,o),
(574,1026,cs),
(295,1026,o),
(170,814,o),
(170,558,cs),
(170,300,o),
(294,94,o),
(574,94,cs)
);
},
{
closed = 1;
nodes = (
(902,1110,o),
(1048,858,o),
(1048,558,cs),
(1048,258,o),
(901,10,o),
(574,10,cs),
(248,10,o),
(80,251,o),
(80,558,cs),
(80,865,o),
(246,1110,o),
(574,1110,cs)
);
},
{
closed = 1;
nodes = (
(1062,60,ls),
(1062,-252,o),
(916,-510,o),
(574,-510,cs),
(379,-510,o),
(230,-418,o),
(140,-246,c),
(222,-210,l),
(289,-354,o),
(417,-426,o),
(574,-426,cs),
(866,-426,o),
(978,-202,o),
(978,60,cs),
(978,1080,l),
(1062,1080,l)
);
}
);
width = 1202;
}
);
leftKerningGroup = g2;
rightKerningGroup = g;
unicode = 103;
},
{
glyphname = h;
layers = (
{
layerId = "9CE1DBE4-93A7-4D76-A027-A21376769114";
shapes = (
{
closed = 1;
nodes = (
(876,0,l),
(876,510,ls),
(876,535,o),
(875,566,o),
(872,605,cs),
(869,643,o),
(861,681,o),
(847,720,cs),
(833,759,o),
(810,791,o),
(779,817,cs),
(747,843,o),
(702,856,o),
(644,856,cs),
(597,856,o),
(541,845,o),
(494,803,cs),
(447,761,o),
(414,683,o),
(414,548,c),
(258,622,l),
(258,707,o),
(275,787,o),
(310,862,cs),
(345,937,o),
(397,997,o),
(467,1043,cs),
(536,1089,o),
(624,1112,o),
(730,1112,cs),
(815,1112,o),
(884,1098,o),
(937,1069,cs),
(990,1040,o),
(1032,1004,o),
(1062,960,cs),
(1091,916,o),
(1112,870,o),
(1125,823,cs),
(1150,727,o),
(1152,642,o),
(1152,606,cs),
(1152,0,l)
);
},
{
closed = 1;
nodes = (
(138,0,l),
(138,1440,l),
(380,1440,l),
(380,700,l),
(414,700,l),
(414,0,l)
);
}
);
width = 1272;
},
{
layerId = "1AFB8506-DA78-41BC-86D2-7292AF872014";
shapes = (
{
closed = 1;
nodes = (
(911,0,l),
(911,543,ls),
(911,596,o),
(906,646,o),
(897,695,c),
(887,742,o),
(871,785,o),
(848,823,cs),
(825,861,o),
(795,890,o),
(757,912,cs),
(719,934,o),
(671,945,o),
(614,945,cs),
(522,945,o),
(447,913,o),
(394,851,cs),
(342,789,o),
(313,695,o),
(313,570,c),
(198,604,l),
(198,709,o),
(217,800,o),
(255,875,cs),
(293,950,o),
(346,1008,o),
(415,1048,cs),
(483,1088,o),
(563,1108,o),
(654,1108,cs),
(723,1108,o),
(782,1097,o),
(831,1075,cs),
(880,1054,o),
(922,1025,o),
(955,989,cs),
(987,953,o),
(1013,913,o),
(1032,868,cs),
(1070,779,o),
(1085,681,o),
(1085,596,cs),
(1085,0,l)
);
},
{
closed = 1;
nodes = (
(139,0,l),
(139,1440,l),
(294,1440,l),
(294,641,l),
(313,641,l),
(313,0,l)
);
}
);
width = 1205;
},
{
layerId = "D76E36A3-365E-47C5-869B-D9C6C556C4D0";
shapes = (
{
closed = 1;
nodes = (
(942,0,l),
(942,572,ls),
(942,649,o),
(934,716,o),
(919,773,cs),
(903,829,o),
(880,876,o),
(849,913,cs),
(818,950,o),
(781,977,o),
(738,995,cs),
(694,1013,o),
(644,1022,o),
(588,1022,cs),
(456,1022,o),
(364,973,o),
(307,893,cs),
(250,813,o),
(224,706,o),
(224,590,c),
(146,588,l),
(146,711,o),
(166,811,o),
(207,887,cs),
(248,962,o),
(302,1017,o),
(369,1052,cs),
(436,1087,o),
(509,1104,o),
(588,1104,cs),
(643,1104,o),
(693,1096,o),
(739,1081,cs),
(784,1066,o),
(825,1044,o),
(861,1015,cs),
(896,986,o),
(926,950,o),
(951,908,cs),
(1000,824,o),
(1026,716,o),
(1026,588,cs),
(1026,0,l)
);
},
{
closed = 1;
nodes = (
(140,0,l),
(140,1440,l),
(218,1440,l),
(218,590,l),
(224,590,l),
(224,0,l)
);
}
);
width = 1146;
}
);
leftKerningGroup = h2;
rightKerningGroup = h;
unicode = 104;
},
{
glyphname = j;
layers = (
{
layerId = "9CE1DBE4-93A7-4D76-A027-A21376769114";
shapes = (
{
closed = 1;
nodes = (
(-20,-480,l),
(-20,-226,l),
(28,-226,ls),
(90,-226,o),
(133,-212,o),
(156,-184,cs),
(179,-156,o),
(190,-116,o),
(190,-64,cs),
(190,1080,l),
(462,1080,l),
(462,-196,ls),
(462,-282,o),
(435,-351,o),
(382,-403,cs),
(328,-454,o),
(255,-480,o),
(164,-480,cs)
);
},
{
closed = 1;
nodes = (
(281,1191,o),
(243,1206,o),
(213,1237,cs),
(182,1268,o),
(167,1305,o),
(167,1349,cs),
(167,1394,o),
(182,1431,o),
(213,1462,cs),
(243,1492,o),
(281,1507,o),
(326,1507,cs),
(372,1507,o),
(410,1492,o),
(440,1462,cs),
(470,1431,o),
(485,1394,o),
(485,1349,cs),
(485,1305,o),
(470,1268,o),
(440,1237,cs),
(410,1206,o),
(372,1191,o),
(326,1191,cs)
);
}
);
width = 602;
},
{
layerId = "1AFB8506-DA78-41BC-86D2-7292AF872014";
shapes = (
{
closed = 1;
nodes = (
(-20,-480,l),
(-20,-316,l),
(39,-316,ls),
(90,-316,o),
(130,-303,o),
(158,-277,cs),
(185,-251,o),
(199,-210,o),
(199,-153,cs),
(199,1080,l),
(370,1080,l),
(370,-209,ls),
(370,-298,o),
(348,-365,o),
(303,-412,cs),
(258,-457,o),
(190,-480,o),
(101,-480,cs)
);
},
{
closed = 1;
nodes = (
(252,1251,o),
(225,1261,o),
(204,1283,c),
(181,1305,o),
(171,1332,o),
(171,1363,cs),
(171,1396,o),
(181,1422,o),
(204,1444,c),
(225,1466,o),
(252,1477,o),
(284,1477,cs),
(317,1477,o),
(344,1466,o),
(366,1444,cs),
(387,1422,o),
(398,1396,o),
(398,1363,cs),
(398,1332,o),
(387,1305,o),
(366,1283,cs),
(344,1261,o),
(317,1251,o),
(284,1251,cs)
);
}
);
width = 521;
},
{
layerId = "D76E36A3-365E-47C5-869B-D9C6C556C4D0";
shapes = (
{
closed = 1;
nodes = (
(-20,-480,l),
(-20,-394,l),
(48,-394,ls),
(90,-394,o),
(127,-382,o),
(159,-359,c),
(190,-335,o),
(206,-292,o),
(206,-230,cs),
(206,1080,l),
(290,1080,l),
(290,-220,ls),
(290,-312,o),
(271,-378,o),
(234,-419,cs),
(196,-460,o),
(133,-480,o),
(46,-480,cs)
);
},
{
closed = 1;
nodes = (
(227,1303,o),
(210,1310,o),
(196,1324,cs),
(181,1338,o),
(174,1355,o),
(174,1376,cs),
(174,1397,o),
(181,1415,o),
(196,1429,cs),
(210,1443,o),
(227,1450,o),
(248,1450,cs),
(269,1450,o),
(286,1443,o),
(301,1429,cs),
(315,1415,o),
(322,1397,o),
(322,1376,cs),
(322,1355,o),
(315,1338,o),
(301,1324,cs),
(286,1310,o),
(269,1303,o),
(248,1303,cs)
);
}
);
width = 450;
}
);
leftKerningGroup = j;
unicode = 106;
},
{
glyphname = k;
layers = (
{
layerId = "9CE1DBE4-93A7-4D76-A027-A21376769114";
shapes = (
{
closed = 1;
nodes = (
(138,0,l),
(140,1440,l),
(396,1440,l),
(396,0,l)
);
},
{
closed = 1;
nodes = (
(787,1080,l),
(1104,1080,l),
(269,225,l),
(269,563,l)
);
},
{
closed = 1;
nodes = (
(406,591,l),
(582,743,l),
(1137,0,l),
(847,0,l)
);
}
);
width = 1104;
},
{
layerId = "1AFB8506-DA78-41BC-86D2-7292AF872014";
shapes = (
{
closed = 1;
nodes = (
(139,0,l),
(140,1440,l),
(304,1440,l),
(304,0,l)
);
},
{
closed = 1;
nodes = (
(780,1080,l),
(990,1080,l),
(219,330,l),
(219,544,l)
);
},
{
closed = 1;
nodes = (
(347,591,l),
(467,691,l),
(1017,0,l),
(819,0,l)
);
}
);
width = 1014;
},
{
layerId = "D76E36A3-365E-47C5-869B-D9C6C556C4D0";
shapes = (
{
closed = 1;
nodes = (
(140,0,l),
(140,1440,l),
(224,1440,l),
(224,0,l)
);
},
{
closed = 1;
nodes = (
(774,1080,l),
(890,1080,l),
(176,421,l),
(176,528,l)
);
},
{
closed = 1;
nodes = (
(295,591,l),
(366,646,l),
(912,0,l),
(795,0,l)
);
}
);
width = 936;
}
);
leftKerningGroup = k2;
rightKerningGroup = k;
unicode = 107;
},
{
glyphname = l;
layers = (
{
layerId = "9CE1DBE4-93A7-4D76-A027-A21376769114";
shapes = (
{
closed = 1;
nodes = (
(630,0,l),
(508,0,ls),
(423,0,o),
(348,18,o),
(290,54,cs),
(232,90,o),
(191,146,o),
(172,219,cs),
(164,250,o),
(160,282,o),
(160,318,cs),
(160,1440,l),
(432,1440,l),
(432,467,ls),
(432,439,o),
(431,412,o),
(431,385,c),
(432,345,o),
(436,309,o),
(455,283,cs),
(474,257,o),
(506,240,o),
(562,240,cs),
(585,240,o),
(607,240,o),
(630,240,c)
);
}
);
width = 670;
},
{
layerId = "1AFB8506-DA78-41BC-86D2-7292AF872014";
shapes = (
{
closed = 1;
nodes = (
(536,0,l),
(451,0,ls),
(372,0,o),
(304,21,o),
(255,60,cs),
(206,99,o),
(174,158,o),
(166,231,cs),
(162,261,o),
(160,291,o),
(160,323,cs),
(160,1440,l),
(332,1440,l),
(332,461,ls),
(332,416,o),
(331,371,o),
(331,327,c),
(332,276,o),
(338,236,o),
(357,209,cs),
(375,182,o),
(405,165,o),
(453,161,c),
(478,158,o),
(505,157,o),
(536,157,c)
);
}
);
width = 581;
},
{
layerId = "D76E36A3-365E-47C5-869B-D9C6C556C4D0";
shapes = (
{
closed = 1;
nodes = (
(454,0,l),
(401,0,ls),
(328,0,o),
(266,24,o),
(225,65,cs),
(184,106,o),
(160,168,o),
(160,241,cs),
(160,270,o),
(160,298,o),
(160,327,cs),
(160,1440,l),
(244,1440,l),
(244,455,ls),
(244,395,o),
(244,336,o),
(244,276,cs),
(244,216,o),
(253,173,o),
(271,145,cs),
(289,116,o),
(317,99,o),
(357,91,cs),
(384,86,o),
(415,84,o),
(454,84,c)
);
}
);
width = 504;
}
);
leftKerningGroup = i2;
rightKerningGroup = i;
unicode = 108;
},
{
glyphname = m;
layers = (
{
layerId = "9CE1DBE4-93A7-4D76-A027-A21376769114";
shapes = (
{
closed = 1;
nodes = (
(1440,0,l),
(1440,638,ls),
(1440,709,o),
(1423,765,o),
(1390,805,c),
(1356,844,o),
(1309,864,o),
(1250,864,cs),
(1212,864,o),
(1179,855,o),
(1151,838,cs),
(1123,820,o),
(1101,795,o),
(1086,764,cs),
(1070,732,o),
(1062,695,o),
(1062,654,c),
(948,730,l),
(948,804,o),
(966,869,o),
(1001,926,cs),
(1071,1039,o),
(1194,1106,o),
(1338,1106,cs),
(1461,1106,o),
(1555,1070,o),
(1618,997,cs),
(1681,924,o),
(1712,828,o),
(1712,710,cs),
(1712,0,l)
);
},
{
closed = 1;
nodes = (
(138,0,l),
(138,1080,l),
(378,1080,l),
(378,722,l),
(412,722,l),
(412,0,l)
);
},
{
closed = 1;
nodes = (
(790,0,l),
(790,638,ls),
(790,709,o),
(773,765,o),
(740,805,c),
(706,844,o),
(659,864,o),
(600,864,cs),
(543,864,o),
(498,845,o),
(464,806,cs),
(429,767,o),
(412,716,o),
(412,654,c),
(298,734,l),
(298,805,o),
(316,868,o),
(351,924,cs),
(422,1036,o),
(546,1106,o),
(694,1106,cs),
(779,1106,o),
(848,1088,o),
(903,1052,cs),
(1011,980,o),
(1062,854,o),
(1062,710,cs),
(1062,0,l)
);
}
);
width = 1832;
},
{
layerId = "1AFB8506-DA78-41BC-86D2-7292AF872014";
shapes = (
{
closed = 1;
nodes = (
(1430,0,l),
(1431,695,l),
(1431,776,o),
(1410,840,o),
(1366,886,cs),
(1322,931,o),
(1265,955,o),
(1197,955,cs),
(1156,955,o),
(1118,945,o),
(1082,927,cs),
(1045,909,o),
(1015,879,o),
(993,840,c),
(969,801,o),
(957,750,o),
(957,688,c),
(865,724,l),
(863,800,o),
(879,867,o),
(912,925,cs),
(978,1041,o),
(1097,1108,o),
(1241,1108,cs),
(1353,1108,o),
(1441,1074,o),
(1507,1006,cs),
(1571,938,o),
(1603,846,o),
(1603,731,c),
(1602,0,l)
);
},
{
closed = 1;
nodes = (
(139,0,l),
(139,1080,l),
(293,1080,l),
(293,796,l),
(312,796,l),
(312,0,l)
);
},
{
closed = 1;
nodes = (
(786,0,l),
(787,687,l),
(787,770,o),
(765,835,o),
(722,883,cs),
(679,931,o),
(621,955,o),
(550,955,cs),
(478,955,o),
(421,930,o),
(378,882,cs),
(334,833,o),
(312,768,o),
(312,688,c),
(219,743,l),
(219,812,o),
(236,875,o),
(269,930,cs),
(336,1040,o),
(454,1108,o),
(599,1108,cs),
(671,1108,o),
(734,1093,o),
(788,1063,cs),
(895,1001,o),
(957,885,o),
(957,728,c),
(956,0,l)
);
}
);
width = 1723;
},
{
layerId = "D76E36A3-365E-47C5-869B-D9C6C556C4D0";
shapes = (
{
closed = 1;
nodes = (
(1422,0,l),
(1424,744,ls),
(1424,834,o),
(1398,905,o),
(1345,957,cs),
(1292,1008,o),
(1227,1034,o),
(1150,1034,cs),
(1107,1034,o),
(1064,1024,o),
(1021,1005,cs),
(977,986,o),
(940,953,o),
(911,907,cs),
(881,861,o),
(866,798,o),
(866,718,c),
(792,718,l),
(789,797,o),
(803,866,o),
(834,925,cs),
(896,1042,o),
(1012,1110,o),
(1156,1110,cs),
(1258,1110,o),
(1342,1078,o),
(1409,1014,cs),
(1475,950,o),
(1508,862,o),
(1508,750,cs),
(1506,0,l)
);
},
{
closed = 1;
nodes = (
(140,0,l),
(140,1080,l),
(218,1080,l),
(218,860,l),
(224,860,l),
(224,0,l)
);
},
{
closed = 1;
nodes = (
(782,0,l),
(784,730,ls),
(784,823,o),
(758,897,o),
(707,952,cs),
(655,1007,o),
(588,1034,o),
(506,1034,cs),
(422,1034,o),
(354,1005,o),
(302,948,cs),
(250,891,o),
(224,814,o),
(224,718,c),
(150,750,l),
(150,819,o),
(166,881,o),
(197,936,cs),
(260,1044,o),
(373,1110,o),
(516,1110,cs),
(577,1110,o),
(634,1097,o),
(687,1072,cs),
(794,1020,o),
(866,913,o),
(866,744,cs),
(864,0,l)
);
}
);
width = 1628;
}
);
leftKerningGroup = m2;
rightKerningGroup = m;
unicode = 109;
},
{
glyphname = n;
layers = (
{
layerId = "9CE1DBE4-93A7-4D76-A027-A21376769114";
shapes = (
{
closed = 1;
nodes = (
(876,0,l),
(876,510,ls),
(876,535,o),
(875,566,o),
(872,605,cs),
(869,643,o),
(861,681,o),
(847,720,cs),
(833,759,o),
(810,791,o),
(779,817,cs),
(747,843,o),
(702,856,o),
(644,856,cs),
(597,856,o),
(541,845,o),
(494,803,cs),
(447,761,o),
(414,683,o),
(414,548,c),
(258,622,l),
(258,707,o),
(275,787,o),
(310,862,cs),
(345,937,o),
(397,997,o),
(467,1043,cs),
(536,1089,o),
(624,1112,o),
(730,1112,cs),
(815,1112,o),
(884,1098,o),
(937,1069,cs),
(990,1040,o),
(1032,1004,o),
(1062,960,cs),
(1091,916,o),
(1112,870,o),
(1125,823,cs),
(1150,727,o),
(1152,642,o),
(1152,606,cs),
(1152,0,l)
);
},
{
closed = 1;
nodes = (
(138,0,l),
(138,1080,l),
(380,1080,l),
(380,722,l),
(414,722,l),
(414,0,l)
);
}
);
width = 1272;
},
{
layerId = "1AFB8506-DA78-41BC-86D2-7292AF872014";
shapes = (
{
closed = 1;
nodes = (
(911,0,l),
(911,543,ls),
(911,596,o),
(906,646,o),
(897,695,c),
(887,742,o),
(871,785,o),
(848,823,cs),
(825,861,o),
(795,890,o),
(757,912,cs),
(719,934,o),
(671,945,o),
(614,945,cs),
(522,945,o),
(447,913,o),
(394,851,cs),
(342,789,o),
(313,695,o),
(313,570,c),
(198,604,l),
(198,709,o),
(217,800,o),
(255,875,cs),
(293,950,o),
(346,1008,o),
(415,1048,cs),
(483,1088,o),
(563,1108,o),
(654,1108,cs),
(723,1108,o),
(782,1097,o),
(831,1075,cs),
(880,1054,o),
(922,1025,o),
(955,989,cs),
(987,953,o),
(1013,913,o),
(1032,868,cs),
(1070,779,o),
(1085,681,o),
(1085,596,cs),
(1085,0,l)
);
},
{
closed = 1;
nodes = (
(139,0,l),
(139,1080,l),
(294,1080,l),
(294,796,l),
(313,796,l),
(313,0,l)
);
}
);
width = 1205;
},
{
layerId = "D76E36A3-365E-47C5-869B-D9C6C556C4D0";
shapes = (
{
closed = 1;
nodes = (
(942,0,l),
(942,572,ls),
(942,649,o),
(934,716,o),
(919,773,cs),
(903,829,o),
(880,876,o),
(849,913,cs),
(818,950,o),
(781,977,o),
(738,995,cs),
(694,1013,o),
(644,1022,o),
(588,1022,cs),
(456,1022,o),
(364,973,o),
(307,893,cs),
(250,813,o),
(224,706,o),
(224,590,c),
(146,588,l),
(146,711,o),
(166,811,o),
(207,887,cs),
(248,962,o),
(302,1017,o),
(369,1052,cs),
(436,1087,o),
(509,1104,o),
(588,1104,cs),
(643,1104,o),
(693,1096,o),
(739,1081,cs),
(784,1066,o),
(825,1044,o),
(861,1015,cs),
(896,986,o),
(926,950,o),
(951,908,cs),
(1000,824,o),
(1026,716,o),
(1026,588,cs),
(1026,0,l)
);
},
{
closed = 1;
nodes = (
(140,0,l),
(140,1080,l),
(218,1080,l),
(218,860,l),
(224,860,l),
(224,0,l)
);
}
);
width = 1146;
}
);
leftKerningGroup = m2;
rightKerningGroup = m;
unicode = 110;
},
{
glyphname = o;
layers = (
{
layerId = "9CE1DBE4-93A7-4D76-A027-A21376769114";
shapes = (
{
closed = 1;
nodes = (
(517,-30,o),
(422,-6,o),
(340,43,cs),
(176,140,o),
(80,317,o),
(80,540,cs),
(80,653,o),
(103,752,o),
(150,838,cs),
(243,1009,o),
(413,1110,o),
(626,1110,cs),
(735,1110,o),
(830,1086,o),
(913,1037,cs),
(1077,940,o),
(1174,763,o),
(1174,540,cs),
(1174,428,o),
(1151,329,o),
(1105,244,cs),
(1058,158,o),
(994,91,o),
(912,43,cs),
(829,-6,o),
(734,-30,o),
(626,-30,cs)
);
},
{
closed = 1;
nodes = (
(713,224,o),
(779,254,o),
(822,313,cs),
(865,372,o),
(886,447,o),
(886,540,cs),
(886,636,o),
(864,713,o),
(821,770,cs),
(777,827,o),
(712,856,o),
(626,856,cs),
(567,856,o),
(518,843,o),
(480,816,cs),
(404,763,o),
(368,665,o),
(368,540,cs),
(368,443,o),
(390,367,o),
(434,310,cs),
(477,253,o),
(541,224,o),
(626,224,cs)
);
}
);
width = 1254;
},
{
layerId = "1AFB8506-DA78-41BC-86D2-7292AF872014";
shapes = (
{
closed = 1;
nodes = (
(490,-30,o),
(398,-6,o),
(321,43,cs),
(166,140,o),
(80,318,o),
(80,541,cs),
(80,654,o),
(101,754,o),
(144,839,cs),
(228,1010,o),
(387,1110,o),
(598,1110,cs),
(706,1110,o),
(799,1086,o),
(877,1038,cs),
(1032,941,o),
(1117,764,o),
(1117,541,cs),
(1117,428,o),
(1097,328,o),
(1055,243,cs),
(1013,157,o),
(953,90,o),
(876,42,cs),
(798,-6,o),
(705,-30,o),
(598,-30,cs)
);
},
{
closed = 1;
nodes = (
(711,133,o),
(796,171,o),
(852,247,cs),
(908,323,o),
(935,420,o),
(935,541,cs),
(935,664,o),
(907,763,o),
(851,837,cs),
(795,910,o),
(710,947,o),
(598,947,cs),
(522,947,o),
(459,929,o),
(410,895,cs),
(310,826,o),
(262,700,o),
(262,541,cs),
(262,417,o),
(291,319,o),
(348,245,cs),
(404,171,o),
(488,133,o),
(598,133,cs)
);
}
);
width = 1197;
},
{
layerId = "D76E36A3-365E-47C5-869B-D9C6C556C4D0";
shapes = (
{
closed = 1;
nodes = (
(467,-30,o),
(377,-6,o),
(304,43,cs),
(157,140,o),
(80,318,o),
(80,542,cs),
(80,655,o),
(99,755,o),
(138,840,cs),
(215,1011,o),
(365,1110,o),
(574,1110,cs),
(681,1110,o),
(772,1086,o),
(845,1038,cs),
(992,941,o),
(1068,765,o),
(1068,542,cs),
(1068,428,o),
(1049,328,o),
(1011,243,cs),
(973,157,o),
(917,90,o),
(844,42,cs),
(770,-6,o),
(680,-30,o),
(574,-30,cs)
);
},
{
closed = 1;
nodes = (
(710,54,o),
(811,99,o),
(878,190,cs),
(945,280,o),
(978,397,o),
(978,542,cs),
(978,689,o),
(945,807,o),
(878,895,cs),
(811,982,o),
(709,1026,o),
(574,1026,cs),
(483,1026,o),
(407,1005,o),
(348,964,cs),
(228,881,o),
(170,731,o),
(170,542,cs),
(170,395,o),
(204,277,o),
(273,188,cs),
(341,99,o),
(441,54,o),
(574,54,cs)
);
}
);
width = 1148;
}
);
leftKerningGroup = c2;
rightKerningGroup = b;
unicode = 111;
},
{
glyphname = p;
layers = (
{
layerId = "9CE1DBE4-93A7-4D76-A027-A21376769114";
shapes = (
{
closed = 1;
nodes = (
(140,-480,l),
(140,1080,l),
(412,1080,l),
(412,-480,l)
);
},
{
closed = 1;
nodes = (
(615,-30,o),
(460,56,o),
(365,208,o),
(325,417,o),
(325,540,qs),
(325,663,o),
(365,872,o),
(460,1024,o),
(615,1110,o),
(730,1110,qs),
(834,1110,o),
(1012,1026,o),
(1143,875,o),
(1218,665,o),
(1218,540,qs),
(1218,414,o),
(1143,204,o),
(1012,54,o),
(834,-30,o),
(730,-30,qs)
);
},
{
closed = 1;
nodes = (
(735,224,o),
(833,270,o),
(898,354,o),
(930,470,o),
(930,540,qs),
(930,612,o),
(897,729,o),
(832,811,o),
(735,856,o),
(670,856,qs),
(603,856,o),
(506,810,o),
(443,727,o),
(412,611,o),
(412,540,qs),
(412,467,o),
(445,350,o),
(510,268,o),
(606,224,o),
(670,224,qs)
);
}
);
width = 1298;
},
{
layerId = "1AFB8506-DA78-41BC-86D2-7292AF872014";
shapes = (
{
closed = 1;
nodes = (
(140,-480,l),
(140,1080,l),
(312,1080,l),
(312,-480,l)
);
},
{
closed = 1;
nodes = (
(558,-30,o),
(391,55,o),
(283,207,o),
(234,416,o),
(234,541,qs),
(234,667,o),
(284,876,o),
(392,1026,o),
(559,1110,o),
(676,1110,qs),
(789,1110,o),
(970,1026,o),
(1098,876,o),
(1167,666,o),
(1167,541,qs),
(1167,414,o),
(1097,203,o),
(969,53,o),
(788,-30,o),
(676,-30,qs)
);
},
{
closed = 1;
nodes = (
(732,133,o),
(859,193,o),
(943,301,o),
(984,450,o),
(984,541,qs),
(984,633,o),
(942,783,o),
(858,889,o),
(732,947,o),
(648,947,qs),
(561,947,o),
(435,887,o),
(352,780,o),
(312,631,o),
(312,541,qs),
(312,448,o),
(354,298,o),
(439,191,o),
(564,133,o),
(648,133,qs)
);
}
);
width = 1247;
},
{
layerId = "D76E36A3-365E-47C5-869B-D9C6C556C4D0";
shapes = (
{
closed = 1;
nodes = (
(140,-480,l),
(140,1080,l),
(224,1080,l),
(224,-480,l)
);
},
{
closed = 1;
nodes = (
(508,-30,o),
(330,54,o),
(212,206,o),
(154,416,o),
(154,542,qs),
(154,670,o),
(214,879,o),
(333,1028,o),
(510,1110,o),
(628,1110,qs),
(749,1110,o),
(933,1026,o),
(1058,876,o),
(1122,667,o),
(1122,542,qs),
(1122,414,o),
(1057,203,o),
(931,53,o),
(747,-30,o),
(628,-30,qs)
);
},
{
closed = 1;
nodes = (
(730,54,o),
(882,125,o),
(982,254,o),
(1032,433,o),
(1032,542,qs),
(1032,652,o),
(982,831,o),
(881,957,o),
(729,1026,o),
(628,1026,qs),
(525,1026,o),
(373,955,o),
(273,826,o),
(224,649,o),
(224,542,qs),
(224,432,o),
(275,252,o),
(377,124,o),
(528,54,o),
(628,54,qs)
);
}
);
width = 1202;
}
);
leftKerningGroup = m2;
rightKerningGroup = b;
unicode = 112;
},
{
glyphname = q;
layers = (
{
layerId = "9CE1DBE4-93A7-4D76-A027-A21376769114";
shapes = (
{
closed = 1;
nodes = (
(1158,-480,l),
(886,-480,l),
(886,1080,l),
(1158,1080,l)
);
},
{
closed = 1;
nodes = (
(465,-30,o),
(286,54,o),
(155,204,o),
(80,414,o),
(80,540,qs),
(80,665,o),
(155,875,o),
(286,1026,o),
(465,1110,o),
(568,1110,qs),
(683,1110,o),
(838,1024,o),
(933,872,o),
(973,663,o),
(973,540,qs),
(973,417,o),
(933,208,o),
(838,56,o),
(683,-30,o),
(568,-30,qs)
);
},
{
closed = 1;
nodes = (
(692,224,o),
(788,268,o),
(853,350,o),
(886,467,o),
(886,540,qs),
(886,611,o),
(855,727,o),
(792,810,o),
(695,856,o),
(628,856,qs),
(564,856,o),
(466,811,o),
(401,729,o),
(368,612,o),
(368,540,qs),
(368,470,o),
(400,354,o),
(465,270,o),
(563,224,o),
(628,224,qs)
);
}
);
width = 1298;
},
{
layerId = "1AFB8506-DA78-41BC-86D2-7292AF872014";
shapes = (
{
closed = 1;
nodes = (
(1107,-480,l),
(935,-480,l),
(935,1080,l),
(1107,1080,l)
);
},
{
closed = 1;
nodes = (
(460,-30,o),
(278,53,o),
(150,203,o),
(80,414,o),
(80,541,qs),
(80,666,o),
(149,876,o),
(277,1026,o),
(459,1110,o),
(571,1110,qs),
(688,1110,o),
(855,1026,o),
(962,876,o),
(1013,667,o),
(1013,541,qs),
(1013,416,o),
(963,207,o),
(856,55,o),
(689,-30,o),
(571,-30,qs)
);
},
{
closed = 1;
nodes = (
(682,133,o),
(808,191,o),
(892,298,o),
(935,448,o),
(935,541,qs),
(935,631,o),
(894,780,o),
(812,887,o),
(685,947,o),
(599,947,qs),
(515,947,o),
(389,889,o),
(304,783,o),
(262,633,o),
(262,541,qs),
(262,450,o),
(304,301,o),
(388,193,o),
(514,133,o),
(599,133,qs)
);
}
);
width = 1247;
},
{
layerId = "D76E36A3-365E-47C5-869B-D9C6C556C4D0";
shapes = (
{
closed = 1;
nodes = (
(1062,-480,l),
(978,-480,l),
(978,1080,l),
(1062,1080,l)
);
},
{
closed = 1;
nodes = (
(455,-30,o),
(271,53,o),
(145,203,o),
(80,414,o),
(80,542,qs),
(80,667,o),
(144,876,o),
(269,1026,o),
(453,1110,o),
(574,1110,qs),
(692,1110,o),
(869,1028,o),
(988,879,o),
(1048,670,o),
(1048,542,qs),
(1048,416,o),
(990,206,o),
(872,54,o),
(694,-30,o),
(574,-30,qs)
);
},
{
closed = 1;
nodes = (
(674,54,o),
(825,124,o),
(927,252,o),
(978,432,o),
(978,542,qs),
(978,649,o),
(929,826,o),
(829,955,o),
(677,1026,o),
(574,1026,qs),
(473,1026,o),
(321,957,o),
(220,831,o),
(170,652,o),
(170,542,qs),
(170,433,o),
(220,254,o),
(320,125,o),
(472,54,o),
(574,54,qs)
);
}
);
width = 1202;
}
);
leftKerningGroup = B2;
unicode = 113;
},
{
glyphname = r;
layers = (
{
layerId = "9CE1DBE4-93A7-4D76-A027-A21376769114";
shapes = (
{
closed = 1;
nodes = (
(140,0,l),
(140,1080,l),
(380,1080,l),
(380,816,l),
(354,850,l),
(400,973,o),
(509,1100,o),
(645,1100,cs),
(705,1100,o),
(819,1087,o),
(871,1058,c),
(774,823,l),
(749,843,o),
(712,863,o),
(680,863,cs),
(615,863,o),
(557,830,o),
(511,781,cs),
(452,718,o),
(414,629,o),
(414,552,cs),
(414,0,l)
);
}
);
width = 821;
},
{
layerId = "1AFB8506-DA78-41BC-86D2-7292AF872014";
shapes = (
{
closed = 1;
nodes = (
(140,0,l),
(140,1080,l),
(294,1080,l),
(294,819,l),
(268,853,l),
(317,983,o),
(424,1100,o),
(567,1100,cs),
(621,1100,o),
(709,1090,o),
(754,1060,c),
(692,910,l),
(662,933,o),
(621,949,o),
(583,949,cs),
(521,949,o),
(464,912,o),
(419,868,cs),
(333,784,o),
(313,652,o),
(313,541,cs),
(313,0,l)
);
}
);
width = 741;
},
{
layerId = "D76E36A3-365E-47C5-869B-D9C6C556C4D0";
shapes = (
{
closed = 1;
nodes = (
(140,0,l),
(140,1080,l),
(218,1080,l),
(218,822,l),
(192,856,l),
(245,991,o),
(350,1100,o),
(499,1100,cs),
(547,1100,o),
(613,1092,o),
(651,1061,c),
(620,987,l),
(585,1011,o),
(542,1024,o),
(499,1024,cs),
(439,1024,o),
(382,984,o),
(338,944,cs),
(228,842,o),
(224,672,o),
(224,532,cs),
(224,0,l)
);
}
);
width = 671;
}
);
leftKerningGroup = r2;
rightKerningGroup = r;
unicode = 114;
},
{
glyphname = s;
layers = (
{
layerId = "9CE1DBE4-93A7-4D76-A027-A21376769114";
shapes = (
{
closed = 1;
nodes = (
(426,-30,o),
(316,1,o),
(233,63,cs),
(149,124,o),
(98,211,o),
(80,324,c),
(358,366,l),
(369,315,o),
(395,276,o),
(434,247,cs),
(473,218,o),
(522,204,o),
(582,204,cs),
(631,204,o),
(669,214,o),
(696,233,cs),
(723,252,o),
(736,278,o),
(736,312,cs),
(736,333,o),
(731,351,o),
(720,364,cs),
(709,377,o),
(686,389,o),
(649,402,cs),
(612,415,o),
(554,431,o),
(476,452,cs),
(388,475,o),
(318,500,o),
(265,528,cs),
(160,584,o),
(116,659,o),
(116,770,cs),
(116,839,o),
(134,900,o),
(169,951,cs),
(240,1053,o),
(371,1110,o),
(546,1110,cs),
(631,1110,o),
(706,1097,o),
(771,1071,cs),
(902,1019,o),
(985,921,o),
(1004,790,c),
(726,740,l),
(721,780,o),
(704,812,o),
(674,835,cs),
(644,858,o),
(603,872,o),
(552,876,cs),
(502,879,o),
(462,873,o),
(432,856,cs),
(401,839,o),
(386,815,o),
(386,784,cs),
(386,765,o),
(393,750,o),
(406,737,cs),
(419,724,o),
(446,711,o),
(487,698,cs),
(528,685,o),
(590,667,o),
(674,646,cs),
(756,625,o),
(822,600,o),
(872,572,cs),
(971,515,o),
(1014,438,o),
(1014,326,cs),
(1014,215,o),
(974,128,o),
(894,65,cs),
(814,2,o),
(703,-30,o),
(562,-30,cs)
);
}
);
width = 1094;
},
{
layerId = "1AFB8506-DA78-41BC-86D2-7292AF872014";
shapes = (
{
closed = 1;
nodes = (
(419,-29,o),
(313,-1,o),
(231,56,cs),
(149,111,o),
(99,189,o),
(80,290,c),
(256,318,l),
(270,258,o),
(305,212,o),
(359,177,cs),
(412,142,o),
(478,125,o),
(557,125,cs),
(633,125,o),
(692,141,o),
(735,172,cs),
(778,203,o),
(800,246,o),
(800,300,cs),
(800,331,o),
(793,357,o),
(779,376,cs),
(764,396,o),
(736,413,o),
(692,430,cs),
(647,448,o),
(581,467,o),
(492,491,cs),
(396,517,o),
(321,543,o),
(266,571,cs),
(156,625,o),
(114,693,o),
(114,796,cs),
(114,858,o),
(131,914,o),
(166,961,cs),
(235,1056,o),
(362,1110,o),
(528,1110,cs),
(610,1110,o),
(683,1097,o),
(748,1071,cs),
(876,1018,o),
(959,921,o),
(974,794,c),
(799,762,l),
(789,821,o),
(761,868,o),
(713,902,cs),
(664,936,o),
(602,954,o),
(527,956,cs),
(456,958,o),
(399,946,o),
(354,917,cs),
(309,889,o),
(287,851,o),
(287,804,cs),
(287,777,o),
(295,755,o),
(312,736,cs),
(328,717,o),
(359,699,o),
(403,682,cs),
(448,665,o),
(513,646,o),
(597,625,cs),
(693,600,o),
(769,574,o),
(825,546,cs),
(935,489,o),
(978,416,o),
(978,305,cs),
(978,201,o),
(939,119,o),
(863,60,cs),
(787,1,o),
(681,-29,o),
(547,-29,cs)
);
}
);
width = 1059;
},
{
layerId = "D76E36A3-365E-47C5-869B-D9C6C556C4D0";
shapes = (
{
closed = 1;
nodes = (
(412,-28,o),
(311,-3,o),
(230,49,cs),
(149,100,o),
(99,170,o),
(80,260,c),
(166,276,l),
(184,209,o),
(226,156,o),
(293,116,cs),
(359,76,o),
(440,56,o),
(536,56,cs),
(634,56,o),
(712,77,o),
(770,119,cs),
(827,161,o),
(856,218,o),
(856,290,cs),
(856,329,o),
(847,362,o),
(830,387,cs),
(813,412,o),
(779,434,o),
(729,455,cs),
(678,476,o),
(604,499,o),
(506,526,cs),
(403,554,o),
(324,581,o),
(267,608,cs),
(153,660,o),
(112,722,o),
(112,818,cs),
(112,875,o),
(129,926,o),
(163,970,cs),
(231,1058,o),
(355,1110,o),
(512,1110,cs),
(591,1110,o),
(663,1097,o),
(727,1071,cs),
(854,1018,o),
(936,921,o),
(948,798,c),
(862,782,l),
(849,857,o),
(811,917,o),
(747,961,cs),
(682,1004,o),
(602,1026,o),
(506,1026,cs),
(416,1027,o),
(343,1009,o),
(286,971,cs),
(229,933,o),
(200,883,o),
(200,822,cs),
(200,788,o),
(210,759,o),
(229,735,cs),
(248,710,o),
(282,688,o),
(330,668,cs),
(378,648,o),
(445,627,o),
(530,606,cs),
(638,579,o),
(722,551,o),
(783,523,cs),
(903,467,o),
(946,397,o),
(946,286,cs),
(946,188,o),
(909,111,o),
(836,56,cs),
(763,0,o),
(662,-28,o),
(534,-28,cs)
);
}
);
width = 1028;
}
);
leftKerningGroup = s2;
rightKerningGroup = s;
unicode = 115;
},
{
glyphname = t;
layers = (
{
layerId = "9CE1DBE4-93A7-4D76-A027-A21376769114";
shapes = (
{
closed = 1;
nodes = (
(788,0,l),
(713,-14,o),
(640,-20,o),
(569,-19,cs),
(425,-15,o),
(307,29,o),
(248,134,cs),
(221,183,o),
(207,234,o),
(206,285,cs),
(205,336,o),
(204,393,o),
(204,458,cs),
(204,1380,l),
(476,1380,l),
(476,474,ls),
(476,432,o),
(477,394,o),
(478,361,cs),
(479,327,o),
(485,300,o),
(498,280,cs),
(522,242,o),
(560,221,o),
(613,218,cs),
(666,215,o),
(724,217,o),
(788,226,c)
);
},
{
closed = 1;
nodes = (
(20,870,l),
(20,1080,l),
(788,1080,l),
(788,870,l)
);
}
);
width = 888;
},
{
layerId = "1AFB8506-DA78-41BC-86D2-7292AF872014";
shapes = (
{
closed = 1;
nodes = (
(740,0,l),
(676,-13,o),
(614,-18,o),
(552,-16,cs),
(429,-11,o),
(327,32,o),
(278,130,cs),
(257,171,o),
(245,214,o),
(244,258,cs),
(242,301,o),
(241,349,o),
(241,405,cs),
(241,1380,l),
(413,1380,l),
(413,412,ls),
(413,367,o),
(414,330,o),
(415,299,cs),
(416,268,o),
(422,241,o),
(435,218,cs),
(459,175,o),
(497,150,o),
(550,142,cs),
(602,135,o),
(665,136,o),
(740,148,c)
);
},
{
closed = 1;
nodes = (
(20,937,l),
(20,1080,l),
(740,1080,l),
(740,937,l)
);
}
);
width = 819;
},
{
layerId = "D76E36A3-365E-47C5-869B-D9C6C556C4D0";
shapes = (
{
closed = 1;
nodes = (
(698,0,l),
(644,-12,o),
(591,-17,o),
(538,-14,cs),
(433,-8,o),
(345,35,o),
(304,126,cs),
(288,161,o),
(279,197,o),
(277,234,cs),
(275,270,o),
(274,311,o),
(274,358,cs),
(274,1380,l),
(358,1380,l),
(358,358,ls),
(358,311,o),
(359,274,o),
(360,245,cs),
(361,216,o),
(367,189,o),
(380,164,cs),
(404,116,o),
(442,87,o),
(494,76,cs),
(546,65,o),
(614,66,o),
(698,80,c)
);
},
{
closed = 1;
nodes = (
(20,996,l),
(20,1080,l),
(698,1080,l),
(698,996,l)
);
}
);
width = 758;
}
);
leftKerningGroup = t2;
rightKerningGroup = t;
unicode = 116;
},
{
glyphname = u;
layers = (
{
layerId = "9CE1DBE4-93A7-4D76-A027-A21376769114";
shapes = (
{
closed = 1;
nodes = (
(457,-32,o),
(388,-18,o),
(335,11,cs),
(282,40,o),
(240,76,o),
(211,120,cs),
(181,164,o),
(160,210,o),
(147,258,cs),
(122,353,o),
(120,438,o),
(120,474,cs),
(120,1080,l),
(396,1080,l),
(396,570,ls),
(396,545,o),
(397,514,o),
(400,476,cs),
(403,437,o),
(411,399,o),
(425,360,cs),
(439,321,o),
(462,289,o),
(494,263,cs),
(525,237,o),
(570,224,o),
(628,224,cs),
(675,224,o),
(731,236,o),
(778,278,cs),
(825,320,o),
(858,399,o),
(858,532,c),
(1014,458,l),
(1014,373,o),
(997,293,o),
(962,218,cs),
(927,143,o),
(875,83,o),
(806,37,cs),
(736,-9,o),
(648,-32,o),
(542,-32,cs)
);
},
{
closed = 1;
nodes = (
(892,0,l),
(892,358,l),
(858,358,l),
(858,1080,l),
(1132,1080,l),
(1132,0,l)
);
}
);
width = 1272;
},
{
layerId = "1AFB8506-DA78-41BC-86D2-7292AF872014";
shapes = (
{
closed = 1;
nodes = (
(482,-28,o),
(423,-17,o),
(374,5,cs),
(325,26,o),
(283,55,o),
(251,91,cs),
(218,127,o),
(192,167,o),
(173,212,cs),
(135,301,o),
(120,399,o),
(120,484,cs),
(120,1080,l),
(294,1080,l),
(294,537,ls),
(294,484,o),
(298,435,o),
(308,386,cs),
(318,338,o),
(334,296,o),
(357,258,cs),
(380,220,o),
(410,190,o),
(449,168,cs),
(486,146,o),
(534,135,o),
(591,135,cs),
(683,135,o),
(758,167,o),
(811,229,cs),
(863,292,o),
(892,386,o),
(892,510,c),
(1007,476,l),
(1007,371,o),
(988,280,o),
(950,205,cs),
(912,130,o),
(859,72,o),
(791,32,cs),
(723,-8,o),
(642,-28,o),
(551,-28,cs)
);
},
{
closed = 1;
nodes = (
(911,0,l),
(911,284,l),
(892,284,l),
(892,1080,l),
(1065,1080,l),
(1065,0,l)
);
}
);
width = 1205;
},
{
layerId = "D76E36A3-365E-47C5-869B-D9C6C556C4D0";
shapes = (
{
closed = 1;
nodes = (
(503,-24,o),
(453,-16,o),
(408,-1,cs),
(362,14,o),
(321,37,o),
(286,66,cs),
(250,95,o),
(220,130,o),
(195,172,cs),
(146,256,o),
(120,364,o),
(120,492,cs),
(120,1080,l),
(204,1080,l),
(204,508,ls),
(204,431,o),
(212,365,o),
(228,308,cs),
(243,251,o),
(266,205,o),
(297,168,cs),
(328,131,o),
(365,103,o),
(409,85,cs),
(452,67,o),
(502,58,o),
(558,58,cs),
(690,58,o),
(782,107,o),
(839,187,cs),
(896,267,o),
(922,374,o),
(922,490,c),
(1000,492,l),
(1000,369,o),
(980,269,o),
(939,194,cs),
(898,118,o),
(845,63,o),
(778,28,cs),
(711,-7,o),
(637,-24,o),
(558,-24,cs)
);
},
{
closed = 1;
nodes = (
(928,0,l),
(928,220,l),
(922,220,l),
(922,1080,l),
(1006,1080,l),
(1006,0,l)
);
}
);
width = 1146;
}
);
leftKerningGroup = u;
rightKerningGroup = I;
unicode = 117;
},
{
glyphname = v;
layers = (
{
layerId = "9CE1DBE4-93A7-4D76-A027-A21376769114";
shapes = (
{
closed = 1;
nodes = (
(432,0,l),
(40,1080,l),
(312,1080,l),
(568,332,l),
(824,1080,l),
(1096,1080,l),
(704,0,l)
);
}
);
width = 1136;
},
{
layerId = "1AFB8506-DA78-41BC-86D2-7292AF872014";
shapes = (
{
closed = 1;
nodes = (
(432,0,l),
(40,1080,l),
(214,1080,l),
(520,220,l),
(825,1080,l),
(1000,1080,l),
(608,0,l)
);
}
);
width = 1040;
},
{
layerId = "D76E36A3-365E-47C5-869B-D9C6C556C4D0";
shapes = (
{
closed = 1;
nodes = (
(432,0,l),
(40,1080,l),
(128,1080,l),
(478,122,l),
(826,1080,l),
(916,1080,l),
(524,0,l)
);
}
);
width = 956;
}
);
leftKerningGroup = v2;
rightKerningGroup = v;
unicode = 118;
},
{
glyphname = w;
layers = (
{
layerId = "9CE1DBE4-93A7-4D76-A027-A21376769114";
shapes = (
{
closed = 1;
nodes = (
(370,0,l),
(40,1082,l),
(306,1080,l),
(502,436,l),
(701,1080,l),
(927,1080,l),
(1126,436,l),
(1322,1080,l),
(1588,1080,l),
(1258,0,l),
(1050,0,l),
(814,704,l),
(578,0,l)
);
}
);
width = 1628;
},
{
layerId = "1AFB8506-DA78-41BC-86D2-7292AF872014";
shapes = (
{
closed = 1;
nodes = (
(370,0,l),
(40,1081,l),
(211,1080,l),
(455,280,l),
(700,1080,l),
(853,1080,l),
(1098,280,l),
(1343,1080,l),
(1513,1080,l),
(1183,0,l),
(1039,0,l),
(777,829,l),
(514,0,l)
);
}
);
width = 1553;
},
{
layerId = "D76E36A3-365E-47C5-869B-D9C6C556C4D0";
shapes = (
{
closed = 1;
nodes = (
(370,0,l),
(40,1080,l),
(128,1080,l),
(414,144,l),
(700,1080,l),
(788,1080,l),
(1074,144,l),
(1362,1080,l),
(1448,1080,l),
(1118,0,l),
(1030,0,l),
(744,938,l),
(458,0,l)
);
}
);
width = 1488;
}
);
leftKerningGroup = v2;
rightKerningGroup = v;
unicode = 119;
},
{
glyphname = x;
layers = (
{
layerId = "9CE1DBE4-93A7-4D76-A027-A21376769114";
shapes = (
{
closed = 1;
nodes = (
(20,0,l),
(406,546,l),
(28,1080,l),
(348,1080,l),
(564,760,l),
(776,1080,l),
(1096,1080,l),
(718,546,l),
(1106,0,l),
(786,0,l),
(564,332,l),
(340,0,l)
);
}
);
width = 1126;
},
{
layerId = "1AFB8506-DA78-41BC-86D2-7292AF872014";
shapes = (
{
closed = 1;
nodes = (
(20,0,l),
(435,546,l),
(29,1080,l),
(234,1080,l),
(535,679,l),
(834,1080,l),
(1038,1080,l),
(633,546,l),
(1048,0,l),
(843,0,l),
(535,413,l),
(226,0,l)
);
}
);
width = 1068;
},
{
layerId = "D76E36A3-365E-47C5-869B-D9C6C556C4D0";
shapes = (
{
closed = 1;
nodes = (
(20,0,l),
(460,546,l),
(30,1080,l),
(134,1080,l),
(510,608,l),
(884,1080,l),
(988,1080,l),
(558,546,l),
(998,0,l),
(892,0,l),
(510,484,l),
(126,0,l)
);
}
);
width = 1018;
}
);
leftKerningGroup = x2;
rightKerningGroup = x;
unicode = 120;
},
{
glyphname = y;
layers = (
{
layerId = "9CE1DBE4-93A7-4D76-A027-A21376769114";
shapes = (
{
closed = 1;
nodes = (
(80,1080,l),
(352,1080,l),
(608,332,l),
(864,1080,l),
(1136,1080,l),
(744,0,ls),
(636,-299,o),
(593,-480,o),
(230,-480,cs),
(152,-480,l),
(152,-242,l),
(204,-242,ls),
(390,-242,o),
(407,-160,o),
(472,0,c)
);
}
);
width = 1176;
},
{
layerId = "1AFB8506-DA78-41BC-86D2-7292AF872014";
shapes = (
{
closed = 1;
nodes = (
(80,1080,l),
(254,1080,l),
(560,220,l),
(865,1080,l),
(1040,1080,l),
(648,0,ls),
(561,-242,o),
(514,-475,o),
(207,-475,cs),
(139,-475,l),
(139,-323,l),
(190,-323,ls),
(385,-323,o),
(410,-158,o),
(472,0,c)
);
}
);
width = 1080;
},
{
layerId = "D76E36A3-365E-47C5-869B-D9C6C556C4D0";
shapes = (
{
closed = 1;
nodes = (
(80,1080,l),
(168,1080,l),
(518,122,l),
(866,1080,l),
(956,1080,l),
(564,0,ls),
(495,-193,o),
(445,-470,o),
(187,-470,cs),
(127,-470,l),
(127,-394,l),
(177,-394,ls),
(380,-394,o),
(413,-156,o),
(472,0,c)
);
}
);
width = 996;
}
);
leftKerningGroup = y2;
rightKerningGroup = y;
unicode = 121;
},
{
glyphname = z;
layers = (
{
layerId = "9CE1DBE4-93A7-4D76-A027-A21376769114";
shapes = (
{
closed = 1;
nodes = (
(40,0,l),
(40,34,l),
(570,844,l),
(100,844,l),
(100,1080,l),
(990,1080,l),
(990,1046,l),
(462,236,l),
(970,236,l),
(970,0,l)
);
}
);
width = 1070;
},
{
layerId = "1AFB8506-DA78-41BC-86D2-7292AF872014";
shapes = (
{
closed = 1;
nodes = (
(40,0,l),
(40,32,l),
(703,923,l),
(94,923,l),
(94,1080,l),
(981,1080,l),
(981,1046,l),
(319,157,l),
(947,157,l),
(947,0,l)
);
}
);
width = 1061;
},
{
layerId = "D76E36A3-365E-47C5-869B-D9C6C556C4D0";
shapes = (
{
closed = 1;
nodes = (
(40,0,l),
(40,30,l),
(820,992,l),
(88,992,l),
(88,1080,l),
(974,1080,l),
(974,1046,l),
(194,88,l),
(926,88,l),
(926,0,l)
);
}
);
width = 1054;
}
);
leftKerningGroup = z2;
rightKerningGroup = z;
unicode = 122;
},
{
glyphname = braceleft;
layers = (
{
layerId = "9CE1DBE4-93A7-4D76-A027-A21376769114";
shapes = (
{
closed = 1;
nodes = (
(696,-420,ls),
(604,-420,o),
(532,-394,o),
(480,-342,cs),
(428,-290,o),
(402,-218,o),
(402,-126,cs),
(402,458,ls),
(402,471,o),
(399,481,o),
(392,490,cs),
(302,618,l),
(273,662,o),
(273,718,o),
(302,762,c),
(392,890,ls),
(399,901,o),
(402,912,o),
(402,922,cs),
(402,1506,ls),
(402,1597,o),
(428,1669,o),
(480,1722,cs),
(532,1774,o),
(604,1800,o),
(696,1800,cs),
(838,1800,l),
(838,1544,l),
(716,1544,ls),
(700,1544,o),
(686,1538,o),
(675,1527,cs),
(664,1516,o),
(658,1502,o),
(658,1486,cs),
(658,922,ls),
(658,857,o),
(639,797,o),
(600,742,cs),
(562,690,l),
(600,638,ls),
(639,583,o),
(658,523,o),
(658,458,cs),
(658,-106,ls),
(658,-123,o),
(664,-137,o),
(675,-149,cs),
(686,-160,o),
(700,-166,o),
(716,-166,cs),
(838,-166,l),
(838,-420,l)
);
}
);
width = 918;
},
{
layerId = "1AFB8506-DA78-41BC-86D2-7292AF872014";
shapes = (
{
closed = 1;
nodes = (
(645,-433,ls),
(571,-433,o),
(512,-410,o),
(466,-364,cs),
(419,-318,o),
(396,-258,o),
(396,-185,cs),
(396,454,ls),
(396,473,o),
(391,491,o),
(380,507,cs),
(294,628,l),
(276,656,o),
(276,693,o),
(294,720,c),
(380,841,l),
(391,858,o),
(396,876,o),
(396,894,cs),
(396,1532,ls),
(396,1605,o),
(419,1665,o),
(466,1712,cs),
(512,1758,o),
(571,1781,o),
(645,1781,cs),
(769,1781,l),
(769,1617,l),
(655,1617,ls),
(629,1617,o),
(607,1607,o),
(588,1589,cs),
(570,1571,o),
(560,1548,o),
(560,1522,cs),
(560,894,ls),
(560,840,o),
(545,791,o),
(513,746,cs),
(461,674,l),
(513,602,ls),
(545,557,o),
(560,508,o),
(560,454,cs),
(560,-175,ls),
(560,-201,o),
(570,-223,o),
(588,-242,c),
(607,-260,o),
(629,-269,o),
(655,-269,cs),
(769,-269,l),
(769,-433,l)
);
}
);
width = 855;
},
{
layerId = "D76E36A3-365E-47C5-869B-D9C6C556C4D0";
shapes = (
{
closed = 1;
nodes = (
(601,-444,ls),
(543,-444,o),
(494,-424,o),
(453,-383,cs),
(412,-342,o),
(391,-293,o),
(391,-236,cs),
(391,450,ls),
(391,475,o),
(384,499,o),
(369,522,c),
(287,636,l),
(278,651,o),
(278,671,o),
(287,684,cs),
(369,798,l),
(384,821,o),
(391,845,o),
(391,870,cs),
(391,1554,ls),
(391,1612,o),
(412,1662,o),
(453,1703,cs),
(494,1744,o),
(543,1764,o),
(601,1764,cs),
(709,1764,l),
(709,1680,l),
(601,1680,ls),
(566,1680,o),
(537,1668,o),
(512,1644,cs),
(487,1619,o),
(475,1589,o),
(475,1554,cs),
(475,870,ls),
(475,825,o),
(462,785,o),
(437,750,cs),
(373,660,l),
(437,570,ls),
(462,535,o),
(475,495,o),
(475,450,cs),
(475,-236,ls),
(475,-270,o),
(487,-299,o),
(512,-324,cs),
(537,-348,o),
(566,-360,o),
(601,-360,cs),
(709,-360,l),
(709,-444,l)
);
}
);
width = 799;
}
);
leftKerningGroup = parenleft2;
rightKerningGroup = parenleft;
unicode = 123;
},
{
glyphname = bar;
layers = (
{
layerId = "9CE1DBE4-93A7-4D76-A027-A21376769114";
shapes = (
{
closed = 1;
nodes = (
(180,0,l),
(180,1440,l),
(452,1440,l),
(452,0,l)
);
}
);
width = 632;
},
{
layerId = "1AFB8506-DA78-41BC-86D2-7292AF872014";
shapes = (
{
closed = 1;
nodes = (
(180,0,l),
(180,1440,l),
(352,1440,l),
(352,0,l)
);
}
);
width = 532;
},
{
layerId = "D76E36A3-365E-47C5-869B-D9C6C556C4D0";
shapes = (
{
closed = 1;
nodes = (
(180,0,l),
(180,1440,l),
(264,1440,l),
(264,0,l)
);
}
);
width = 444;
}
);
leftKerningGroup = B2;
unicode = 124;
},
{
glyphname = braceright;
layers = (
{
layerId = "9CE1DBE4-93A7-4D76-A027-A21376769114";
shapes = (
{
closed = 1;
nodes = (
(80,-420,l),
(80,-166,l),
(202,-166,ls),
(218,-166,o),
(232,-160,o),
(243,-149,cs),
(254,-137,o),
(260,-123,o),
(260,-106,cs),
(260,458,ls),
(260,523,o),
(279,583,o),
(318,638,cs),
(356,690,l),
(318,742,ls),
(279,797,o),
(260,857,o),
(260,922,cs),
(260,1486,ls),
(260,1502,o),
(254,1516,o),
(243,1527,cs),
(232,1538,o),
(218,1544,o),
(202,1544,cs),
(80,1544,l),
(80,1800,l),
(222,1800,ls),
(314,1800,o),
(386,1774,o),
(438,1722,cs),
(490,1669,o),
(516,1597,o),
(516,1506,cs),
(516,922,ls),
(516,912,o),
(519,901,o),
(526,890,cs),
(616,762,l),
(645,718,o),
(645,662,o),
(616,618,c),
(526,490,ls),
(519,481,o),
(516,471,o),
(516,458,cs),
(516,-126,ls),
(516,-218,o),
(490,-290,o),
(438,-342,cs),
(386,-394,o),
(314,-420,o),
(222,-420,cs)
);
}
);
width = 918;
},
{
layerId = "1AFB8506-DA78-41BC-86D2-7292AF872014";
shapes = (
{
closed = 1;
nodes = (
(85,-433,l),
(85,-269,l),
(200,-269,ls),
(226,-269,o),
(248,-260,o),
(266,-242,cs),
(285,-223,o),
(294,-201,o),
(294,-175,cs),
(294,454,ls),
(294,508,o),
(310,557,o),
(341,602,cs),
(393,674,l),
(341,746,ls),
(310,791,o),
(294,840,o),
(294,894,cs),
(294,1522,ls),
(294,1548,o),
(285,1571,o),
(266,1589,cs),
(248,1607,o),
(226,1617,o),
(200,1617,cs),
(85,1617,l),
(85,1781,l),
(209,1781,ls),
(283,1781,o),
(343,1758,o),
(389,1712,cs),
(436,1665,o),
(458,1605,o),
(458,1532,cs),
(458,894,ls),
(458,876,o),
(464,858,o),
(475,841,c),
(561,720,l),
(579,693,o),
(579,656,o),
(561,628,c),
(475,507,ls),
(464,491,o),
(458,473,o),
(458,454,cs),
(458,-185,ls),
(458,-258,o),
(436,-318,o),
(389,-364,cs),
(343,-410,o),
(283,-433,o),
(209,-433,cs)
);
}
);
width = 855;
},
{
layerId = "D76E36A3-365E-47C5-869B-D9C6C556C4D0";
shapes = (
{
closed = 1;
nodes = (
(90,-444,l),
(90,-360,l),
(198,-360,ls),
(233,-360,o),
(262,-348,o),
(287,-324,cs),
(312,-299,o),
(324,-270,o),
(324,-236,cs),
(324,450,ls),
(324,495,o),
(337,535,o),
(362,570,cs),
(426,660,l),
(362,750,ls),
(337,785,o),
(324,825,o),
(324,870,cs),
(324,1554,ls),
(324,1589,o),
(312,1619,o),
(287,1644,cs),
(262,1668,o),
(233,1680,o),
(198,1680,cs),
(90,1680,l),
(90,1764,l),
(198,1764,ls),
(256,1764,o),
(306,1744,o),
(347,1703,cs),
(388,1662,o),
(408,1612,o),
(408,1554,cs),
(408,870,ls),
(408,845,o),
(415,821,o),
(430,798,c),
(512,684,ls),
(521,671,o),
(521,651,o),
(512,636,c),
(430,522,l),
(415,499,o),
(408,475,o),
(408,450,cs),
(408,-236,ls),
(408,-293,o),
(388,-342,o),
(347,-383,cs),
(306,-424,o),
(256,-444,o),
(198,-444,cs)
);
}
);
width = 799;
}
);
leftKerningGroup = parenright2;
rightKerningGroup = parenright;
unicode = 125;
},
{
glyphname = asciitilde;
layers = (
{
layerId = "9CE1DBE4-93A7-4D76-A027-A21376769114";
shapes = (
{
closed = 1;
nodes = (
(884,390,o),
(800,439,o),
(725,494,cs),
(687,521,o),
(652,546,o),
(619,567,cs),
(586,588,o),
(555,599,o),
(528,599,cs),
(500,599,o),
(480,583,o),
(469,552,cs),
(458,520,o),
(459,480,o),
(472,432,c),
(235,432,l),
(215,514,o),
(211,588,o),
(223,655,cs),
(246,787,o),
(334,872,o),
(491,872,cs),
(583,872,o),
(667,823,o),
(743,768,cs),
(819,712,o),
(884,663,o),
(940,663,cs),
(968,663,o),
(988,679,o),
(999,711,cs),
(1010,742,o),
(1009,782,o),
(996,830,c),
(1233,830,l),
(1252,748,o),
(1256,674,o),
(1245,608,cs),
(1222,475,o),
(1135,390,o),
(976,390,cs)
);
}
);
width = 1468;
},
{
layerId = "1AFB8506-DA78-41BC-86D2-7292AF872014";
shapes = (
{
closed = 1;
nodes = (
(812,451,o),
(735,491,o),
(664,536,c),
(628,557,o),
(595,577,o),
(563,595,c),
(531,611,o),
(501,620,o),
(473,620,cs),
(438,620,o),
(415,605,o),
(404,577,c),
(394,547,o),
(394,514,o),
(406,478,c),
(241,478,l),
(226,539,o),
(225,595,o),
(237,645,cs),
(262,744,o),
(337,808,o),
(457,808,cs),
(540,808,o),
(617,768,o),
(689,723,cs),
(760,678,o),
(824,638,o),
(880,638,cs),
(912,638,o),
(934,652,o),
(947,682,cs),
(959,710,o),
(959,744,o),
(947,784,c),
(1111,784,l),
(1126,723,o),
(1128,668,o),
(1116,618,cs),
(1092,517,o),
(1017,451,o),
(894,451,cs)
);
}
);
width = 1353;
},
{
layerId = "D76E36A3-365E-47C5-869B-D9C6C556C4D0";
shapes = (
{
closed = 1;
nodes = (
(749,504,o),
(678,536,o),
(611,572,c),
(577,589,o),
(545,605,o),
(514,619,cs),
(483,632,o),
(453,639,o),
(424,639,cs),
(383,639,o),
(358,625,o),
(348,598,cs),
(338,570,o),
(338,543,o),
(348,518,c),
(247,518,l),
(236,561,o),
(237,601,o),
(250,636,cs),
(276,707,o),
(340,752,o),
(427,752,cs),
(502,752,o),
(574,720,o),
(642,684,cs),
(709,648,o),
(771,616,o),
(828,616,cs),
(863,616,o),
(887,629,o),
(901,656,cs),
(914,682,o),
(915,711,o),
(904,743,c),
(1005,743,l),
(1016,701,o),
(1016,662,o),
(1003,626,cs),
(978,553,o),
(913,504,o),
(822,504,cs)
);
}
);
width = 1252;
}
);
leftKerningGroup = B2;
unicode = 126;
},
{
glyphname = exclamdown;
layers = (
{
layerId = "9CE1DBE4-93A7-4D76-A027-A21376769114";
shapes = (
{
closed = 1;
nodes = (
(421,1102,o),
(459,1087,o),
(489,1056,cs),
(520,1025,o),
(535,988,o),
(535,944,cs),
(535,899,o),
(520,862,o),
(489,831,cs),
(459,801,o),
(421,786,o),
(376,786,cs),
(330,786,o),
(292,801,o),
(262,831,cs),
(232,862,o),
(217,899,o),
(217,944,cs),
(217,988,o),
(232,1025,o),
(262,1056,cs),
(292,1087,o),
(330,1102,o),
(376,1102,cs)
);
},
{
closed = 1;
nodes = (
(492,660,l),
(520,247,l),
(520,-360,l),
(232,-360,l),
(232,247,l),
(260,660,l)
);
}
);
width = 752;
},
{
layerId = "1AFB8506-DA78-41BC-86D2-7292AF872014";
shapes = (
{
closed = 1;
nodes = (
(358,1093,o),
(385,1083,o),
(406,1060,c),
(429,1038,o),
(440,1012,o),
(440,981,cs),
(440,949,o),
(429,922,o),
(406,900,c),
(385,878,o),
(358,868,o),
(326,868,cs),
(293,868,o),
(266,878,o),
(244,900,cs),
(223,922,o),
(212,949,o),
(212,981,cs),
(212,1013,o),
(223,1039,o),
(244,1061,cs),
(266,1083,o),
(293,1093,o),
(326,1093,cs)
);
},
{
closed = 1;
nodes = (
(391,692,l),
(415,265,l),
(415,-360,l),
(236,-360,l),
(236,265,l),
(255,692,l)
);
}
);
width = 652;
},
{
layerId = "D76E36A3-365E-47C5-869B-D9C6C556C4D0";
shapes = (
{
closed = 1;
nodes = (
(303,1086,o),
(320,1079,o),
(334,1064,c),
(349,1050,o),
(356,1033,o),
(356,1013,cs),
(356,992,o),
(349,974,o),
(334,960,cs),
(320,946,o),
(303,939,o),
(282,939,cs),
(261,939,o),
(244,946,o),
(229,960,cs),
(215,974,o),
(208,992,o),
(208,1013,cs),
(208,1034,o),
(215,1051,o),
(229,1065,cs),
(244,1079,o),
(261,1086,o),
(282,1086,cs)
);
},
{
closed = 1;
nodes = (
(302,720,l),
(324,280,l),
(324,-360,l),
(240,-360,l),
(240,280,l),
(250,720,l)
);
}
);
width = 564;
}
);
leftKerningGroup = B2;
unicode = 161;
},
{
glyphname = cent;
layers = (
{
layerId = "9CE1DBE4-93A7-4D76-A027-A21376769114";
shapes = (
{
closed = 1;
nodes = (
(524,-58,l),
(524,126,l),
(431,140,o),
(351,173,o),
(285,225,cs),
(152,329,o),
(80,494,o),
(80,690,cs),
(80,788,o),
(98,877,o),
(134,957,cs),
(206,1116,o),
(341,1224,o),
(524,1252,c),
(524,1440,l),
(734,1440,l),
(734,1250,l),
(831,1232,o),
(913,1193,o),
(978,1132,cs),
(1043,1071,o),
(1086,994,o),
(1106,900,c),
(834,828,l),
(818,884,o),
(790,928,o),
(751,959,cs),
(711,990,o),
(666,1006,o),
(616,1006,cs),
(559,1006,o),
(512,992,o),
(475,965,cs),
(402,909,o),
(368,810,o),
(368,690,cs),
(368,596,o),
(389,520,o),
(431,462,cs),
(472,403,o),
(534,374,o),
(616,374,cs),
(739,374,o),
(796,432,o),
(828,536,c),
(1106,478,l),
(1054,286,o),
(922,166,o),
(734,130,c),
(734,-58,l)
);
}
);
width = 1166;
},
{
layerId = "1AFB8506-DA78-41BC-86D2-7292AF872014";
shapes = (
{
closed = 1;
nodes = (
(529,-59,l),
(529,124,l),
(433,134,o),
(352,164,o),
(286,214,cs),
(153,316,o),
(82,483,o),
(80,690,c),
(81,795,o),
(99,888,o),
(135,970,cs),
(205,1133,o),
(339,1236,o),
(529,1255,c),
(529,1440,l),
(672,1440,l),
(672,1254,l),
(765,1242,o),
(846,1210,o),
(914,1157,cs),
(981,1103,o),
(1028,1034,o),
(1054,949,c),
(884,897,l),
(861,960,o),
(823,1010,o),
(772,1044,cs),
(720,1079,o),
(660,1097,o),
(594,1097,cs),
(518,1097,o),
(457,1079,o),
(408,1045,cs),
(310,975,o),
(264,848,o),
(262,690,c),
(263,568,o),
(292,470,o),
(347,395,cs),
(402,320,o),
(484,283,o),
(594,283,cs),
(736,283,o),
(831,350,o),
(880,474,c),
(1054,428,l),
(985,253,o),
(853,149,o),
(672,126,c),
(672,-59,l)
);
}
);
width = 1119;
},
{
layerId = "D76E36A3-365E-47C5-869B-D9C6C556C4D0";
shapes = (
{
closed = 1;
nodes = (
(534,-60,l),
(534,122,l),
(435,128,o),
(353,156,o),
(286,205,cs),
(153,304,o),
(84,474,o),
(80,690,c),
(82,801,o),
(100,898,o),
(135,981,cs),
(204,1147,o),
(338,1246,o),
(534,1258,c),
(534,1440,l),
(618,1440,l),
(618,1258,l),
(708,1251,o),
(788,1225,o),
(858,1178,cs),
(927,1131,o),
(977,1069,o),
(1008,992,c),
(928,958,l),
(898,1027,o),
(852,1081,o),
(790,1119,cs),
(727,1157,o),
(655,1176,o),
(574,1176,cs),
(483,1176,o),
(408,1156,o),
(349,1115,cs),
(230,1033,o),
(173,882,o),
(170,690,c),
(172,543,o),
(207,426,o),
(274,337,cs),
(341,248,o),
(441,204,o),
(574,204,cs),
(733,204,o),
(861,279,o),
(926,420,c),
(1008,384,l),
(924,224,o),
(793,134,o),
(618,122,c),
(618,-60,l)
);
}
);
width = 1078;
}
);
leftKerningGroup = xi;
rightKerningGroup = c;
unicode = 162;
},
{
glyphname = sterling;
layers = (
{
layerId = "9CE1DBE4-93A7-4D76-A027-A21376769114";
shapes = (
{
closed = 1;
nodes = (
(456,188,l),
(515,247,o),
(536,331,o),
(536,412,cs),
(536,616,o),
(417,798,o),
(417,1002,cs),
(417,1161,o),
(534,1214,o),
(675,1214,cs),
(811,1214,o),
(921,1129,o),
(951,996,c),
(1245,1046,l),
(1173,1327,o),
(964,1468,o),
(679,1468,cs),
(369,1468,o),
(131,1336,o),
(131,999,cs),
(131,792,o),
(251,606,o),
(251,429,cs),
(251,359,o),
(228,299,o),
(173,254,c)
);
},
{
closed = 1;
nodes = (
(80,0,l),
(1189,0,l),
(1189,254,l),
(80,254,l)
);
},
{
closed = 1;
nodes = (
(80,580,l),
(972,580,l),
(972,834,l),
(80,834,l)
);
}
);
width = 1325;
},
{
layerId = "1AFB8506-DA78-41BC-86D2-7292AF872014";
shapes = (
{
closed = 1;
nodes = (
(373,126,l),
(441,185,o),
(462,277,o),
(462,364,cs),
(462,597,o),
(323,805,o),
(323,1034,cs),
(323,1223,o),
(471,1305,o),
(642,1305,cs),
(823,1305,o),
(980,1202,o),
(1010,1016,c),
(1192,1048,l),
(1143,1319,o),
(918,1469,o),
(651,1469,cs),
(368,1469,o),
(141,1338,o),
(141,1031,cs),
(141,798,o),
(284,591,o),
(284,371,cs),
(284,283,o),
(254,212,o),
(178,163,c)
);
},
{
closed = 1;
nodes = (
(69,0,l),
(1157,0,l),
(1157,163,l),
(69,163,l)
);
},
{
closed = 1;
nodes = (
(77,628,l),
(934,628,l),
(934,791,l),
(77,791,l)
);
}
);
width = 1262;
},
{
layerId = "D76E36A3-365E-47C5-869B-D9C6C556C4D0";
shapes = (
{
closed = 1;
nodes = (
(300,71,l),
(376,131,o),
(398,230,o),
(398,322,cs),
(398,581,o),
(240,812,o),
(240,1062,cs),
(240,1278,o),
(415,1385,o),
(614,1385,cs),
(834,1385,o),
(1032,1265,o),
(1062,1034,c),
(1146,1050,l),
(1117,1312,o),
(877,1470,o),
(626,1470,cs),
(367,1470,o),
(150,1340,o),
(150,1059,cs),
(150,804,o),
(313,578,o),
(313,321,cs),
(313,217,o),
(277,136,o),
(183,84,c)
);
},
{
closed = 1;
nodes = (
(60,0,l),
(1129,0,l),
(1129,84,l),
(60,84,l)
);
},
{
closed = 1;
nodes = (
(74,670,l),
(900,670,l),
(900,754,l),
(74,754,l)
);
}
);
width = 1206;
}
);
leftKerningGroup = B2;
unicode = 163;
},
{
glyphname = currency;
layers = (
{
layerId = "9CE1DBE4-93A7-4D76-A027-A21376769114";
shapes = (
{
closed = 1;
nodes = (
(536,196,o),
(406,254,o),
(310,351,cs),
(214,447,o),
(156,577,o),
(156,722,cs),
(156,866,o),
(214,996,o),
(310,1092,cs),
(406,1188,o),
(536,1246,o),
(680,1246,cs),
(825,1246,o),
(955,1188,o),
(1052,1092,cs),
(1148,996,o),
(1206,866,o),
(1206,722,cs),
(1206,577,o),
(1148,447,o),
(1052,351,cs),
(955,254,o),
(825,196,o),
(680,196,cs)
);
},
{
closed = 1;
nodes = (
(240,100,l),
(60,280,l),
(314,534,l),
(496,354,l)
);
},
{
closed = 1;
nodes = (
(314,904,l),
(60,1158,l),
(240,1340,l),
(494,1086,l)
);
},
{
closed = 1;
nodes = (
(1120,100,l),
(866,354,l),
(1046,534,l),
(1300,280,l)
);
},
{
closed = 1;
nodes = (
(735,424,o),
(784,438,o),
(829,465,cs),
(874,492,o),
(909,528,o),
(936,573,cs),
(963,618,o),
(976,667,o),
(976,720,cs),
(976,775,o),
(963,824,o),
(936,869,cs),
(909,914,o),
(873,949,o),
(828,976,cs),
(783,1003,o),
(733,1016,o),
(680,1016,cs),
(625,1016,o),
(576,1003,o),
(531,976,cs),
(486,949,o),
(451,914,o),
(424,869,cs),
(397,824,o),
(384,775,o),
(384,720,cs),
(384,667,o),
(397,618,o),
(424,573,cs),
(451,528,o),
(486,492,o),
(531,465,cs),
(576,438,o),
(625,424,o),
(680,424,cs)
);
},
{
closed = 1;
nodes = (
(1048,906,l),
(866,1086,l),
(1120,1340,l),
(1300,1158,l)
);
}
);
width = 1360;
},
{
layerId = "1AFB8506-DA78-41BC-86D2-7292AF872014";
shapes = (
{
closed = 1;
nodes = (
(505,196,o),
(375,254,o),
(279,351,cs),
(183,447,o),
(125,577,o),
(125,722,cs),
(125,866,o),
(183,996,o),
(279,1092,cs),
(375,1188,o),
(505,1246,o),
(649,1246,cs),
(794,1246,o),
(924,1188,o),
(1021,1092,cs),
(1117,996,o),
(1175,866,o),
(1175,722,cs),
(1175,577,o),
(1117,447,o),
(1021,351,cs),
(924,254,o),
(794,196,o),
(649,196,cs)
);
},
{
closed = 1;
nodes = (
(176,132,l),
(60,248,l),
(281,469,l),
(398,353,l)
);
},
{
closed = 1;
nodes = (
(282,970,l),
(60,1192,l),
(176,1308,l),
(397,1087,l)
);
},
{
closed = 1;
nodes = (
(1122,132,l),
(901,353,l),
(1017,469,l),
(1238,248,l)
);
},
{
closed = 1;
nodes = (
(718,347,o),
(781,364,o),
(838,399,cs),
(894,433,o),
(939,478,o),
(973,535,cs),
(1006,591,o),
(1023,653,o),
(1023,720,cs),
(1023,789,o),
(1006,852,o),
(972,908,cs),
(937,965,o),
(892,1010,o),
(835,1044,cs),
(779,1077,o),
(716,1094,o),
(649,1094,cs),
(580,1094,o),
(518,1077,o),
(461,1044,cs),
(404,1010,o),
(360,965,o),
(326,908,cs),
(293,852,o),
(276,789,o),
(276,720,cs),
(276,653,o),
(293,591,o),
(326,535,cs),
(360,478,o),
(404,433,o),
(461,399,cs),
(518,364,o),
(580,347,o),
(649,347,cs)
);
},
{
closed = 1;
nodes = (
(1017,971,l),
(901,1087,l),
(1122,1308,l),
(1238,1192,l)
);
}
);
width = 1298;
},
{
layerId = "D76E36A3-365E-47C5-869B-D9C6C556C4D0";
shapes = (
{
closed = 1;
nodes = (
(478,196,o),
(348,254,o),
(252,351,cs),
(156,447,o),
(98,577,o),
(98,722,cs),
(98,866,o),
(156,996,o),
(252,1092,cs),
(348,1188,o),
(478,1246,o),
(622,1246,cs),
(767,1246,o),
(897,1188,o),
(994,1092,cs),
(1090,996,o),
(1148,866,o),
(1148,722,cs),
(1148,577,o),
(1090,447,o),
(994,351,cs),
(897,254,o),
(767,196,o),
(622,196,cs)
);
},
{
closed = 1;
nodes = (
(120,160,l),
(60,220,l),
(252,412,l),
(312,352,l)
);
},
{
closed = 1;
nodes = (
(254,1028,l),
(60,1222,l),
(120,1280,l),
(312,1088,l)
);
},
{
closed = 1;
nodes = (
(1124,160,l),
(932,352,l),
(992,412,l),
(1184,220,l)
);
},
{
closed = 1;
nodes = (
(703,280,o),
(778,300,o),
(845,341,cs),
(912,381,o),
(965,434,o),
(1005,501,cs),
(1044,568,o),
(1064,641,o),
(1064,720,cs),
(1064,801,o),
(1044,876,o),
(1003,943,cs),
(962,1010,o),
(909,1063,o),
(842,1103,cs),
(775,1142,o),
(701,1162,o),
(622,1162,cs),
(541,1162,o),
(467,1142,o),
(400,1103,cs),
(333,1063,o),
(280,1010,o),
(241,943,cs),
(202,876,o),
(182,801,o),
(182,720,cs),
(182,641,o),
(202,568,o),
(241,501,cs),
(280,434,o),
(333,381,o),
(400,341,cs),
(467,300,o),
(541,280,o),
(622,280,cs)
);
},
{
closed = 1;
nodes = (
(990,1028,l),
(932,1088,l),
(1124,1280,l),
(1184,1222,l)
);
}
);
width = 1244;
}
);
leftKerningGroup = G2;
rightKerningGroup = O;
unicode = 164;
},
{
glyphname = yen;
layers = (
{
layerId = "9CE1DBE4-93A7-4D76-A027-A21376769114";
shapes = (
{
closed = 1;
nodes = (
(210,526,l),
(210,736,l),
(1050,736,l),
(1050,526,l)
);
},
{
closed = 1;
nodes = (
(210,188,l),
(210,398,l),
(1050,398,l),
(1050,188,l)
);
},
{
closed = 1;
nodes = (
(492,0,l),
(492,586,l),
(0,1440,l),
(318,1440,l),
(630,898,l),
(942,1440,l),
(1260,1440,l),
(768,586,l),
(768,0,l)
);
}
);
width = 1260;
},
{
layerId = "1AFB8506-DA78-41BC-86D2-7292AF872014";
shapes = (
{
closed = 1;
nodes = (
(183,519,l),
(183,661,l),
(959,661,l),
(959,519,l)
);
},
{
closed = 1;
nodes = (
(183,218,l),
(183,361,l),
(959,361,l),
(959,218,l)
);
},
{
closed = 1;
nodes = (
(485,0,l),
(485,600,l),
(0,1440,l),
(200,1440,l),
(571,797,l),
(942,1440,l),
(1142,1440,l),
(658,600,l),
(658,0,l)
);
}
);
width = 1142;
},
{
layerId = "D76E36A3-365E-47C5-869B-D9C6C556C4D0";
shapes = (
{
closed = 1;
nodes = (
(160,512,l),
(160,596,l),
(880,596,l),
(880,512,l)
);
},
{
closed = 1;
nodes = (
(160,244,l),
(160,328,l),
(880,328,l),
(880,244,l)
);
},
{
closed = 1;
nodes = (
(478,0,l),
(478,612,l),
(0,1440,l),
(96,1440,l),
(520,708,l),
(942,1440,l),
(1038,1440,l),
(562,612,l),
(562,0,l)
);
}
);
width = 1038;
}
);
leftKerningGroup = Y2;
rightKerningGroup = Y;
unicode = 165;
},
{
glyphname = brokenbar;
layers = (
{
layerId = "9CE1DBE4-93A7-4D76-A027-A21376769114";
shapes = (
{
closed = 1;
nodes = (
(180,600,l),
(180,1440,l),
(452,1440,l),
(452,600,l)
);
},
{
closed = 1;
nodes = (
(180,-440,l),
(180,400,l),
(452,400,l),
(452,-440,l)
);
}
);
width = 632;
},
{
layerId = "1AFB8506-DA78-41BC-86D2-7292AF872014";
shapes = (
{
closed = 1;
nodes = (
(180,681,l),
(180,1440,l),
(352,1440,l),
(352,681,l)
);
},
{
closed = 1;
nodes = (
(180,-338,l),
(180,421,l),
(352,421,l),
(352,-338,l)
);
}
);
width = 532;
},
{
layerId = "D76E36A3-365E-47C5-869B-D9C6C556C4D0";
shapes = (
{
closed = 1;
nodes = (
(180,752,l),
(180,1440,l),
(264,1440,l),
(264,752,l)
);
},
{
closed = 1;
nodes = (
(180,-248,l),
(180,440,l),
(264,440,l),
(264,-248,l)
);
}
);
width = 444;
}
);
leftKerningGroup = B2;
unicode = 166;
},
{
glyphname = section;
layers = (
{
layerId = "9CE1DBE4-93A7-4D76-A027-A21376769114";
shapes = (
{
closed = 1;
nodes = (
(481,-270,o),
(410,-257,o),
(345,-232,cs),
(216,-181,o),
(127,-77,o),
(100,84,c),
(378,126,l),
(385,91,o),
(399,61,o),
(419,37,cs),
(458,-11,o),
(515,-36,o),
(578,-36,cs),
(601,-36,o),
(624,-32,o),
(645,-25,cs),
(687,-10,o),
(716,21,o),
(716,72,cs),
(716,97,o),
(708,116,o),
(693,131,c),
(661,159,o),
(588,179,o),
(456,212,cs),
(375,233,o),
(308,257,o),
(255,284,cs),
(202,311,o),
(162,342,o),
(136,379,cs),
(109,416,o),
(96,459,o),
(96,510,cs),
(96,577,o),
(116,631,o),
(156,672,cs),
(195,713,o),
(245,743,o),
(305,762,cs),
(365,781,o),
(425,790,o),
(486,790,c),
(512,676,l),
(463,659,o),
(427,642,o),
(403,623,cs),
(378,604,o),
(366,579,o),
(366,550,cs),
(366,522,o),
(377,501,o),
(400,486,cs),
(445,457,o),
(533,439,o),
(654,406,cs),
(731,385,o),
(794,361,o),
(845,335,cs),
(895,309,o),
(932,277,o),
(957,238,cs),
(982,199,o),
(994,150,o),
(994,90,cs),
(994,12,o),
(975,-54,o),
(938,-107,cs),
(862,-214,o),
(727,-270,o),
(560,-270,cs)
);
},
{
closed = 1;
nodes = (
(602,384,l),
(624,391,o),
(645,401,o),
(666,415,cs),
(707,442,o),
(736,481,o),
(736,532,cs),
(736,557,o),
(728,576,o),
(713,591,c),
(681,619,o),
(608,639,o),
(476,672,cs),
(395,693,o),
(328,716,o),
(275,743,cs),
(222,769,o),
(182,802,o),
(156,841,cs),
(129,880,o),
(116,930,o),
(116,990,cs),
(116,1069,o),
(136,1133,o),
(176,1183,cs),
(216,1233,o),
(267,1270,o),
(329,1294,cs),
(390,1318,o),
(454,1330,o),
(520,1330,cs),
(587,1330,o),
(652,1318,o),
(713,1294,cs),
(835,1246,o),
(924,1151,o),
(944,1010,c),
(666,960,l),
(661,991,o),
(652,1016,o),
(640,1037,c),
(627,1057,o),
(611,1072,o),
(590,1083,cs),
(569,1093,o),
(543,1098,o),
(512,1098,cs),
(489,1098,o),
(468,1095,o),
(449,1089,cs),
(411,1076,o),
(386,1050,o),
(386,1010,cs),
(386,981,o),
(398,960,o),
(422,945,cs),
(470,915,o),
(559,898,o),
(674,866,cs),
(750,845,o),
(813,821,o),
(864,796,cs),
(914,770,o),
(952,738,o),
(977,701,cs),
(1002,663,o),
(1014,615,o),
(1014,558,cs),
(1014,492,o),
(998,437,o),
(966,393,cs),
(902,304,o),
(779,262,o),
(610,274,c)
);
}
);
width = 1094;
},
{
layerId = "1AFB8506-DA78-41BC-86D2-7292AF872014";
shapes = (
{
closed = 1;
nodes = (
(482,-301,o),
(417,-290,o),
(355,-268,cs),
(232,-224,o),
(140,-131,o),
(111,18,c),
(286,46,l),
(298,1,o),
(318,-36,o),
(348,-64,cs),
(406,-121,o),
(486,-147,o),
(560,-147,cs),
(598,-147,o),
(634,-140,o),
(668,-127,cs),
(734,-101,o),
(780,-49,o),
(780,28,cs),
(780,66,o),
(769,94,o),
(748,116,c),
(704,157,o),
(614,182,o),
(472,219,cs),
(394,240,o),
(327,263,o),
(270,287,cs),
(214,311,o),
(171,341,o),
(140,377,cs),
(109,413,o),
(94,458,o),
(94,514,cs),
(94,580,o),
(113,634,o),
(152,676,cs),
(190,718,o),
(239,748,o),
(298,766,cs),
(356,784,o),
(416,791,o),
(479,786,c),
(487,724,l),
(422,706,o),
(369,682,o),
(328,651,cs),
(287,621,o),
(267,581,o),
(267,535,cs),
(267,499,o),
(280,470,o),
(307,449,cs),
(359,408,o),
(456,385,o),
(577,353,cs),
(655,332,o),
(722,310,o),
(779,286,cs),
(836,262,o),
(880,231,o),
(911,192,cs),
(943,153,o),
(958,100,o),
(958,35,cs),
(958,-39,o),
(940,-100,o),
(904,-150,cs),
(832,-249,o),
(704,-301,o),
(550,-301,cs)
);
},
{
closed = 1;
nodes = (
(609,316,l),
(642,319,o),
(673,328,o),
(704,345,c),
(766,376,o),
(811,432,o),
(811,510,cs),
(811,547,o),
(800,575,o),
(779,597,c),
(735,638,o),
(645,664,o),
(503,701,cs),
(425,722,o),
(357,744,o),
(301,768,cs),
(245,791,o),
(201,822,o),
(171,859,cs),
(140,896,o),
(125,944,o),
(125,1005,cs),
(125,1076,o),
(144,1135,o),
(182,1181,cs),
(221,1228,o),
(270,1263,o),
(330,1285,cs),
(388,1308,o),
(450,1319,o),
(513,1319,cs),
(581,1319,o),
(646,1307,o),
(706,1281,cs),
(824,1231,o),
(909,1134,o),
(925,1004,c),
(749,972,l),
(741,1019,o),
(724,1057,o),
(699,1086,c),
(673,1114,o),
(644,1134,o),
(610,1148,c),
(575,1160,o),
(540,1166,o),
(503,1166,cs),
(467,1166,o),
(432,1161,o),
(401,1149,cs),
(338,1125,o),
(297,1078,o),
(297,1016,cs),
(297,979,o),
(311,951,o),
(338,930,cs),
(392,888,o),
(490,865,o),
(608,834,cs),
(685,814,o),
(752,791,o),
(810,768,c),
(867,743,o),
(910,712,o),
(942,674,cs),
(973,636,o),
(988,584,o),
(988,520,cs),
(988,452,o),
(972,396,o),
(939,352,cs),
(874,262,o),
(756,225,o),
(612,252,c)
);
}
);
width = 1059;
},
{
layerId = "D76E36A3-365E-47C5-869B-D9C6C556C4D0";
shapes = (
{
closed = 1;
nodes = (
(482,-328,o),
(423,-319,o),
(364,-300,cs),
(246,-262,o),
(151,-179,o),
(120,-40,c),
(206,-24,l),
(221,-78,o),
(247,-121,o),
(285,-153,cs),
(360,-217,o),
(460,-244,o),
(544,-244,cs),
(595,-244,o),
(643,-235,o),
(688,-217,cs),
(776,-181,o),
(836,-111,o),
(836,-10,cs),
(836,38,o),
(823,75,o),
(796,102,cs),
(742,155,o),
(637,185,o),
(486,226,cs),
(411,247,o),
(343,268,o),
(284,290,cs),
(225,311,o),
(178,340,o),
(144,375,cs),
(109,410,o),
(92,457,o),
(92,518,cs),
(92,583,o),
(111,636,o),
(148,679,cs),
(185,722,o),
(233,752,o),
(291,770,cs),
(349,787,o),
(409,791,o),
(472,782,c),
(466,766,l),
(386,747,o),
(318,717,o),
(263,676,cs),
(208,635,o),
(180,583,o),
(180,522,cs),
(180,478,o),
(195,443,o),
(225,417,cs),
(284,365,o),
(389,337,o),
(510,306,cs),
(589,286,o),
(659,265,o),
(722,243,cs),
(785,220,o),
(834,190,o),
(871,151,cs),
(908,112,o),
(926,57,o),
(926,-14,cs),
(926,-83,o),
(909,-140,o),
(874,-187,cs),
(805,-280,o),
(683,-328,o),
(542,-328,cs)
);
},
{
closed = 1;
nodes = (
(616,256,l),
(657,256,o),
(698,265,o),
(738,283,cs),
(818,319,o),
(876,389,o),
(876,490,cs),
(876,538,o),
(863,575,o),
(836,602,cs),
(782,655,o),
(677,685,o),
(526,726,cs),
(451,747,o),
(383,768,o),
(324,790,cs),
(265,811,o),
(218,840,o),
(184,875,cs),
(149,910,o),
(132,957,o),
(132,1018,cs),
(132,1083,o),
(151,1137,o),
(188,1180,cs),
(225,1223,o),
(273,1256,o),
(330,1278,cs),
(387,1299,o),
(446,1310,o),
(506,1310,cs),
(576,1310,o),
(640,1297,o),
(699,1270,cs),
(815,1217,o),
(895,1119,o),
(908,998,c),
(822,982,l),
(811,1044,o),
(787,1093,o),
(751,1128,cs),
(714,1163,o),
(673,1189,o),
(627,1204,cs),
(580,1219,o),
(537,1226,o),
(496,1226,cs),
(447,1226,o),
(401,1218,o),
(359,1201,cs),
(275,1167,o),
(220,1103,o),
(220,1022,cs),
(220,978,o),
(235,943,o),
(265,917,cs),
(324,865,o),
(429,837,o),
(550,806,cs),
(629,786,o),
(699,765,o),
(762,743,cs),
(825,720,o),
(874,690,o),
(911,651,cs),
(948,612,o),
(966,557,o),
(966,486,cs),
(966,417,o),
(949,361,o),
(916,316,cs),
(849,226,o),
(735,192,o),
(614,232,c)
);
}
);
width = 1028;
}
);
leftKerningGroup = B2;
unicode = 167;
},
{
glyphname = dieresis;
layers = (
{
layerId = "9CE1DBE4-93A7-4D76-A027-A21376769114";
shapes = (
{
closed = 1;
nodes = (
(341,1193,o),
(303,1208,o),
(273,1239,cs),
(242,1270,o),
(227,1307,o),
(227,1352,cs),
(227,1396,o),
(242,1433,o),
(273,1464,cs),
(303,1494,o),
(341,1509,o),
(386,1509,cs),
(432,1509,o),
(470,1494,o),
(500,1464,cs),
(530,1433,o),
(545,1396,o),
(545,1351,cs),
(545,1307,o),
(530,1270,o),
(500,1239,cs),
(470,1208,o),
(432,1193,o),
(387,1193,cs)
);
},
{
closed = 1;
nodes = (
(768,1193,o),
(730,1208,o),
(700,1239,cs),
(669,1270,o),
(654,1307,o),
(654,1352,cs),
(654,1396,o),
(669,1433,o),
(700,1464,cs),
(730,1494,o),
(768,1509,o),
(813,1509,cs),
(859,1509,o),
(897,1494,o),
(927,1464,cs),
(957,1433,o),
(972,1396,o),
(972,1351,cs),
(972,1307,o),
(957,1270,o),
(927,1239,cs),
(897,1208,o),
(859,1193,o),
(813,1193,cs)
);
}
);
width = 1200;
},
{
layerId = "1AFB8506-DA78-41BC-86D2-7292AF872014";
shapes = (
{
closed = 1;
nodes = (
(388,1252,o),
(362,1262,o),
(340,1284,cs),
(318,1306,o),
(307,1333,o),
(307,1365,cs),
(307,1397,o),
(318,1423,o),
(340,1445,cs),
(362,1467,o),
(388,1478,o),
(421,1478,cs),
(453,1478,o),
(480,1467,o),
(502,1445,cs),
(524,1423,o),
(534,1397,o),
(534,1364,cs),
(534,1333,o),
(524,1306,o),
(502,1284,cs),
(480,1262,o),
(453,1252,o),
(421,1252,cs)
);
},
{
closed = 1;
nodes = (
(747,1252,o),
(720,1262,o),
(698,1284,cs),
(676,1306,o),
(665,1333,o),
(665,1365,cs),
(665,1397,o),
(676,1423,o),
(698,1445,cs),
(720,1467,o),
(747,1478,o),
(779,1478,cs),
(812,1478,o),
(838,1467,o),
(860,1445,cs),
(882,1423,o),
(893,1397,o),
(893,1364,cs),
(893,1333,o),
(882,1306,o),
(860,1284,cs),
(838,1262,o),
(812,1252,o),
(779,1252,cs)
);
}
);
width = 1200;
},
{
layerId = "D76E36A3-365E-47C5-869B-D9C6C556C4D0";
shapes = (
{
closed = 1;
nodes = (
(430,1303,o),
(413,1310,o),
(399,1324,cs),
(384,1338,o),
(377,1355,o),
(377,1376,cs),
(377,1397,o),
(384,1415,o),
(399,1429,cs),
(413,1443,o),
(430,1450,o),
(451,1450,cs),
(472,1450,o),
(489,1443,o),
(504,1429,cs),
(518,1415,o),
(525,1397,o),
(525,1376,cs),
(525,1355,o),
(518,1338,o),
(504,1324,cs),
(489,1310,o),
(472,1303,o),
(451,1303,cs)
);
},
{
closed = 1;
nodes = (
(728,1303,o),
(711,1310,o),
(697,1324,cs),
(682,1338,o),
(675,1355,o),
(675,1376,cs),
(675,1397,o),
(682,1415,o),
(697,1429,cs),
(711,1443,o),
(728,1450,o),
(749,1450,cs),
(770,1450,o),
(787,1443,o),
(802,1429,cs),
(816,1415,o),
(823,1397,o),
(823,1376,cs),
(823,1355,o),
(816,1338,o),
(802,1324,cs),
(787,1310,o),
(770,1303,o),
(749,1303,cs)
);
}
);
width = 1200;
}
);
leftKerningGroup = B2;
unicode = 168;
},
{
glyphname = copyright;
layers = (
{
layerId = "9CE1DBE4-93A7-4D76-A027-A21376769114";
shapes = (
{
closed = 1;
nodes = (
(796,-140,o),
(685,-118,o),
(582,-74,cs),
(479,-29,o),
(388,32,o),
(310,110,cs),
(232,188,o),
(171,279,o),
(127,382,cs),
(82,485,o),
(60,596,o),
(60,714,cs),
(60,832,o),
(82,943,o),
(127,1046,cs),
(171,1149,o),
(232,1240,o),
(310,1318,cs),
(388,1396,o),
(479,1457,o),
(582,1502,cs),
(685,1546,o),
(796,1568,o),
(914,1568,cs),
(1032,1568,o),
(1143,1546,o),
(1246,1502,cs),
(1349,1457,o),
(1440,1396,o),
(1518,1318,cs),
(1596,1240,o),
(1657,1149,o),
(1702,1046,cs),
(1746,943,o),
(1768,832,o),
(1768,714,cs),
(1768,596,o),
(1746,485,o),
(1702,382,cs),
(1657,279,o),
(1596,188,o),
(1518,110,cs),
(1440,32,o),
(1349,-29,o),
(1246,-74,cs),
(1143,-118,o),
(1032,-140,o),
(914,-140,cs)
);
},
{
closed = 1;
nodes = (
(795,286,o),
(704,327,o),
(628,420,cs),
(593,464,o),
(568,510,o),
(552,559,cs),
(536,608,o),
(528,659,o),
(528,714,cs),
(528,829,o),
(563,926,o),
(628,1006,cs),
(703,1097,o),
(797,1142,o),
(942,1142,cs),
(1018,1142,o),
(1076,1131,o),
(1144,1088,c),
(1220,1043,o),
(1277,971,o),
(1298,872,c),
(1094,818,l),
(1085,854,o),
(1066,886,o),
(1034,914,cs),
(1005,941,o),
(969,952,o),
(930,952,cs),
(870,952,o),
(825,927,o),
(790,884,cs),
(754,839,o),
(744,777,o),
(744,714,cs),
(744,653,o),
(757,594,o),
(790,546,c),
(822,502,o),
(869,478,o),
(934,478,cs),
(981,478,o),
(1015,489,o),
(1038,512,cs),
(1066,540,o),
(1078,565,o),
(1090,598,c),
(1298,556,l),
(1277,479,o),
(1233,407,o),
(1166,356,cs),
(1106,311,o),
(1039,286,o),
(932,286,cs)
);
},
{
closed = 1;
nodes = (
(1081,114,o),
(1229,180,o),
(1339,290,cs),
(1449,400,o),
(1514,549,o),
(1514,714,cs),
(1514,881,o),
(1449,1029,o),
(1339,1139,cs),
(1229,1249,o),
(1081,1314,o),
(914,1314,cs),
(749,1314,o),
(600,1249,o),
(490,1139,cs),
(380,1029,o),
(314,881,o),
(314,714,cs),
(314,549,o),
(380,400,o),
(490,290,cs),
(600,180,o),
(749,114,o),
(914,114,cs)
);
}
);
width = 1828;
},
{
layerId = "1AFB8506-DA78-41BC-86D2-7292AF872014";
shapes = (
{
closed = 1;
nodes = (
(720,-71,o),
(620,-51,o),
(528,-11,cs),
(436,29,o),
(354,84,o),
(284,154,cs),
(214,224,o),
(159,305,o),
(120,397,cs),
(80,490,o),
(60,589,o),
(60,695,cs),
(60,801,o),
(80,900,o),
(120,993,cs),
(159,1085,o),
(214,1166,o),
(284,1236,cs),
(354,1306,o),
(436,1361,o),
(528,1401,cs),
(620,1440,o),
(720,1460,o),
(825,1460,cs),
(931,1460,o),
(1031,1440,o),
(1123,1401,cs),
(1216,1361,o),
(1297,1306,o),
(1367,1236,cs),
(1437,1166,o),
(1492,1085,o),
(1532,993,cs),
(1571,900,o),
(1591,801,o),
(1591,695,cs),
(1591,589,o),
(1571,490,o),
(1532,397,cs),
(1492,305,o),
(1437,224,o),
(1367,154,cs),
(1297,84,o),
(1216,29,o),
(1123,-11,cs),
(1031,-51,o),
(931,-71,o),
(825,-71,cs)
);
},
{
closed = 1;
nodes = (
(712,272,o),
(617,313,o),
(544,403,cs),
(509,447,o),
(485,494,o),
(471,545,cs),
(458,595,o),
(451,645,o),
(451,697,c),
(453,804,o),
(479,906,o),
(544,988,c),
(617,1077,o),
(713,1120,o),
(843,1120,cs),
(916,1120,o),
(977,1107,o),
(1041,1068,cs),
(1107,1028,o),
(1161,964,o),
(1182,882,c),
(1043,841,l),
(1028,882,o),
(1000,920,o),
(963,948,cs),
(927,976,o),
(882,987,o),
(836,987,cs),
(763,987,o),
(701,956,o),
(658,902,cs),
(615,847,o),
(601,770,o),
(601,698,cs),
(601,620,o),
(619,545,o),
(658,491,cs),
(698,435,o),
(761,405,o),
(837,405,cs),
(888,405,o),
(931,418,o),
(965,443,cs),
(1001,470,o),
(1023,503,o),
(1040,544,c),
(1182,508,l),
(1154,432,o),
(1107,373,o),
(1054,335,c),
(994,294,o),
(928,272,o),
(836,272,cs)
);
},
{
closed = 1;
nodes = (
(991,95,o),
(1139,161,o),
(1249,271,cs),
(1359,381,o),
(1424,530,o),
(1424,696,cs),
(1424,862,o),
(1359,1010,o),
(1249,1120,cs),
(1139,1230,o),
(991,1295,o),
(825,1295,cs),
(659,1295,o),
(510,1230,o),
(400,1120,cs),
(290,1010,o),
(224,862,o),
(224,696,cs),
(224,530,o),
(290,381,o),
(400,271,cs),
(510,161,o),
(659,95,o),
(825,95,cs)
);
}
);
width = 1651;
},
{
layerId = "D76E36A3-365E-47C5-869B-D9C6C556C4D0";
shapes = (
{
closed = 1;
nodes = (
(653,-10,o),
(564,8,o),
(481,44,cs),
(398,79,o),
(325,129,o),
(262,192,cs),
(199,255,o),
(149,328,o),
(114,411,cs),
(78,494,o),
(60,583,o),
(60,678,cs),
(60,773,o),
(78,863,o),
(114,946,cs),
(149,1029,o),
(199,1102,o),
(262,1165,cs),
(325,1228,o),
(398,1277,o),
(481,1313,cs),
(564,1348,o),
(653,1366,o),
(748,1366,cs),
(843,1366,o),
(933,1348,o),
(1016,1313,cs),
(1099,1277,o),
(1172,1228,o),
(1235,1165,cs),
(1298,1102,o),
(1347,1029,o),
(1383,946,cs),
(1418,863,o),
(1436,773,o),
(1436,678,cs),
(1436,583,o),
(1418,494,o),
(1383,411,cs),
(1347,328,o),
(1298,255,o),
(1235,192,cs),
(1172,129,o),
(1099,79,o),
(1016,44,cs),
(933,8,o),
(843,-10,o),
(748,-10,cs)
);
},
{
closed = 1;
nodes = (
(639,260,o),
(541,300,o),
(470,388,cs),
(435,432,o),
(412,480,o),
(401,532,cs),
(390,583,o),
(384,633,o),
(384,682,c),
(387,782,o),
(405,888,o),
(470,972,c),
(541,1060,o),
(639,1100,o),
(756,1100,cs),
(827,1100,o),
(890,1086,o),
(950,1050,cs),
(1009,1014,o),
(1059,958,o),
(1080,890,c),
(998,862,l),
(978,906,o),
(943,950,o),
(900,978,cs),
(859,1006,o),
(806,1018,o),
(754,1018,cs),
(669,1018,o),
(593,982,o),
(542,918,cs),
(493,854,o),
(476,764,o),
(476,684,cs),
(476,592,o),
(498,502,o),
(542,442,cs),
(590,377,o),
(667,342,o),
(752,342,cs),
(807,342,o),
(857,355,o),
(902,382,cs),
(945,409,o),
(975,448,o),
(996,496,c),
(1080,466,l),
(1047,390,o),
(996,343,o),
(956,316,c),
(896,279,o),
(831,260,o),
(752,260,cs)
);
},
{
closed = 1;
nodes = (
(913,78,o),
(1061,144,o),
(1171,254,cs),
(1281,364,o),
(1346,513,o),
(1346,680,cs),
(1346,845,o),
(1281,993,o),
(1171,1103,cs),
(1061,1213,o),
(913,1278,o),
(748,1278,cs),
(581,1278,o),
(432,1213,o),
(322,1103,cs),
(212,993,o),
(146,845,o),
(146,680,cs),
(146,513,o),
(212,364,o),
(322,254,cs),
(432,144,o),
(581,78,o),
(748,78,cs)
);
}
);
width = 1496;
}
);
leftKerningGroup = B2;
unicode = 169;
},
{
glyphname = ordfeminine;
layers = (
{
layerId = "9CE1DBE4-93A7-4D76-A027-A21376769114";
shapes = (
{
closed = 1;
nodes = (
(52,480,l),
(52,618,l),
(760,618,l),
(760,480,l)
);
},
{
closed = 1;
nodes = (
(155,710,o),
(53,799,o),
(53,931,cs),
(53,1071,o),
(156,1153,o),
(358,1177,cs),
(538,1198,l),
(537,1211,o),
(535,1223,o),
(530,1234,cs),
(513,1273,o),
(472,1291,o),
(409,1291,cs),
(330,1291,o),
(286,1267,o),
(265,1211,c),
(82,1252,l),
(125,1393,o),
(240,1470,o),
(411,1470,cs),
(636,1470,o),
(742,1368,o),
(742,1150,cs),
(742,730,l),
(538,730,l),
(538,833,l),
(490,751,o),
(415,710,o),
(305,710,cs)
);
},
{
closed = 1;
nodes = (
(436,878,o),
(498,913,o),
(521,954,c),
(530,968,o),
(535,983,o),
(536,999,cs),
(538,1017,o),
(538,1035,o),
(538,1053,c),
(385,1035,ls),
(297,1025,o),
(253,998,o),
(253,950,cs),
(253,902,o),
(289,878,o),
(361,878,cs)
);
}
);
width = 817;
},
{
layerId = "1AFB8506-DA78-41BC-86D2-7292AF872014";
shapes = (
{
closed = 1;
nodes = (
(51,501,l),
(51,606,l),
(720,606,l),
(720,501,l)
);
},
{
closed = 1;
nodes = (
(152,710,o),
(53,792,o),
(53,922,cs),
(53,1073,o),
(173,1135,o),
(363,1158,cs),
(574,1184,l),
(573,1216,o),
(569,1244,o),
(560,1267,cs),
(536,1325,o),
(482,1353,o),
(394,1353,cs),
(289,1353,o),
(228,1314,o),
(204,1233,c),
(84,1257,l),
(121,1395,o),
(230,1470,o),
(396,1470,cs),
(602,1470,o),
(703,1371,o),
(703,1167,cs),
(703,730,l),
(574,730,l),
(574,854,l),
(521,760,o),
(433,710,o),
(310,710,cs)
);
},
{
closed = 1;
nodes = (
(457,822,o),
(541,884,o),
(563,979,c),
(569,995,o),
(572,1012,o),
(573,1031,cs),
(574,1049,o),
(574,1066,o),
(574,1082,c),
(376,1058,ls),
(238,1043,o),
(181,1005,o),
(181,931,cs),
(181,859,o),
(234,822,o),
(340,822,cs)
);
}
);
width = 784;
},
{
layerId = "D76E36A3-365E-47C5-869B-D9C6C556C4D0";
shapes = (
{
closed = 1;
nodes = (
(51,520,l),
(51,595,l),
(685,595,l),
(685,520,l)
);
},
{
closed = 1;
nodes = (
(150,710,o),
(53,785,o),
(53,915,cs),
(53,1074,o),
(188,1120,o),
(368,1142,cs),
(605,1171,l),
(605,1220,o),
(599,1262,o),
(586,1295,cs),
(556,1371,o),
(491,1407,o),
(381,1407,cs),
(254,1407,o),
(177,1356,o),
(150,1252,c),
(85,1262,l),
(118,1397,o),
(222,1470,o),
(383,1470,cs),
(572,1470,o),
(668,1373,o),
(668,1181,cs),
(668,730,l),
(605,730,l),
(605,873,l),
(549,768,o),
(448,710,o),
(315,710,cs)
);
},
{
closed = 1;
nodes = (
(475,773,o),
(578,858,o),
(600,1001,cs),
(603,1019,o),
(604,1038,o),
(605,1059,cs),
(606,1077,o),
(605,1093,o),
(605,1107,c),
(368,1079,ls),
(187,1058,o),
(118,1012,o),
(118,915,cs),
(118,822,o),
(186,773,o),
(322,773,cs)
);
}
);
width = 756;
}
);
leftKerningGroup = B2;
unicode = 170;
},
{
glyphname = guillemotleft;
layers = (
{
layerId = "9CE1DBE4-93A7-4D76-A027-A21376769114";
shapes = (
{
closed = 1;
nodes = (
(944,94,l),
(590,540,l),
(944,986,l),
(1086,874,l),
(820,540,l),
(1086,206,l)
);
},
{
closed = 1;
nodes = (
(514,94,l),
(160,540,l),
(514,986,l),
(656,874,l),
(390,540,l),
(656,206,l)
);
}
);
width = 1206;
},
{
layerId = "1AFB8506-DA78-41BC-86D2-7292AF872014";
shapes = (
{
closed = 1;
nodes = (
(868,104,l),
(521,541,l),
(868,977,l),
(968,900,l),
(681,541,l),
(968,181,l)
);
},
{
closed = 1;
nodes = (
(508,104,l),
(160,541,l),
(508,977,l),
(607,900,l),
(321,541,l),
(607,181,l)
);
}
);
width = 1098;
},
{
layerId = "D76E36A3-365E-47C5-869B-D9C6C556C4D0";
shapes = (
{
closed = 1;
nodes = (
(802,112,l),
(460,542,l),
(802,970,l),
(864,922,l),
(560,542,l),
(864,160,l)
);
},
{
closed = 1;
nodes = (
(502,112,l),
(160,542,l),
(502,970,l),
(564,922,l),
(260,542,l),
(564,160,l)
);
}
);
width = 1004;
}
);
leftKerningGroup = B2;
unicode = 171;
},
{
glyphname = logicalnot;
layers = (
{
layerId = "9CE1DBE4-93A7-4D76-A027-A21376769114";
shapes = (
{
closed = 1;
nodes = (
(870,366,l),
(870,596,l),
(120,596,l),
(120,806,l),
(1080,806,l),
(1080,366,l)
);
}
);
width = 1200;
},
{
layerId = "1AFB8506-DA78-41BC-86D2-7292AF872014";
shapes = (
{
closed = 1;
nodes = (
(937,385,l),
(937,629,l),
(120,629,l),
(120,772,l),
(1080,772,l),
(1080,385,l)
);
}
);
width = 1200;
},
{
layerId = "D76E36A3-365E-47C5-869B-D9C6C556C4D0";
shapes = (
{
closed = 1;
nodes = (
(996,402,l),
(996,658,l),
(120,658,l),
(120,742,l),
(1080,742,l),
(1080,402,l)
);
}
);
width = 1200;
}
);
leftKerningGroup = B2;
unicode = 172;
},
{
glyphname = registered;
layers = (
{
layerId = "9CE1DBE4-93A7-4D76-A027-A21376769114";
shapes = (
{
closed = 1;
nodes = (
(520,536,o),
(390,594,o),
(294,691,cs),
(198,787,o),
(140,917,o),
(140,1062,cs),
(140,1206,o),
(198,1336,o),
(294,1432,cs),
(390,1528,o),
(520,1586,o),
(664,1586,cs),
(809,1586,o),
(939,1528,o),
(1036,1432,cs),
(1132,1336,o),
(1190,1206,o),
(1190,1062,cs),
(1190,917,o),
(1132,787,o),
(1036,691,cs),
(939,594,o),
(809,536,o),
(664,536,cs)
);
},
{
closed = 1;
nodes = (
(729,712,o),
(788,728,o),
(841,760,cs),
(894,792,o),
(936,835,o),
(968,888,cs),
(1000,941,o),
(1016,999,o),
(1016,1062,cs),
(1016,1127,o),
(1000,1186,o),
(968,1239,cs),
(936,1292,o),
(894,1334,o),
(841,1365,cs),
(788,1396,o),
(729,1412,o),
(666,1412,cs),
(601,1412,o),
(543,1396,o),
(490,1365,cs),
(437,1334,o),
(394,1292,o),
(363,1239,cs),
(332,1186,o),
(316,1127,o),
(316,1062,cs),
(316,999,o),
(332,941,o),
(363,888,cs),
(394,835,o),
(437,792,o),
(490,760,cs),
(543,728,o),
(601,712,o),
(666,712,cs)
);
},
{
closed = 1;
nodes = (
(498,824,l),
(498,1300,l),
(698,1300,ls),
(749,1300,o),
(789,1286,o),
(817,1257,cs),
(845,1228,o),
(860,1190,o),
(862,1142,c),
(862,1085,o),
(836,1034,o),
(780,1002,c),
(868,824,l),
(766,824,l),
(688,986,l),
(588,986,l),
(588,824,l)
);
},
{
closed = 1;
nodes = (
(588,1070,l),
(702,1070,ls),
(722,1070,o),
(738,1077,o),
(751,1091,cs),
(764,1104,o),
(770,1121,o),
(770,1142,cs),
(770,1165,o),
(765,1183,o),
(754,1196,cs),
(743,1208,o),
(725,1214,o),
(702,1214,cs),
(588,1214,l)
);
}
);
width = 1330;
},
{
layerId = "1AFB8506-DA78-41BC-86D2-7292AF872014";
shapes = (
{
closed = 1;
nodes = (
(497,567,o),
(375,621,o),
(284,712,cs),
(194,802,o),
(140,924,o),
(140,1061,cs),
(140,1196,o),
(194,1318,o),
(284,1409,cs),
(375,1499,o),
(497,1553,o),
(633,1553,cs),
(769,1553,o),
(891,1499,o),
(982,1409,cs),
(1072,1318,o),
(1126,1196,o),
(1126,1061,cs),
(1126,924,o),
(1072,802,o),
(982,712,cs),
(891,621,o),
(769,567,o),
(633,567,cs)
);
},
{
closed = 1;
nodes = (
(701,694,o),
(762,710,o),
(818,744,cs),
(873,777,o),
(917,822,o),
(950,877,cs),
(983,932,o),
(1000,994,o),
(1000,1061,cs),
(1000,1129,o),
(983,1190,o),
(950,1245,cs),
(917,1301,o),
(873,1345,o),
(818,1378,cs),
(762,1410,o),
(701,1427,o),
(634,1427,cs),
(566,1427,o),
(505,1410,o),
(449,1378,cs),
(394,1345,o),
(349,1301,o),
(317,1245,c),
(283,1190,o),
(267,1129,o),
(267,1061,cs),
(267,994,o),
(283,932,o),
(317,877,c),
(349,822,o),
(394,777,o),
(449,744,cs),
(505,710,o),
(566,694,o),
(634,694,cs)
);
},
{
closed = 1;
nodes = (
(469,829,l),
(469,1297,l),
(671,1297,ls),
(716,1297,o),
(753,1282,o),
(783,1253,cs),
(812,1224,o),
(827,1188,o),
(828,1144,c),
(828,1090,o),
(798,1035,o),
(743,1007,c),
(831,829,l),
(739,829,l),
(660,992,l),
(550,992,l),
(550,829,l)
);
},
{
closed = 1;
nodes = (
(550,1068,l),
(672,1068,ls),
(692,1068,o),
(709,1075,o),
(724,1090,cs),
(738,1105,o),
(745,1123,o),
(745,1144,cs),
(745,1168,o),
(738,1186,o),
(724,1200,cs),
(710,1214,o),
(692,1220,o),
(672,1220,cs),
(550,1220,l)
);
}
);
width = 1266;
},
{
layerId = "D76E36A3-365E-47C5-869B-D9C6C556C4D0";
shapes = (
{
closed = 1;
nodes = (
(477,594,o),
(361,645,o),
(276,730,cs),
(191,815,o),
(140,931,o),
(140,1060,cs),
(140,1188,o),
(191,1303,o),
(276,1388,cs),
(361,1473,o),
(477,1524,o),
(606,1524,cs),
(734,1524,o),
(849,1473,o),
(934,1388,cs),
(1019,1303,o),
(1070,1188,o),
(1070,1060,cs),
(1070,931,o),
(1019,815,o),
(934,730,cs),
(849,645,o),
(734,594,o),
(606,594,cs)
);
},
{
closed = 1;
nodes = (
(676,678,o),
(740,695,o),
(798,730,cs),
(855,764,o),
(901,810,o),
(935,868,cs),
(969,925,o),
(986,989,o),
(986,1060,cs),
(986,1130,o),
(969,1194,o),
(935,1251,cs),
(901,1308,o),
(855,1354,o),
(798,1389,cs),
(740,1423,o),
(676,1440,o),
(606,1440,cs),
(535,1440,o),
(471,1423,o),
(414,1389,cs),
(356,1354,o),
(310,1308,o),
(276,1251,cs),
(241,1194,o),
(224,1130,o),
(224,1060,cs),
(224,989,o),
(241,925,o),
(276,868,cs),
(310,810,o),
(356,764,o),
(414,730,cs),
(471,695,o),
(535,678,o),
(606,678,cs)
);
},
{
closed = 1;
nodes = (
(444,834,l),
(444,1294,l),
(648,1294,ls),
(687,1294,o),
(722,1279,o),
(753,1250,cs),
(783,1221,o),
(798,1186,o),
(798,1146,cs),
(798,1094,o),
(765,1036,o),
(710,1012,c),
(798,834,l),
(716,834,l),
(636,998,l),
(516,998,l),
(516,834,l)
);
},
{
closed = 1;
nodes = (
(516,1066,l),
(646,1066,ls),
(666,1066,o),
(684,1074,o),
(700,1090,cs),
(716,1105,o),
(724,1124,o),
(724,1146,cs),
(724,1170,o),
(715,1189,o),
(698,1204,cs),
(681,1219,o),
(663,1226,o),
(646,1226,cs),
(516,1226,l)
);
}
);
width = 1210;
}
);
leftKerningGroup = B2;
unicode = 174;
},
{
glyphname = macron;
layers = (
{
layerId = "9CE1DBE4-93A7-4D76-A027-A21376769114";
shapes = (
{
closed = 1;
nodes = (
(240,1680,l),
(240,1888,l),
(784,1888,l),
(784,1680,l)
);
}
);
width = 1024;
},
{
layerId = "1AFB8506-DA78-41BC-86D2-7292AF872014";
shapes = (
{
closed = 1;
nodes = (
(240,1680,l),
(240,1822,l),
(750,1822,l),
(750,1680,l)
);
}
);
width = 990;
},
{
layerId = "D76E36A3-365E-47C5-869B-D9C6C556C4D0";
shapes = (
{
closed = 1;
nodes = (
(240,1680,l),
(240,1764,l),
(720,1764,l),
(720,1680,l)
);
}
);
width = 960;
}
);
leftKerningGroup = B2;
unicode = 175;
},
{
glyphname = degree;
layers = (
{
layerId = "9CE1DBE4-93A7-4D76-A027-A21376769114";
shapes = (
{
closed = 1;
nodes = (
(354,750,o),
(294,766,o),
(239,799,cs),
(130,863,o),
(60,977,o),
(60,1110,cs),
(60,1175,o),
(77,1235,o),
(110,1290,cs),
(143,1345,o),
(187,1388,o),
(242,1421,cs),
(297,1454,o),
(356,1470,o),
(420,1470,cs),
(486,1470,o),
(546,1454,o),
(601,1422,cs),
(709,1357,o),
(780,1243,o),
(780,1110,cs),
(780,1043,o),
(764,983,o),
(731,929,cs),
(666,820,o),
(552,750,o),
(420,750,cs)
);
},
{
closed = 1;
nodes = (
(443,980,o),
(465,986,o),
(485,998,cs),
(524,1022,o),
(550,1063,o),
(550,1110,cs),
(550,1133,o),
(544,1155,o),
(532,1175,cs),
(508,1214,o),
(467,1240,o),
(420,1240,cs),
(397,1240,o),
(375,1234,o),
(356,1222,cs),
(316,1198,o),
(290,1157,o),
(290,1110,cs),
(290,1087,o),
(296,1065,o),
(308,1046,cs),
(332,1006,o),
(373,980,o),
(420,980,cs)
);
}
);
width = 900;
},
{
layerId = "1AFB8506-DA78-41BC-86D2-7292AF872014";
shapes = (
{
closed = 1;
nodes = (
(354,750,o),
(294,766,o),
(239,799,cs),
(130,863,o),
(60,977,o),
(60,1110,cs),
(60,1175,o),
(77,1235,o),
(110,1290,cs),
(143,1345,o),
(187,1388,o),
(242,1421,cs),
(297,1454,o),
(356,1470,o),
(420,1470,cs),
(486,1470,o),
(546,1454,o),
(601,1422,cs),
(709,1357,o),
(780,1243,o),
(780,1110,cs),
(780,1043,o),
(764,983,o),
(731,929,cs),
(666,820,o),
(552,750,o),
(420,750,cs)
);
},
{
closed = 1;
nodes = (
(457,902,o),
(492,912,o),
(524,931,cs),
(587,969,o),
(628,1035,o),
(628,1110,cs),
(628,1147,o),
(619,1182,o),
(600,1214,cs),
(562,1277,o),
(495,1318,o),
(420,1318,cs),
(383,1318,o),
(348,1309,o),
(317,1290,cs),
(254,1252,o),
(212,1185,o),
(212,1110,cs),
(212,1073,o),
(222,1038,o),
(241,1007,cs),
(279,943,o),
(345,902,o),
(420,902,cs)
);
}
);
width = 900;
},
{
layerId = "D76E36A3-365E-47C5-869B-D9C6C556C4D0";
shapes = (
{
closed = 1;
nodes = (
(354,750,o),
(294,766,o),
(239,799,cs),
(130,863,o),
(60,977,o),
(60,1110,cs),
(60,1175,o),
(77,1235,o),
(110,1290,cs),
(143,1345,o),
(187,1388,o),
(242,1421,cs),
(297,1454,o),
(356,1470,o),
(420,1470,cs),
(486,1470,o),
(546,1454,o),
(601,1422,cs),
(709,1357,o),
(780,1243,o),
(780,1110,cs),
(780,1043,o),
(764,983,o),
(731,929,cs),
(666,820,o),
(552,750,o),
(420,750,cs)
);
},
{
closed = 1;
nodes = (
(470,834,o),
(516,847,o),
(558,872,cs),
(642,922,o),
(696,1010,o),
(696,1110,cs),
(696,1160,o),
(684,1206,o),
(659,1248,cs),
(609,1332,o),
(520,1386,o),
(420,1386,cs),
(370,1386,o),
(324,1374,o),
(283,1349,cs),
(199,1299,o),
(144,1210,o),
(144,1110,cs),
(144,1060,o),
(157,1014,o),
(182,972,cs),
(233,888,o),
(320,834,o),
(420,834,cs)
);
}
);
width = 900;
}
);
leftKerningGroup = B2;
unicode = 176;
},
{
glyphname = plusminus;
layers = (
{
layerId = "9CE1DBE4-93A7-4D76-A027-A21376769114";
shapes = (
{
closed = 1;
nodes = (
(496,440,l),
(496,656,l),
(120,656,l),
(120,866,l),
(496,866,l),
(496,1080,l),
(706,1080,l),
(706,866,l),
(1080,866,l),
(1080,656,l),
(706,656,l),
(706,440,l)
);
},
{
closed = 1;
nodes = (
(120,120,l),
(120,330,l),
(1080,330,l),
(1080,120,l)
);
}
);
width = 1200;
},
{
layerId = "1AFB8506-DA78-41BC-86D2-7292AF872014";
shapes = (
{
closed = 1;
nodes = (
(529,440,l),
(529,689,l),
(120,689,l),
(120,832,l),
(529,832,l),
(529,1080,l),
(672,1080,l),
(672,832,l),
(1080,832,l),
(1080,689,l),
(672,689,l),
(672,440,l)
);
},
{
closed = 1;
nodes = (
(120,150,l),
(120,293,l),
(1080,293,l),
(1080,150,l)
);
}
);
width = 1200;
},
{
layerId = "D76E36A3-365E-47C5-869B-D9C6C556C4D0";
shapes = (
{
closed = 1;
nodes = (
(558,440,l),
(558,718,l),
(120,718,l),
(120,802,l),
(558,802,l),
(558,1080,l),
(642,1080,l),
(642,802,l),
(1080,802,l),
(1080,718,l),
(642,718,l),
(642,440,l)
);
},
{
closed = 1;
nodes = (
(120,176,l),
(120,260,l),
(1080,260,l),
(1080,176,l)
);
}
);
width = 1200;
}
);
leftKerningGroup = B2;
unicode = 177;
},
